<svg width="130" height="40" viewBox="0 0 130 40" fill="none" xmlns="http://www.w3.org/2000/svg">
<path d="M37.2657 28.3494C37.0618 27.8619 36.8706 27.3494 36.6667 26.9119L35.7236 24.8244L35.6853 24.7869C32.8814 18.7869 29.8863 12.6869 26.7128 6.68694L26.5853 6.43694C26.2667 5.84944 25.9481 5.19944 25.6167 4.59944C25.2089 3.88694 24.8138 3.12444 24.1638 2.39944C23.5302 1.64086 22.7328 1.02968 21.8291 0.610011C20.9255 0.190344 19.9381 -0.0273437 18.9383 -0.0273438C17.9384 -0.0273437 16.9511 0.190344 16.0474 0.610011C15.1438 1.02968 14.3464 1.64086 13.7128 2.39944C13.1138 3.12444 12.6677 3.88694 12.2598 4.59944C11.9412 5.24944 11.6226 5.88694 11.2912 6.47444L11.1638 6.72444C8.04121 12.7244 4.99513 18.8244 2.19121 24.8244L2.11474 24.8994C1.83435 25.5494 1.50297 26.2244 1.18435 26.9494C0.980425 27.3869 0.776504 27.8619 0.572582 28.3869C0.0220353 29.7617 -0.153772 31.2534 0.0624878 32.715C0.278747 34.1767 0.879608 35.5579 1.80585 36.7225C2.7321 37.887 3.95176 38.7948 5.34463 39.3562C6.73751 39.9177 8.25552 40.1136 9.74905 39.9244C11.1809 39.7396 12.5597 39.2718 13.802 38.5494C15.4589 37.6369 17.052 36.3119 18.8363 34.3994C20.6206 36.3119 22.252 37.6369 23.8706 38.5619C25.4272 39.458 27.1899 39.9526 28.9942 39.9994C31.0835 40.0079 33.1055 39.2748 34.6867 37.9353C36.268 36.5959 37.3017 34.7406 37.5971 32.7119C37.9385 31.2542 37.823 29.7293 37.2657 28.3369V28.3494ZM18.9638 30.4244C16.7716 27.6744 15.3442 25.1494 14.8598 22.9869C14.6592 22.1856 14.6159 21.3541 14.7324 20.5369C14.8216 19.8994 15.0638 19.3369 15.3951 18.8619C16.1598 17.7744 17.4981 17.0994 18.9638 17.0994C19.6598 17.0786 20.3503 17.2276 20.9731 17.533C21.596 17.8384 22.1318 18.2908 22.5324 18.8494C22.8638 19.3494 23.1059 19.8994 23.1824 20.5369C23.3098 21.2619 23.2589 22.0994 23.0549 22.9869C22.5706 25.1119 21.1432 27.6619 18.9638 30.4244ZM35.201 32.2744C35.0562 33.3044 34.6388 34.2791 33.9903 35.1016C33.3418 35.924 32.4849 36.5654 31.5049 36.9619C30.5363 37.3619 29.4657 37.4744 28.4206 37.3619C27.401 37.2369 26.3814 36.9119 25.3363 36.3119C23.6011 35.2601 22.0407 33.9532 20.7098 32.4369C23.3863 29.1869 25.0049 26.2244 25.6167 23.5869C25.9098 22.3369 25.9481 21.2119 25.8206 20.1744C25.6615 19.191 25.2876 18.253 24.7245 17.4244C24.0817 16.526 23.2236 15.7962 22.2258 15.2993C21.2279 14.8023 20.1209 14.5534 19.002 14.5744C16.6442 14.5744 14.5412 15.6494 13.2667 17.4119C12.693 18.2384 12.3222 19.1839 12.1834 20.1744C12.0177 21.2244 12.0559 22.3869 12.3873 23.5869C12.9991 26.2244 14.6559 29.2244 17.2942 32.4619C15.9858 34.0071 14.4219 35.3255 12.6677 36.3619C11.6098 36.9619 10.603 37.2744 9.58337 37.3994C7.99773 37.5986 6.39601 37.176 5.12636 36.2233C3.8567 35.2707 3.02175 33.865 2.80297 32.3119C2.67552 31.3119 2.76474 30.3119 3.17258 29.1869C3.30003 28.7869 3.49121 28.3869 3.69513 27.9119C3.97552 27.2619 4.3069 26.5869 4.62552 25.9119L4.6765 25.8244C7.42945 19.8619 10.4373 13.7744 13.5598 7.81194L13.6873 7.56194C14.0059 6.96194 14.3245 6.32444 14.6559 5.72444C14.9873 5.08694 15.3442 4.47444 15.803 3.97444C16.2001 3.50947 16.6964 3.13553 17.2568 2.87896C17.8172 2.62239 18.4281 2.48943 19.0466 2.48943C19.6651 2.48943 20.276 2.62239 20.8364 2.87896C21.3968 3.13553 21.8931 3.50947 22.2902 3.97444C22.7363 4.47444 23.1059 5.08694 23.4373 5.72444C23.7559 6.32444 24.0745 6.97444 24.4059 7.56194L24.5334 7.81194C27.6432 13.7744 30.651 19.8619 33.4549 25.8244L33.4932 25.8619C33.8245 26.5119 34.1049 27.2369 34.4236 27.8619C34.6275 28.3494 34.8314 28.7369 34.9589 29.1494C35.201 30.2744 35.3285 31.2744 35.201 32.2744ZM52.9422 30.1494C51.9818 30.1632 51.0306 29.9648 50.1591 29.5688C49.2876 29.1728 48.5181 28.5894 47.9079 27.8619C46.5366 26.3119 45.8088 24.3133 45.8687 22.2619C45.8477 20.166 46.599 18.133 47.9844 16.5369C48.6252 15.8002 49.4229 15.2102 50.3213 14.8085C51.2197 14.4068 52.197 14.2032 53.1843 14.2119C54.1134 14.187 55.0336 14.3942 55.8585 14.814C56.6835 15.2339 57.386 15.8526 57.9 16.6119L58.0275 14.6494H61.7491V29.7494H58.0147L57.8873 27.5494C57.3573 28.3603 56.6248 29.0248 55.7593 29.4798C54.8938 29.9349 53.9241 30.1654 52.9422 30.1494ZM53.9108 26.5494C54.65 26.5494 55.3 26.3494 55.9118 25.9869C56.4726 25.5869 56.9314 25.0619 57.2883 24.4244C57.6069 23.7869 57.7726 23.0244 57.7726 22.1744C57.8223 21.4362 57.6757 20.6979 57.3474 20.0318C57.019 19.3658 56.5199 18.7947 55.8991 18.3744C55.3025 18.0099 54.6137 17.8167 53.9108 17.8167C53.2079 17.8167 52.5191 18.0099 51.9226 18.3744C51.3618 18.7744 50.903 19.2994 50.5461 19.9369C50.2091 20.64 50.0433 21.4103 50.0618 22.1869C50.0121 22.9252 50.1586 23.6635 50.487 24.3295C50.8154 24.9956 51.3145 25.5667 51.9353 25.9869C52.5344 26.3494 53.1843 26.5494 53.9108 26.5494ZM68.1216 10.5744C68.1216 11.0119 68.0451 11.4119 67.8412 11.7369C67.6373 12.0494 67.3569 12.3369 66.9873 12.5369C66.6177 12.7369 66.2226 12.8119 65.8147 12.8119C65.4069 12.8119 64.9991 12.7369 64.6294 12.5369C64.2799 12.3461 63.9859 12.0707 63.7755 11.7369C63.5781 11.3809 63.4813 10.9795 63.4951 10.5744C63.4951 10.1244 63.5844 9.72444 63.7755 9.41194C63.9794 9.03694 64.2726 8.81194 64.6294 8.61194C64.9991 8.41194 65.3942 8.32444 65.8147 8.32444C66.2204 8.31527 66.6216 8.40951 66.979 8.59794C67.3365 8.78636 67.6379 9.06253 67.854 9.39944C68.0394 9.76388 68.1313 10.1672 68.1216 10.5744ZM63.7883 29.6994V14.6244H67.8412V29.7244H63.7755L63.7883 29.6994ZM78.6745 18.5744V18.6244C78.4834 18.5369 78.2285 18.4994 78.0373 18.4619C77.7824 18.4119 77.5785 18.4119 77.3363 18.4119C76.202 18.4119 75.3481 18.7369 74.7873 19.4119C74.1755 20.0994 73.8951 21.0619 73.8951 22.2994V29.7119H69.8295V14.6119H73.5638L73.6912 16.8994C74.0991 16.0994 74.5834 15.4994 75.2716 15.0494C75.9562 14.6122 76.7621 14.3939 77.5785 14.4244C77.8716 14.4244 78.152 14.4494 78.3941 14.4994C78.5216 14.5369 78.5981 14.5369 78.6745 14.5744V18.5744ZM80.3059 29.6994V8.42444H84.3589V16.5494C84.9324 15.8244 85.5824 15.2619 86.3981 14.8244C87.6894 14.2035 89.1564 14.0273 90.5623 14.3244C91.9682 14.6215 93.2311 15.3745 94.1471 16.4619C95.5214 18.0152 96.2494 20.0188 96.1863 22.0744C96.2073 24.1704 95.456 26.2034 94.0706 27.7994C93.4298 28.5362 92.6321 29.1262 91.7337 29.5279C90.8353 29.9295 89.858 30.1332 88.8706 30.1244C87.9416 30.1494 87.0214 29.9422 86.1964 29.5224C85.3715 29.1025 84.669 28.4838 84.1549 27.7244L84.0275 29.6869L80.3059 29.7244V29.6994ZM88.1442 26.5494C88.8706 26.5494 89.5206 26.3494 90.1324 25.9869C90.6932 25.5869 91.152 25.0619 91.5089 24.4244C91.8402 23.7869 91.9932 23.0244 91.9932 22.1744C91.9932 21.3369 91.8402 20.5744 91.5089 19.9369C91.1742 19.3222 90.7039 18.7885 90.1324 18.3744C89.5358 18.0099 88.847 17.8167 88.1442 17.8167C87.4413 17.8167 86.7525 18.0099 86.1559 18.3744C85.5824 18.7744 85.1363 19.2994 84.7667 19.9369C84.4297 20.64 84.2639 21.4103 84.2824 22.1869C84.2327 22.9252 84.3792 23.6635 84.7076 24.3295C85.036 24.9956 85.5351 25.5667 86.1559 25.9869C86.7549 26.3494 87.405 26.5494 88.1442 26.5494ZM97.7157 29.7119V14.6119H101.45L101.577 16.5744C102.047 15.8222 102.712 15.2065 103.506 14.7912C104.299 14.3758 105.191 14.1758 106.089 14.2119C107.117 14.1945 108.126 14.4746 108.992 15.0171C109.858 15.5596 110.542 16.3404 110.958 17.2619C111.404 18.2119 111.646 19.3869 111.646 20.6994V29.7494H107.58V21.2244C107.58 20.1744 107.338 19.3494 106.854 18.7369C106.37 18.1369 105.707 17.8119 104.866 17.8119C104.254 17.8119 103.719 17.9369 103.247 18.2119C102.801 18.4994 102.431 18.8619 102.151 19.3744C101.868 19.8925 101.727 20.4742 101.743 21.0619V29.7119H97.7157ZM113.673 29.7119V8.41194H117.738V16.5369C118.289 15.8079 119.005 15.2148 119.831 14.8047C120.656 14.3946 121.567 14.1788 122.492 14.1744C123.453 14.1607 124.404 14.3591 125.275 14.7551C126.147 15.1511 126.916 15.7345 127.527 16.4619C128.891 18.0151 129.614 20.0126 129.553 22.0619C129.575 24.1581 128.824 26.1915 127.437 27.7869C126.796 28.5237 125.999 29.1137 125.1 29.5154C124.202 29.917 123.225 30.1207 122.237 30.1119C121.308 30.1369 120.388 29.9297 119.563 29.5099C118.738 29.09 118.036 28.4713 117.522 27.7119L117.407 29.6744L113.673 29.7119ZM121.549 26.5494C122.288 26.5494 122.938 26.3494 123.537 25.9869C124.111 25.5869 124.557 25.0619 124.927 24.4244C125.245 23.7869 125.411 23.0244 125.411 22.1744C125.461 21.4362 125.314 20.6979 124.986 20.0318C124.657 19.3658 124.158 18.7947 123.537 18.3744C122.941 18.0099 122.252 17.8167 121.549 17.8167C120.846 17.8167 120.157 18.0099 119.561 18.3744C119 18.7744 118.541 19.2994 118.184 19.9369C117.829 20.6337 117.662 21.4086 117.7 22.1869C117.65 22.9252 117.797 23.6635 118.125 24.3295C118.454 24.9956 118.953 25.5667 119.574 25.9869C120.173 26.3494 120.784 26.5494 121.549 26.5494Z" fill="#FF385C"/>
</svg>
