<svg width="148" height="47" viewBox="0 0 148 47" fill="none" xmlns="http://www.w3.org/2000/svg">
<rect x="0.5" y="0.5" width="146.143" height="45.6595" rx="7.19892" fill="black"/>
<path fill-rule="evenodd" clip-rule="evenodd" d="M29.9351 24.0286C29.9595 22.1345 30.9525 20.385 32.5661 19.3929C31.5435 17.9324 29.8921 17.0396 28.1101 16.9839C26.2352 16.7871 24.4176 18.1058 23.4622 18.1058C22.4884 18.1058 21.0174 17.0034 19.4334 17.036C17.3493 17.1034 15.4534 18.2596 14.4394 20.0816C12.2802 23.8201 13.8908 29.3144 15.9592 32.3363C16.9941 33.816 18.2035 35.4689 19.7861 35.4103C21.3347 35.3461 21.9131 34.4228 23.7825 34.4228C25.6344 34.4228 26.1771 35.4103 27.7918 35.373C29.4535 35.3461 30.5005 33.8867 31.4991 32.393C32.2426 31.3386 32.8148 30.1733 33.1944 28.9402C31.2207 28.1055 29.9374 26.1716 29.9351 24.0286Z" fill="white"/>
<path fill-rule="evenodd" clip-rule="evenodd" d="M26.8845 14.9964C27.7906 13.9087 28.237 12.5106 28.1289 11.0991C26.7446 11.2445 25.4659 11.9061 24.5476 12.9521C23.6409 13.984 23.1815 15.3341 23.2707 16.705C24.6735 16.7194 26.0055 16.0897 26.8845 14.9964Z" fill="white"/>
<path d="M47.3975 16.3368V10.77H49.0053C49.4474 10.77 49.8192 10.8336 50.1207 10.9609C50.4221 11.0815 50.6666 11.2623 50.8542 11.5035C51.0485 11.7379 51.1858 12.026 51.2662 12.3676C51.3533 12.7026 51.3968 13.0844 51.3968 13.5132C51.3968 13.9553 51.3499 14.3338 51.2561 14.6486C51.169 14.9568 51.0552 15.2147 50.9145 15.4224C50.7738 15.63 50.613 15.7941 50.4322 15.9147C50.258 16.0353 50.0805 16.1291 49.8996 16.1961C49.7187 16.2564 49.5479 16.2966 49.3871 16.3167C49.2264 16.3301 49.0924 16.3368 48.9852 16.3368H47.3975ZM46.443 9.96608V17.1406H48.9048C49.501 17.1406 50.0168 17.0569 50.4523 16.8894C50.8877 16.7219 51.2461 16.4808 51.5274 16.1659C51.8088 15.8444 52.0165 15.4525 52.1504 14.9903C52.2844 14.5213 52.3514 13.9854 52.3514 13.3825C52.3514 12.2303 52.0533 11.3729 51.4571 10.8101C50.8609 10.2474 50.0101 9.96608 48.9048 9.96608H46.443ZM54.2013 14.5481C54.2013 14.2333 54.2415 13.9553 54.3219 13.7141C54.409 13.4663 54.5262 13.2586 54.6736 13.0911C54.821 12.9237 54.9918 12.7964 55.1861 12.7093C55.387 12.6222 55.598 12.5787 55.8191 12.5787C56.0402 12.5787 56.2478 12.6222 56.4421 12.7093C56.6431 12.7964 56.8172 12.9237 56.9646 13.0911C57.112 13.2586 57.2259 13.4663 57.3063 13.7141C57.3934 13.9553 57.4369 14.2333 57.4369 14.5481C57.4369 14.863 57.3934 15.1443 57.3063 15.3922C57.2259 15.6334 57.112 15.8377 56.9646 16.0052C56.8172 16.1659 56.6431 16.2899 56.4421 16.3769C56.2478 16.464 56.0402 16.5076 55.8191 16.5076C55.598 16.5076 55.387 16.464 55.1861 16.3769C54.9918 16.2899 54.821 16.1659 54.6736 16.0052C54.5262 15.8377 54.409 15.6334 54.3219 15.3922C54.2415 15.1443 54.2013 14.863 54.2013 14.5481ZM53.297 14.5481C53.297 14.93 53.3506 15.285 53.4577 15.6133C53.5649 15.9415 53.7257 16.2296 53.9401 16.4774C54.1544 16.7186 54.419 16.9095 54.7339 17.0502C55.0487 17.1842 55.4105 17.2512 55.8191 17.2512C56.2344 17.2512 56.5962 17.1842 56.9043 17.0502C57.2192 16.9095 57.4838 16.7186 57.6982 16.4774C57.9125 16.2296 58.0733 15.9415 58.1805 15.6133C58.2877 15.285 58.3413 14.93 58.3413 14.5481C58.3413 14.1663 58.2877 13.8113 58.1805 13.483C58.0733 13.1481 57.9125 12.86 57.6982 12.6189C57.4838 12.371 57.2192 12.1767 56.9043 12.036C56.5962 11.8954 56.2344 11.825 55.8191 11.825C55.4105 11.825 55.0487 11.8954 54.7339 12.036C54.419 12.1767 54.1544 12.371 53.9401 12.6189C53.7257 12.86 53.5649 13.1481 53.4577 13.483C53.3506 13.8113 53.297 14.1663 53.297 14.5481ZM64.694 17.1406L66.352 11.9456H65.4678L64.3021 16.1961H64.282L63.1968 11.9456H62.2623L61.2173 16.1961H61.1972L60.0215 11.9456H59.077L60.745 17.1406H61.6695L62.7145 13.0107H62.7346L63.7897 17.1406H64.694ZM67.365 11.9456V17.1406H68.2191V14.2065C68.2191 13.972 68.2493 13.7577 68.3096 13.5634C68.3765 13.3624 68.4737 13.1883 68.601 13.0409C68.7282 12.8935 68.8857 12.7796 69.0732 12.6992C69.2675 12.6189 69.4953 12.5787 69.7565 12.5787C70.0848 12.5787 70.3427 12.6724 70.5302 12.86C70.7178 13.0476 70.8116 13.3021 70.8116 13.6237V17.1406H71.6657V13.7242C71.6657 13.4428 71.6356 13.1883 71.5753 12.9605C71.5217 12.726 71.4246 12.5251 71.2839 12.3576C71.1432 12.1901 70.959 12.0595 70.7312 11.9657C70.5035 11.8719 70.2187 11.825 69.8771 11.825C69.1067 11.825 68.544 12.1399 68.189 12.7696H68.1689V11.9456H67.365ZM73.1997 9.96608V17.1406H74.0539V9.96608H73.1997ZM76.201 14.5481C76.201 14.2333 76.2412 13.9553 76.3216 13.7141C76.4087 13.4663 76.5259 13.2586 76.6733 13.0911C76.8206 12.9237 76.9915 12.7964 77.1857 12.7093C77.3867 12.6222 77.5977 12.5787 77.8188 12.5787C78.0398 12.5787 78.2475 12.6222 78.4418 12.7093C78.6427 12.7964 78.8169 12.9237 78.9643 13.0911C79.1117 13.2586 79.2256 13.4663 79.3059 13.7141C79.393 13.9553 79.4366 14.2333 79.4366 14.5481C79.4366 14.863 79.393 15.1443 79.3059 15.3922C79.2256 15.6334 79.1117 15.8377 78.9643 16.0052C78.8169 16.1659 78.6427 16.2899 78.4418 16.3769C78.2475 16.464 78.0398 16.5076 77.8188 16.5076C77.5977 16.5076 77.3867 16.464 77.1857 16.3769C76.9915 16.2899 76.8206 16.1659 76.6733 16.0052C76.5259 15.8377 76.4087 15.6334 76.3216 15.3922C76.2412 15.1443 76.201 14.863 76.201 14.5481ZM75.2966 14.5481C75.2966 14.93 75.3502 15.285 75.4574 15.6133C75.5646 15.9415 75.7254 16.2296 75.9397 16.4774C76.1541 16.7186 76.4187 16.9095 76.7336 17.0502C77.0484 17.1842 77.4101 17.2512 77.8188 17.2512C78.2341 17.2512 78.5959 17.1842 78.904 17.0502C79.2189 16.9095 79.4835 16.7186 79.6978 16.4774C79.9122 16.2296 80.073 15.9415 80.1801 15.6133C80.2873 15.285 80.3409 14.93 80.3409 14.5481C80.3409 14.1663 80.2873 13.8113 80.1801 13.483C80.073 13.1481 79.9122 12.86 79.6978 12.6189C79.4835 12.371 79.2189 12.1767 78.904 12.036C78.5959 11.8954 78.2341 11.825 77.8188 11.825C77.4101 11.825 77.0484 11.8954 76.7336 12.036C76.4187 12.1767 76.1541 12.371 75.9397 12.6189C75.7254 12.86 75.5646 13.1481 75.4574 13.483C75.3502 13.8113 75.2966 14.1663 75.2966 14.5481ZM86.1511 17.1205C86.0037 17.2076 85.7994 17.2512 85.5381 17.2512C85.3171 17.2512 85.1395 17.1909 85.0056 17.0703C84.8783 16.943 84.8146 16.7387 84.8146 16.4573C84.5802 16.7387 84.3055 16.943 83.9907 17.0703C83.6825 17.1909 83.3476 17.2512 82.9858 17.2512C82.7514 17.2512 82.527 17.2244 82.3126 17.1708C82.1049 17.1172 81.9241 17.0334 81.77 16.9196C81.6159 16.8057 81.492 16.6583 81.3982 16.4774C81.3111 16.2899 81.2676 16.0654 81.2676 15.8042C81.2676 15.5094 81.3178 15.2683 81.4183 15.0807C81.5188 14.8931 81.6494 14.7424 81.8102 14.6285C81.9777 14.5079 82.1652 14.4175 82.3729 14.3572C82.5873 14.2969 82.805 14.2467 83.026 14.2065C83.2605 14.1596 83.4816 14.1261 83.6892 14.106C83.9036 14.0792 84.0912 14.0457 84.2519 14.0055C84.4127 13.9586 84.54 13.895 84.6338 13.8146C84.7276 13.7275 84.7745 13.6036 84.7745 13.4428C84.7745 13.2553 84.7376 13.1045 84.6639 12.9906C84.5969 12.8768 84.5065 12.7897 84.3926 12.7294C84.2854 12.6691 84.1615 12.6289 84.0208 12.6088C83.8868 12.5887 83.7529 12.5787 83.6189 12.5787C83.2571 12.5787 82.9557 12.649 82.7145 12.7897C82.4734 12.9237 82.3427 13.1816 82.3226 13.5634H81.4685C81.4819 13.2419 81.5489 12.9705 81.6695 12.7495C81.7901 12.5284 81.9509 12.3509 82.1518 12.2169C82.3528 12.0762 82.5806 11.9758 82.8351 11.9155C83.0964 11.8552 83.3744 11.825 83.6691 11.825C83.9036 11.825 84.1347 11.8418 84.3625 11.8753C84.5969 11.9088 84.8079 11.9791 84.9955 12.0863C85.1831 12.1868 85.3338 12.3308 85.4477 12.5184C85.5616 12.7059 85.6185 12.9505 85.6185 13.2519V15.9248C85.6185 16.1257 85.6286 16.2731 85.6487 16.3669C85.6755 16.4607 85.7558 16.5076 85.8898 16.5076C85.9635 16.5076 86.0506 16.4908 86.1511 16.4573V17.1205ZM84.7644 14.4577C84.6572 14.5381 84.5165 14.5984 84.3424 14.6386C84.1682 14.6721 83.984 14.7022 83.7897 14.729C83.6021 14.7491 83.4112 14.7759 83.217 14.8094C83.0227 14.8362 82.8485 14.8831 82.6944 14.9501C82.5404 15.0171 82.4131 15.1142 82.3126 15.2415C82.2188 15.3621 82.1719 15.5295 82.1719 15.7439C82.1719 15.8846 82.1987 16.0052 82.2523 16.1056C82.3126 16.1994 82.3863 16.2765 82.4734 16.3368C82.5672 16.397 82.6743 16.4406 82.7949 16.4674C82.9155 16.4942 83.0428 16.5076 83.1768 16.5076C83.4581 16.5076 83.6993 16.4707 83.9002 16.397C84.1012 16.3167 84.2653 16.2195 84.3926 16.1056C84.5199 15.9851 84.6137 15.8578 84.674 15.7238C84.7343 15.5831 84.7644 15.4525 84.7644 15.3319V14.4577ZM87.77 14.5883C87.77 14.3338 87.7968 14.0859 87.8504 13.8448C87.9039 13.6036 87.991 13.3892 88.1116 13.2017C88.2322 13.0141 88.393 12.8634 88.5939 12.7495C88.7949 12.6356 89.0394 12.5787 89.3275 12.5787C89.6222 12.5787 89.8734 12.6356 90.0811 12.7495C90.2888 12.8567 90.4562 13.0007 90.5835 13.1816C90.7175 13.3624 90.8146 13.5735 90.8749 13.8146C90.9352 14.0491 90.9654 14.2936 90.9654 14.5481C90.9654 14.7893 90.9352 15.0271 90.8749 15.2616C90.8213 15.496 90.7309 15.7071 90.6036 15.8946C90.4763 16.0755 90.3122 16.2229 90.1112 16.3368C89.9103 16.4506 89.6658 16.5076 89.3777 16.5076C89.1031 16.5076 88.8619 16.454 88.6542 16.3468C88.4533 16.2396 88.2858 16.0956 88.1518 15.9147C88.0245 15.7339 87.9274 15.5295 87.8604 15.3018C87.8001 15.0673 87.77 14.8295 87.77 14.5883ZM91.7893 17.1406V9.96608H90.9352V12.639H90.9151C90.8213 12.4849 90.7041 12.3576 90.5634 12.2571C90.4294 12.1499 90.2854 12.0662 90.1313 12.0059C89.9773 11.9389 89.8232 11.892 89.6691 11.8652C89.515 11.8384 89.371 11.825 89.237 11.825C88.8418 11.825 88.4935 11.8987 88.192 12.0461C87.8972 12.1868 87.6494 12.381 87.4484 12.6289C87.2542 12.8701 87.1068 13.1548 87.0063 13.483C86.9125 13.8113 86.8656 14.1596 86.8656 14.528C86.8656 14.8965 86.9159 15.2448 87.0163 15.5731C87.1168 15.9013 87.2642 16.1894 87.4585 16.4372C87.6594 16.6851 87.9073 16.8827 88.202 17.0301C88.5035 17.1775 88.8552 17.2512 89.2571 17.2512C89.6189 17.2512 89.9505 17.1875 90.2519 17.0602C90.5534 16.933 90.7744 16.7253 90.9151 16.4372H90.9352V17.1406H91.7893ZM96.925 14.5481C96.925 14.2333 96.9652 13.9553 97.0456 13.7141C97.1326 13.4663 97.2499 13.2586 97.3973 13.0911C97.5446 12.9237 97.7155 12.7964 97.9097 12.7093C98.1107 12.6222 98.3217 12.5787 98.5428 12.5787C98.7638 12.5787 98.9715 12.6222 99.1658 12.7093C99.3667 12.7964 99.5409 12.9237 99.6883 13.0911C99.8357 13.2586 99.9495 13.4663 100.03 13.7141C100.117 13.9553 100.161 14.2333 100.161 14.5481C100.161 14.863 100.117 15.1443 100.03 15.3922C99.9495 15.6334 99.8357 15.8377 99.6883 16.0052C99.5409 16.1659 99.3667 16.2899 99.1658 16.3769C98.9715 16.464 98.7638 16.5076 98.5428 16.5076C98.3217 16.5076 98.1107 16.464 97.9097 16.3769C97.7155 16.2899 97.5446 16.1659 97.3973 16.0052C97.2499 15.8377 97.1326 15.6334 97.0456 15.3922C96.9652 15.1443 96.925 14.863 96.925 14.5481ZM96.0206 14.5481C96.0206 14.93 96.0742 15.285 96.1814 15.6133C96.2886 15.9415 96.4494 16.2296 96.6637 16.4774C96.8781 16.7186 97.1427 16.9095 97.4575 17.0502C97.7724 17.1842 98.1341 17.2512 98.5428 17.2512C98.9581 17.2512 99.3198 17.1842 99.628 17.0502C99.9428 16.9095 100.207 16.7186 100.422 16.4774C100.636 16.2296 100.797 15.9415 100.904 15.6133C101.011 15.285 101.065 14.93 101.065 14.5481C101.065 14.1663 101.011 13.8113 100.904 13.483C100.797 13.1481 100.636 12.86 100.422 12.6189C100.207 12.371 99.9428 12.1767 99.628 12.036C99.3198 11.8954 98.9581 11.825 98.5428 11.825C98.1341 11.825 97.7724 11.8954 97.4575 12.036C97.1427 12.1767 96.8781 12.371 96.6637 12.6189C96.4494 12.86 96.2886 13.1481 96.1814 13.483C96.0742 13.8113 96.0206 14.1663 96.0206 14.5481ZM102.273 11.9456V17.1406H103.127V14.2065C103.127 13.972 103.157 13.7577 103.217 13.5634C103.284 13.3624 103.382 13.1883 103.509 13.0409C103.636 12.8935 103.794 12.7796 103.981 12.6992C104.175 12.6189 104.403 12.5787 104.664 12.5787C104.993 12.5787 105.251 12.6724 105.438 12.86C105.626 13.0476 105.72 13.3021 105.72 13.6237V17.1406H106.574V13.7242C106.574 13.4428 106.543 13.1883 106.483 12.9605C106.43 12.726 106.332 12.5251 106.192 12.3576C106.051 12.1901 105.867 12.0595 105.639 11.9657C105.411 11.8719 105.127 11.825 104.785 11.825C104.015 11.825 103.452 12.1399 103.097 12.7696H103.077V11.9456H102.273ZM112.241 11.9456V10.3881H111.387V11.9456H110.502V12.6992H111.387V16.0052C111.387 16.2463 111.41 16.4406 111.457 16.588C111.504 16.7353 111.574 16.8492 111.668 16.9296C111.768 17.01 111.896 17.0669 112.05 17.1004C112.211 17.1272 112.402 17.1406 112.623 17.1406H113.276V16.387H112.884C112.75 16.387 112.639 16.3836 112.552 16.3769C112.472 16.3636 112.408 16.3401 112.361 16.3066C112.314 16.2731 112.281 16.2262 112.261 16.1659C112.247 16.1056 112.241 16.0253 112.241 15.9248V12.6992H113.276V11.9456H112.241ZM114.426 9.96608V17.1406H115.28V14.2065C115.28 13.972 115.31 13.7577 115.37 13.5634C115.437 13.3624 115.534 13.1883 115.662 13.0409C115.789 12.8935 115.946 12.7796 116.134 12.6992C116.328 12.6189 116.556 12.5787 116.817 12.5787C117.145 12.5787 117.403 12.6724 117.591 12.86C117.778 13.0476 117.872 13.3021 117.872 13.6237V17.1406H118.726V13.7242C118.726 13.4428 118.696 13.1883 118.636 12.9605C118.582 12.726 118.485 12.5251 118.344 12.3576C118.204 12.1901 118.02 12.0595 117.792 11.9657C117.564 11.8719 117.279 11.825 116.938 11.825C116.784 11.825 116.623 11.8418 116.455 11.8753C116.295 11.9088 116.137 11.9624 115.983 12.036C115.836 12.103 115.702 12.1935 115.581 12.3074C115.461 12.4145 115.367 12.5485 115.3 12.7093H115.28V9.96608H114.426ZM123.817 14.0457H120.833C120.846 13.8448 120.89 13.6572 120.964 13.483C121.037 13.3021 121.138 13.1447 121.265 13.0107C121.392 12.8768 121.543 12.7729 121.717 12.6992C121.898 12.6189 122.099 12.5787 122.32 12.5787C122.535 12.5787 122.729 12.6189 122.903 12.6992C123.084 12.7729 123.238 12.8768 123.365 13.0107C123.499 13.138 123.603 13.2921 123.677 13.473C123.757 13.6538 123.804 13.8448 123.817 14.0457ZM124.641 15.4927H123.797C123.724 15.8343 123.57 16.0889 123.335 16.2564C123.107 16.4238 122.813 16.5076 122.451 16.5076C122.169 16.5076 121.925 16.4607 121.717 16.3669C121.51 16.2731 121.339 16.1492 121.205 15.9951C121.071 15.8343 120.974 15.6535 120.913 15.4525C120.853 15.2448 120.826 15.0271 120.833 14.7994H124.722C124.735 14.4845 124.705 14.1529 124.631 13.8046C124.564 13.4562 124.437 13.1347 124.25 12.8399C124.069 12.5452 123.824 12.304 123.516 12.1164C123.215 11.9222 122.833 11.825 122.37 11.825C122.015 11.825 121.687 11.892 121.386 12.026C121.091 12.16 120.833 12.3475 120.612 12.5887C120.398 12.8299 120.23 13.1146 120.11 13.4428C119.989 13.7711 119.929 14.1328 119.929 14.528C119.942 14.9233 119.999 15.2884 120.1 15.6233C120.207 15.9583 120.364 16.2463 120.572 16.4875C120.779 16.7286 121.034 16.9162 121.335 17.0502C121.644 17.1842 122.005 17.2512 122.421 17.2512C123.01 17.2512 123.499 17.1038 123.888 16.809C124.276 16.5143 124.528 16.0755 124.641 15.4927Z" fill="white"/>
<path d="M64.7151 25.5872C67.2806 25.5872 68.9717 27.6152 68.9717 30.7476C68.9717 33.8889 67.2904 35.907 64.7532 35.907C63.4418 35.9756 62.2065 35.2887 61.5728 34.1385H61.5248V39.1453H59.4499V25.6929H61.4583V27.3742H61.4965C62.1583 26.2312 63.395 25.5446 64.7151 25.5872ZM75.8407 25.5872C78.4062 25.5872 80.0973 27.6152 80.0973 30.7476C80.0973 33.8889 78.416 35.907 75.8788 35.907C74.5674 35.9756 73.3321 35.2887 72.6984 34.1385H72.6504V39.1453H70.5755V25.6929H72.5839V27.3742H72.622C73.2839 26.2312 74.5205 25.5446 75.8407 25.5872ZM90.7366 21.7056C93.6663 21.7056 95.6747 23.3487 95.7423 25.7408H93.6478C93.5224 24.3572 92.3786 23.522 90.7072 23.522C89.0357 23.522 87.892 24.367 87.892 25.5969C87.892 26.5771 88.6225 27.1539 90.4095 27.5954L91.937 27.9705C94.7817 28.6432 95.9636 29.7859 95.9636 31.8139C95.9636 34.4077 93.8974 36.0323 90.6112 36.0323C87.5365 36.0323 85.4606 34.4459 85.3264 31.9382L87.4504 31.9383C87.6041 33.3132 88.9398 34.2159 90.765 34.2159C92.5139 34.2159 93.7721 33.3131 93.7721 32.0734C93.7721 30.9973 93.0132 30.3529 91.2164 29.9113L89.4195 29.4785C86.8736 28.8635 85.6917 27.6729 85.6917 25.7408C85.6917 23.3487 87.7764 21.7056 90.7366 21.7056ZM108.271 25.5686C111.202 25.5686 113.066 27.5671 113.066 30.7476C113.066 33.9368 111.212 35.9267 108.271 35.9267C105.332 35.9267 103.477 33.9368 103.477 30.7476C103.477 27.5672 105.35 25.5686 108.271 25.5686ZM125.073 25.5686C127.87 25.5686 129.628 27.4898 129.628 30.5546V31.2655H122.489V31.3909C122.422 32.1435 122.682 32.8884 123.202 33.4362C123.723 33.984 124.453 34.2819 125.208 34.2541C126.215 34.3484 127.164 33.7702 127.543 32.8323L129.513 32.8323C129.234 34.6673 127.447 35.9266 125.16 35.9266C122.22 35.9266 120.394 33.9564 120.394 30.7956C120.394 27.625 122.229 25.5686 125.073 25.5686ZM100.442 23.3008V25.6929H102.364V27.336H100.442V32.9086C100.442 33.7744 100.826 34.1778 101.671 34.1778C101.9 34.1738 102.127 34.1578 102.354 34.1298V35.7631C101.974 35.8341 101.588 35.8662 101.201 35.859C99.155 35.859 98.3569 35.0903 98.3569 33.1299V27.336H96.8871V25.6929H98.3568V23.3008H100.442ZM53.1555 21.9367L58.1612 35.8013H55.8846L54.6165 32.0538H49.3318L48.0626 35.8013H45.8242L50.8299 21.9367H53.1555ZM119.235 25.5871C119.475 25.5863 119.713 25.6123 119.946 25.6646V27.6053C119.644 27.5131 119.33 27.4707 119.014 27.4799C118.404 27.4552 117.814 27.6983 117.398 28.1454C116.982 28.5925 116.783 29.199 116.852 29.8056V35.8013H114.777V25.6929H116.756V27.4134H116.804C117.08 26.3059 118.095 25.5436 119.235 25.5871ZM108.271 27.2783C106.59 27.2783 105.591 28.5757 105.591 30.7476C105.591 32.9381 106.59 34.216 108.271 34.216C109.952 34.216 110.952 32.9381 110.952 30.7476C110.952 28.5659 109.952 27.2783 108.271 27.2783ZM64.1677 27.3557C62.5824 27.3557 61.5161 28.7295 61.5161 30.7476C61.5161 32.7844 62.5824 34.1484 64.1677 34.1484C65.7814 34.1484 66.839 32.8127 66.839 30.7476C66.839 28.7011 65.7814 27.3557 64.1677 27.3557ZM75.2933 27.3557C73.708 27.3557 72.6417 28.7295 72.6417 30.7476C72.6417 32.7844 73.708 34.1484 75.2933 34.1484C76.907 34.1484 77.9646 32.8127 77.9646 30.7476C77.9646 28.7011 76.907 27.3557 75.2933 27.3557ZM52.0031 24.2428H51.9453L49.8791 30.3246H54.0682L52.0031 24.2428ZM125.073 27.2499C124.39 27.2458 123.735 27.5145 123.251 27.9963C122.768 28.4781 122.497 29.1329 122.499 29.8154H127.552C127.59 29.1392 127.344 28.4779 126.873 27.9909C126.403 27.5039 125.75 27.2353 125.073 27.2499Z" fill="white"/>
<rect x="0.5" y="0.5" width="146.143" height="45.6595" rx="7.19892" stroke="#DDDDDD"/>
</svg>
