<svg width="278" height="465" viewBox="0 0 278 465" fill="none" xmlns="http://www.w3.org/2000/svg">
<path d="M137.474 438.735L134.061 435.684L139.072 425.658L137.474 438.735Z" fill="#C8E8E7" stroke="#121212" stroke-width="0.17" stroke-linecap="round" stroke-linejoin="round"/>
<path d="M142.196 421.227L141.76 435.757L137.475 438.736V430.672L142.196 421.227Z" fill="#121212" stroke="#121212" stroke-width="0.17" stroke-linecap="round" stroke-linejoin="round"/>
<path d="M162.751 454.937L159.337 451.886L164.276 441.86L162.751 454.937Z" fill="#C8E8E7" stroke="#121212" stroke-width="0.17" stroke-linecap="round" stroke-linejoin="round"/>
<path d="M257.026 298.588V209.369L196.597 176.821V267.783L257.026 298.588Z" fill="white" stroke="#121212" stroke-width="0.17" stroke-miterlimit="10"/>
<path d="M250.707 304.036V214.818L190.351 182.269V273.231L250.707 304.036Z" fill="white" stroke="#121212" stroke-width="0.17" stroke-miterlimit="10"/>
<path d="M190.351 182.27L196.597 176.821L257.026 209.369L250.707 214.818L190.351 182.27Z" fill="white" stroke="#121212" stroke-width="0.75" stroke-miterlimit="10"/>
<path d="M257.026 209.37V298.588L250.707 304.037V214.819L257.026 209.37Z" fill="#C8E8E7" stroke="#121212" stroke-width="0.75" stroke-miterlimit="10"/>
<path d="M217.587 414.833L168.561 390.276V294.665L217.587 321.328V414.833Z" fill="white" stroke="#121212" stroke-width="0.75" stroke-miterlimit="10"/>
<path d="M217.588 414.833V338.62L256.809 306.144V381.921L217.588 414.833Z" fill="#C8E8E7" stroke="#121212" stroke-width="0.75" stroke-miterlimit="10"/>
<path d="M116.557 97.3377V88.692C116.578 87.685 116.809 86.6935 117.234 85.7805C117.659 84.8674 118.27 84.0528 119.026 83.3883C120.027 82.5581 121.244 82.031 122.534 81.8691C123.824 81.7071 125.134 81.917 126.309 82.4741C127.484 83.0312 128.475 83.9124 129.166 85.0138C129.858 86.1153 130.22 87.3914 130.212 88.692V97.3377C130.217 98.3316 130.005 99.3146 129.591 100.218C129.177 101.122 128.571 101.924 127.815 102.569C126.82 103.417 125.603 103.962 124.308 104.139C123.012 104.316 121.693 104.117 120.508 103.567C119.322 103.016 118.32 102.136 117.619 101.032C116.919 99.9275 116.55 98.6454 116.557 97.3377Z" fill="white" stroke="#121212" stroke-width="0.75" stroke-miterlimit="10"/>
<path d="M217.587 343.487L269.809 300.621V287.398L217.369 329.901L217.587 343.487Z" fill="#C8E8E7" stroke="#121212" stroke-width="0.17" stroke-miterlimit="10"/>
<path d="M217.369 329.901L168.706 302.728L219.403 260.735L269.809 287.399L217.369 329.901Z" fill="white" stroke="#121212" stroke-width="0.17" stroke-miterlimit="10"/>
<path d="M168.706 302.729V316.387L217.587 343.487L217.369 329.901L168.706 302.729Z" fill="#121212" stroke="#121212" stroke-width="0.17" stroke-linecap="round" stroke-linejoin="round"/>
<path d="M141.179 414.833L142.05 419.192C142.624 421.867 142.431 424.651 141.493 427.221C140.555 429.792 138.91 432.046 136.748 433.722L127.088 440.988C123.26 443.946 118.817 446.006 114.087 447.018C106.824 447.817 96.4379 448.326 97.8179 444.039C99.8516 437.718 112.344 430.09 112.344 430.09L141.179 414.833Z" fill="#121212" stroke="#121212" stroke-width="0.17" stroke-linecap="round" stroke-linejoin="round"/>
<path d="M141.905 399.503C141.905 399.503 140.888 415.487 141.034 417.521C141.179 419.555 134.424 426.966 126.507 431.253C122.319 433.3 117.603 434.01 112.998 433.287C112.631 433.239 112.287 433.085 112.007 432.843C111.727 432.602 111.524 432.283 111.424 431.927C111.323 431.572 111.329 431.194 111.441 430.842C111.553 430.489 111.766 430.177 112.054 429.945L119.317 424.205C122.241 421.772 124.555 418.686 126.072 415.196L126.725 413.598C128.02 410.617 128.687 407.403 128.686 404.153V399.285L141.905 399.503Z" fill="white" stroke="#121212" stroke-width="0.17" stroke-linecap="round" stroke-linejoin="round"/>
<path d="M166.31 431.325L167.181 435.684C167.747 438.366 167.543 441.154 166.592 443.726C165.641 446.297 163.982 448.546 161.807 450.215L152.219 457.48C148.365 460.439 143.898 462.499 139.146 463.51C132.246 464.309 121.569 464.89 122.949 460.531C124.982 454.21 137.475 446.655 137.475 446.655L166.31 431.325Z" fill="#121212" stroke="#121212" stroke-width="0.17" stroke-linecap="round" stroke-linejoin="round"/>
<path d="M166.963 415.995C166.963 415.995 165.946 431.979 166.092 434.013C166.237 436.048 159.555 443.531 151.565 447.745C147.411 449.816 142.717 450.552 138.129 449.852C137.762 449.804 137.417 449.65 137.138 449.408C136.858 449.167 136.655 448.848 136.555 448.492C136.454 448.136 136.46 447.759 136.572 447.406C136.684 447.054 136.897 446.742 137.184 446.51L144.448 440.697C147.411 438.331 149.734 435.258 151.202 431.761L151.929 430.09C153.231 427.112 153.899 423.896 153.89 420.645V415.777L166.963 415.995Z" fill="white" stroke="#121212" stroke-width="0.17" stroke-linecap="round" stroke-linejoin="round"/>
<path d="M225.867 245.259C242.427 265.965 243.589 296.916 220.565 313.771L173.209 354.966L166.672 429.871L149.895 431.397L139.218 337.311L225.867 245.259Z" fill="#121212"/>
<path d="M194.127 248.311L126.144 303.382C122.203 306.599 119.105 310.728 117.118 315.412C115.131 320.096 114.315 325.194 114.741 330.264L124.546 418.029L140.961 415.196L145.972 333.824L225.867 279.116" fill="#121212"/>
<path d="M149.895 431.325L139.218 337.312" stroke="white" stroke-width="0.17" stroke-miterlimit="10"/>
<path d="M163.477 424.423L164.276 424.859L163.477 424.423Z" fill="#121212"/>
<path d="M202.708 143.171L202.436 143.163L202.344 143.42L185.93 189.482L185.916 189.519L185.911 189.559L181.335 224.505L181.32 224.621L181.373 224.725L197.207 255.603L197.278 255.741L197.426 255.788L230.11 266.323L230.551 266.465L230.598 266.004L238.297 190.009L238.321 189.772L238.117 189.649L230.854 185.29L230.842 185.283L230.83 185.277L221.605 180.627L221.603 180.626C219.882 179.773 218.491 178.375 217.647 176.649C216.803 174.923 216.554 172.966 216.938 171.083L216.938 171.08L222.168 144.125L222.252 143.691L221.81 143.679L202.708 143.171Z" fill="white" stroke="#121212" stroke-width="0.75" stroke-miterlimit="10"/>
<path d="M232.55 195.493V282.459L188.971 258.701" fill="white"/>
<path d="M232.55 195.493V282.459L188.971 258.701" stroke="#121212" stroke-width="0.17" stroke-miterlimit="10"/>
<path d="M189.334 130.54L183.813 130.758" stroke="#121212" stroke-width="0.17" stroke-miterlimit="10"/>
<path d="M183.741 238.94L184.176 261.244L236.035 287.835V227.315L232.985 226.298H232.258C229.643 225.267 227.268 223.708 225.281 221.719C223.293 219.729 221.737 217.352 220.708 214.735C219.679 212.118 219.2 209.317 219.3 206.506C219.401 203.696 220.078 200.936 221.291 198.399L227.828 184.377L195.579 167.812L167.398 216.199L170.522 224.554C170.522 224.554 174.807 237.196 183.741 238.94Z" fill="#121212" stroke="#121212" stroke-width="0.17" stroke-miterlimit="10"/>
<path d="M186.065 216.198L198.776 169.7L202.698 143.763L221.8 144.271L216.571 171.226C216.17 173.189 216.43 175.23 217.311 177.031C218.191 178.831 219.642 180.29 221.437 181.179L186.065 216.198Z" fill="white" stroke="#121212" stroke-width="0.75" stroke-miterlimit="10"/>
<path d="M208.363 114.484L203.642 108.381C200.219 107.997 196.765 108.74 193.803 110.497C190.841 112.254 188.532 114.929 187.227 118.116C181.344 129.741 167.398 177.765 167.398 177.765L198.775 169.337L208.363 114.484Z" fill="#121212" stroke="#121212" stroke-width="0.17" stroke-miterlimit="10"/>
<path d="M198.776 117.608L196.379 118.189C193.991 118.785 191.808 120.015 190.06 121.749C188.556 123.217 187.498 125.081 187.01 127.126C186.105 140.858 186.421 154.644 187.954 168.32C197.225 163.956 205.774 158.199 213.303 151.247C213.303 151.247 213.303 149.866 213.303 149.576C213.303 148.05 213.303 146.597 213.666 145.071C214.029 140.744 214.029 136.394 213.666 132.066C213.45 127.837 212.095 123.745 209.744 120.224C208.896 119.027 207.706 118.115 206.33 117.608C203.856 116.942 201.25 116.942 198.776 117.608Z" fill="white" stroke="#121212" stroke-width="0.75" stroke-miterlimit="10"/>
<path d="M198.775 117.39C198.775 117.39 207.782 114.484 209.815 128.942C210.933 146.143 210.933 163.398 209.815 180.599L234.583 161.346C233.71 147.596 231.595 133.955 228.264 120.587C226.703 117.795 224.471 115.437 221.77 113.724C219.069 112.012 215.983 110.999 212.793 110.779L198.775 117.39Z" fill="#121212" stroke="#121212" stroke-width="0.17" stroke-miterlimit="10"/>
<path d="M228.538 113.747C231.269 108.294 227.407 100.828 219.911 97.0718C212.416 93.3155 204.125 94.691 201.394 100.144C198.663 105.597 202.526 113.063 210.021 116.819C217.517 120.575 225.807 119.2 228.538 113.747Z" fill="#121212" stroke="#121212" stroke-width="0.17" stroke-miterlimit="10"/>
<path d="M198.776 153.499C197.911 154.372 196.868 155.049 195.718 155.484C194.569 155.918 193.339 156.1 192.113 156.018C190.886 155.935 189.692 155.589 188.611 155.004C187.53 154.419 186.588 153.609 185.848 152.627H189.988C189.988 152.627 190.423 152.627 190.569 153.209C190.723 153.332 190.915 153.4 191.114 153.4C191.312 153.4 191.504 153.332 191.658 153.209H192.312H193.692H196.452L198.776 153.499Z" fill="#121212"/>
<path d="M187.3 154.226C187.3 154.226 187.953 157.568 190.931 157.64C191.933 157.697 192.931 157.477 193.816 157.002C194.7 156.528 195.436 155.818 195.943 154.952C195.943 154.952 189.842 156.623 187.3 154.226Z" fill="#121212"/>
<path d="M196.088 130.686C196.088 130.686 200.01 127.417 206.837 131.776L196.088 130.686Z" fill="white"/>
<path d="M196.088 130.686C196.088 130.686 200.01 127.417 206.837 131.776" stroke="#121212" stroke-width="0.75" stroke-miterlimit="10"/>
<path d="M196.524 133.519C197.778 132.858 199.174 132.512 200.592 132.512C202.009 132.512 203.405 132.858 204.659 133.519" fill="white"/>
<path d="M196.524 133.519C197.778 132.858 199.174 132.512 200.592 132.512C202.009 132.512 203.405 132.858 204.659 133.519" stroke="#121212" stroke-width="0.75" stroke-miterlimit="10"/>
<path d="M199.502 135.335C200.144 135.335 200.664 134.815 200.664 134.173C200.664 133.531 200.144 133.01 199.502 133.01C198.86 133.01 198.34 133.531 198.34 134.173C198.34 134.815 198.86 135.335 199.502 135.335Z" fill="#121212" stroke="#121212" stroke-width="0.17" stroke-miterlimit="10"/>
<path d="M182.797 129.014C184.343 128.048 186.13 127.535 187.954 127.535C189.777 127.535 191.564 128.048 193.111 129.014L188.535 149.284L194.2 148.34" stroke="#121212" stroke-width="0.75" stroke-miterlimit="10"/>
<path d="M191.949 131.993C190.661 131.42 189.251 131.172 187.845 131.274C186.439 131.375 185.079 131.822 183.887 132.575" stroke="#121212" stroke-width="0.75" stroke-miterlimit="10"/>
<path d="M187.881 134.028C188.523 134.028 189.043 133.507 189.043 132.865C189.043 132.223 188.523 131.703 187.881 131.703C187.239 131.703 186.719 132.223 186.719 132.865C186.719 133.507 187.239 134.028 187.881 134.028Z" fill="#121212" stroke="#121212" stroke-width="0.17" stroke-miterlimit="10"/>
<path d="M74.1409 318.785L69.0566 314.208V217.579L76.9009 215.69L74.1409 318.785Z" fill="#121212" stroke="black" stroke-width="0.75"/>
<path d="M74.1406 203.484V318.785L79.7333 313.118V198.762L74.1406 203.484Z" fill="white" stroke="#121212" stroke-width="0.75" stroke-linecap="round" stroke-linejoin="round"/>
<path d="M199.865 458.497L194.781 453.92V357.291L202.698 355.402L199.865 458.497Z" fill="#121212"/>
<path d="M199.865 343.197V458.498L205.531 452.831V338.547L199.865 343.197Z" fill="#C8E8E7" stroke="#121212" stroke-width="0.75" stroke-miterlimit="10"/>
<path d="M257.971 408.657L252.887 404.152V307.523L260.804 305.634L257.971 408.657Z" fill="#121212" stroke="#121212" stroke-width="0.17" stroke-linecap="round" stroke-linejoin="round"/>
<path d="M257.971 293.429V408.657L263.563 403.062V288.706L257.971 293.429Z" fill="#C8E8E7" stroke="#121212" stroke-width="0.75" stroke-miterlimit="10"/>
<path d="M16.0354 368.553L10.9512 363.975V267.346L18.868 265.458L16.0354 368.553Z" fill="#121212"/>
<path d="M16.0352 253.252V368.553L21.6278 362.886V248.529L16.0352 253.252Z" fill="white" stroke="#121212" stroke-width="0.75" stroke-linecap="round" stroke-linejoin="round"/>
<path d="M277 295.1L192.748 365.429L1.50879 263.496L82.7109 193.821L277 295.1Z" fill="white" stroke="#121212" stroke-width="0.17" stroke-miterlimit="10"/>
<path d="M277 286.963L192.311 358.018L1 256.085L82.2021 186.411L277 286.963Z" fill="white" stroke="#121212" stroke-width="0.75" stroke-miterlimit="10"/>
<path d="M1.50879 255.287V263.496L192.748 365.429V357.292L1.50879 255.287Z" fill="#121212" stroke="#121212" stroke-width="0.17" stroke-miterlimit="10"/>
<path d="M192.748 357.291V365.428L277.001 295.1V286.962L192.748 357.291Z" fill="#C8E8E7" stroke="#121212" stroke-width="0.75" stroke-miterlimit="10"/>
<path d="M88.0127 292.848L162.097 329.174L210.833 290.377L135.877 252.307L88.0127 292.848Z" fill="#C8E8E7" stroke="#121212" stroke-width="0.17" stroke-miterlimit="10"/>
<path d="M135.805 283.404L158.829 294.665L172.484 283.839L149.532 274.395L135.805 283.404Z" fill="#121212" stroke="#121212" stroke-width="0.17" stroke-linecap="round" stroke-linejoin="round"/>
<path d="M162.097 329.175L210.832 290.378V295.028L162.242 334.043L162.097 329.175Z" fill="#121212" stroke="#121212" stroke-width="0.17" stroke-linecap="round" stroke-linejoin="round"/>
<path d="M217.369 256.449L173.79 295.391L160.426 301.857L167.689 312.029L177.785 308.541C181.391 306.948 184.705 304.762 187.59 302.075C190.858 299.387 194.199 296.844 197.541 294.229L217.006 278.899C221.945 274.975 227.029 271.125 231.968 267.129C234.196 265.311 235.65 262.714 236.035 259.864L244.751 205.592C245.31 202.128 244.77 198.576 243.207 195.435C241.643 192.295 239.135 189.723 236.035 188.082L230.297 184.958" fill="white"/>
<path d="M217.369 256.449L173.79 295.391L160.426 301.857L167.689 312.029L177.785 308.541C181.391 306.948 184.705 304.762 187.59 302.075C190.858 299.387 194.199 296.844 197.541 294.229L217.006 278.899C221.945 274.975 227.029 271.125 231.968 267.129C234.196 265.311 235.65 262.714 236.035 259.864L244.751 205.592C245.31 202.128 244.77 198.576 243.207 195.435C241.643 192.295 239.135 189.723 236.035 188.082L230.297 184.958" stroke="#121212" stroke-width="0.75" stroke-miterlimit="10"/>
<path d="M175.316 309.34C175.316 309.34 164.639 313.118 163.985 312.973C163.332 312.828 163.114 314.208 161.589 316.824C161.102 317.594 160.426 318.226 159.624 318.658C158.823 319.091 157.923 319.31 157.013 319.294L162.46 310.648L168.997 307.161" fill="white"/>
<path d="M175.316 309.34C175.316 309.34 164.639 313.118 163.985 312.973C163.332 312.828 163.114 314.208 161.589 316.824C161.102 317.594 160.426 318.226 159.624 318.658C158.823 319.091 157.923 319.31 157.013 319.294L162.46 310.648L168.997 307.161" stroke="#121212" stroke-width="0.17" stroke-miterlimit="10"/>
<path d="M163.331 300.404L156.068 304.109L147.934 312.464C148.961 312.533 149.992 312.395 150.965 312.058C151.938 311.721 152.834 311.192 153.599 310.503C155.633 308.25 157.23 305.78 157.811 306.071C160.283 305.589 162.712 304.909 165.075 304.036" fill="white"/>
<path d="M163.331 300.404L156.068 304.109L147.934 312.464C148.961 312.533 149.992 312.395 150.965 312.058C151.938 311.721 152.834 311.192 153.599 310.503C155.633 308.25 157.23 305.78 157.811 306.071C160.283 305.589 162.712 304.909 165.075 304.036" stroke="#121212" stroke-width="0.17" stroke-miterlimit="10"/>
<path d="M165.656 301.639L157.811 307.96L151.855 317.914C152.868 317.757 153.839 317.401 154.712 316.864C155.586 316.328 156.343 315.622 156.94 314.789C158.465 312.101 159.482 309.413 160.135 309.486C162.413 308.518 164.6 307.351 166.672 305.998" fill="white"/>
<path d="M165.656 301.639L157.811 307.96L151.855 317.914C152.868 317.757 153.839 317.401 154.712 316.864C155.586 316.328 156.343 315.622 156.94 314.789C158.465 312.101 159.482 309.413 160.135 309.486C162.413 308.518 164.6 307.351 166.672 305.998" stroke="#121212" stroke-width="0.17" stroke-miterlimit="10"/>
<path d="M168.852 307.378C166.78 308.731 164.592 309.898 162.315 310.865C161.661 310.865 160.644 313.554 159.119 316.169C158.549 317.012 157.808 317.725 156.945 318.264C156.082 318.802 155.115 319.153 154.107 319.293L159.991 309.412L166.309 304.327" fill="white"/>
<path d="M168.852 307.378C166.78 308.731 164.592 309.898 162.315 310.865C161.661 310.865 160.644 313.554 159.119 316.169C158.549 317.012 157.808 317.725 156.945 318.264C156.082 318.802 155.115 319.153 154.107 319.293L159.991 309.412L166.309 304.327" stroke="#121212" stroke-width="0.17" stroke-miterlimit="10"/>
<path d="M162.242 334.042L154.18 265.966L79.4424 225.208L87.7224 294.228L162.242 334.042Z" fill="#FF726B" stroke="#121212" stroke-width="0.17" stroke-miterlimit="10"/>
<path d="M217.369 256.521L227.538 198.907" stroke="#121212" stroke-width="0.75" stroke-miterlimit="10"/>
<path d="M167.472 437.429L166.964 451.959L162.751 454.938V446.874L167.472 437.429Z" fill="#121212" stroke="#121212" stroke-width="0.17" stroke-linecap="round" stroke-linejoin="round"/>
<path d="M149.749 86.294C149.658 86.0148 149.536 85.7468 149.386 85.4948C147.715 82.3707 145.463 79.3193 143.502 76.3405L136.239 64.9339L124.546 46.5526C124.384 46.3874 124.26 46.1891 124.182 45.9714V14.5852C124.171 14.3268 124.091 14.0761 123.951 13.859C123.81 13.6419 123.614 13.4662 123.383 13.35C123.174 13.253 122.945 13.2098 122.715 13.2245C122.485 13.2391 122.262 13.3111 122.067 13.4339C121.872 13.5567 121.711 13.7264 121.598 13.9275C121.486 14.1286 121.425 14.3547 121.422 14.5852V46.9159L112.997 60.4294C112.997 61.156 111.617 62.6817 111.254 63.2629L109.22 66.4596L105.153 72.9258C103.555 75.5413 101.884 78.1568 100.214 80.7724C98.5434 83.3879 96.0013 85.7854 97.1635 88.5463C98.1227 90.1492 99.5752 91.3982 101.304 92.1063C107.125 94.7328 113.438 96.0948 119.825 96.1022H123.383C129.687 96.2341 135.969 95.3258 141.977 93.414C144.737 92.6875 150.838 90.1446 149.749 86.294Z" fill="#C8E8E7" stroke="#121212" stroke-width="0.75" stroke-linecap="round" stroke-linejoin="round"/>
<path d="M122.876 26.5739C137.196 26.5739 148.805 21.6297 148.805 15.5306C148.805 9.43156 137.196 4.4873 122.876 4.4873C108.555 4.4873 96.9463 9.43156 96.9463 15.5306C96.9463 21.6297 108.555 26.5739 122.876 26.5739Z" fill="#C8E8E7" stroke="#121212" stroke-width="0.75" stroke-miterlimit="10"/>
<path d="M122.876 23.0866C137.196 23.0866 148.805 18.1424 148.805 12.0433C148.805 5.94426 137.196 1 122.876 1C108.555 1 96.9463 5.94426 96.9463 12.0433C96.9463 18.1424 108.555 23.0866 122.876 23.0866Z" fill="#121212" stroke="#121212" stroke-width="0.17" stroke-miterlimit="10"/>
<path d="M144.011 177.764L132.317 175.222L126.943 143.545C126.89 143.221 126.916 142.889 127.019 142.578C127.122 142.266 127.299 141.984 127.534 141.756C127.769 141.528 128.057 141.36 128.371 141.266C128.685 141.173 129.018 141.157 129.34 141.22L142.558 144.126L147.715 174.568C147.735 175.038 147.647 175.506 147.46 175.938C147.273 176.37 146.991 176.753 146.635 177.061C146.279 177.368 145.858 177.591 145.404 177.713C144.949 177.835 144.473 177.852 144.011 177.764Z" fill="#121212" stroke="#121212" stroke-width="0.17" stroke-miterlimit="10"/>
<path d="M145.973 177.765L131.81 174.641L126.362 142.819L140.598 145.943L145.973 177.765Z" fill="#C8E8E7" stroke="#121212" stroke-width="0.17" stroke-linejoin="bevel"/>
<path d="M127.089 158.076C127.089 158.076 127.089 151.247 127.089 147.033C127.089 142.819 124.91 143.545 124.91 143.545L123.385 163.888L133.408 184.304C132.357 198.824 132.551 213.408 133.989 227.896C135.369 245.26 135.732 251.799 140.308 248.457C144.884 245.115 176.624 203.993 176.624 203.993L195.581 167.666C194.634 167.234 193.606 167.011 192.566 167.011C191.526 167.011 190.498 167.234 189.552 167.666C179.927 172.871 171.932 180.641 166.455 190.116L147.208 216.707L140.671 183.141C140.739 178.101 139.158 173.177 136.168 169.119C131.52 164.542 144.811 154.589 144.811 154.589C145.407 153.745 145.666 152.708 145.537 151.682C145.537 151.682 139.073 156.332 138.274 156.768C136.371 158.593 134.667 160.614 133.19 162.798" fill="white"/>
<path d="M127.089 158.076C127.089 158.076 127.089 151.247 127.089 147.033C127.089 142.819 124.91 143.545 124.91 143.545L123.385 163.888L133.408 184.304C132.357 198.824 132.551 213.408 133.989 227.896C135.369 245.26 135.732 251.799 140.308 248.457C144.884 245.115 176.624 203.993 176.624 203.993L195.581 167.666C194.634 167.234 193.606 167.011 192.566 167.011C191.526 167.011 190.498 167.234 189.552 167.666C179.927 172.871 171.932 180.641 166.455 190.116L147.208 216.707L140.671 183.141C140.739 178.101 139.158 173.177 136.168 169.119C131.52 164.542 144.811 154.589 144.811 154.589C145.407 153.745 145.666 152.708 145.537 151.682C145.537 151.682 139.073 156.332 138.274 156.768C136.371 158.593 134.667 160.614 133.19 162.798" stroke="#121212" stroke-width="0.75" stroke-miterlimit="10"/>
<path d="M147.207 216.707L148.66 225.062" stroke="#121212" stroke-miterlimit="10"/>
<path d="M126.145 162.217L128.106 151.247L132.827 143.255C133.371 144.931 133.371 146.737 132.827 148.413C132.252 149.546 131.743 150.71 131.301 151.901L130.43 161.854" fill="white"/>
<path d="M126.145 162.217L128.106 151.247L132.827 143.255C133.371 144.931 133.371 146.737 132.827 148.413C132.252 149.546 131.743 150.71 131.301 151.901L130.43 161.854" stroke="#121212" stroke-width="0.75" stroke-miterlimit="10"/>
<path d="M128.977 162.217L133.407 152.046L139.799 145.289C139.917 147.048 139.485 148.8 138.564 150.302C137.712 151.258 136.935 152.278 136.24 153.354L133.189 162.799" fill="white"/>
<path d="M128.977 162.217L133.407 152.046L139.799 145.289C139.917 147.048 139.485 148.8 138.564 150.302C137.712 151.258 136.935 152.278 136.24 153.354L133.189 162.799" stroke="#121212" stroke-width="0.75" stroke-miterlimit="10"/>
<path d="M167.398 215.836L195.579 167.521L179.092 209.37L167.398 215.836Z" fill="#121212" stroke="#121212" stroke-width="0.17" stroke-miterlimit="10"/>
</svg>
