<svg width="329" height="49" viewBox="0 0 329 49" fill="none" xmlns="http://www.w3.org/2000/svg">
<path fill-rule="evenodd" clip-rule="evenodd" d="M31.3219 24.9287C31.3483 22.8783 32.4232 20.9844 34.1701 19.9105C33.063 18.3295 31.2753 17.363 29.3462 17.3027C27.3167 17.0896 25.3491 18.5171 24.3149 18.5171C23.2606 18.5171 21.6683 17.3238 19.9536 17.3591C17.6975 17.432 15.6451 18.6836 14.5475 20.656C12.21 24.703 13.9536 30.6507 16.1927 33.922C17.3129 35.5238 18.6222 37.3131 20.3354 37.2497C22.0118 37.1801 22.6379 36.1807 24.6615 36.1807C26.6663 36.1807 27.2538 37.2497 29.0017 37.2093C30.8006 37.1801 31.934 35.6004 33.0149 33.9834C33.8198 32.842 34.4392 31.5805 34.8501 30.2457C32.7136 29.342 31.3244 27.2485 31.3219 24.9287Z" fill="white"/>
<path fill-rule="evenodd" clip-rule="evenodd" d="M28.0215 15.1512C29.0024 13.9738 29.4856 12.4604 29.3686 10.9324C27.8701 11.0898 26.4859 11.8059 25.4918 12.9382C24.5102 14.0554 24.0129 15.5169 24.1095 17.0009C25.6281 17.0165 27.0699 16.3348 28.0215 15.1512Z" fill="white"/>
<path d="M50.2266 16.7772V10.751H51.967C52.4456 10.751 52.8481 10.8199 53.1744 10.9577C53.5007 11.0882 53.7654 11.284 53.9684 11.5451C54.1787 11.7989 54.3274 12.1107 54.4144 12.4806C54.5087 12.8432 54.5558 13.2565 54.5558 13.7206C54.5558 14.1992 54.5051 14.609 54.4035 14.9498C54.3093 15.2834 54.186 15.5626 54.0337 15.7874C53.8814 16.0122 53.7074 16.1898 53.5116 16.3204C53.323 16.4509 53.1309 16.5524 52.9351 16.6249C52.7393 16.6902 52.5544 16.7337 52.3803 16.7555C52.2063 16.77 52.0612 16.7772 51.9452 16.7772H50.2266ZM49.1932 9.88082V17.6474H51.8582C52.5036 17.6474 53.062 17.5568 53.5333 17.3755C54.0047 17.1942 54.3927 16.9331 54.6972 16.5923C55.0018 16.2442 55.2266 15.82 55.3717 15.3196C55.5167 14.812 55.5892 14.2319 55.5892 13.5792C55.5892 12.3319 55.2665 11.4037 54.6211 10.7945C53.9757 10.1854 53.0547 9.88082 51.8582 9.88082H49.1932ZM57.5918 14.841C57.5918 14.5002 57.6353 14.1992 57.7223 13.9382C57.8166 13.6699 57.9435 13.4451 58.103 13.2638C58.2626 13.0825 58.4475 12.9447 58.6578 12.8504C58.8753 12.7561 59.1038 12.709 59.3431 12.709C59.5824 12.709 59.8072 12.7561 60.0175 12.8504C60.235 12.9447 60.4236 13.0825 60.5831 13.2638C60.7427 13.4451 60.8659 13.6699 60.953 13.9382C61.0472 14.1992 61.0944 14.5002 61.0944 14.841C61.0944 15.1818 61.0472 15.4864 60.953 15.7547C60.8659 16.0158 60.7427 16.237 60.5831 16.4183C60.4236 16.5923 60.235 16.7265 60.0175 16.8207C59.8072 16.915 59.5824 16.9621 59.3431 16.9621C59.1038 16.9621 58.8753 16.915 58.6578 16.8207C58.4475 16.7265 58.2626 16.5923 58.103 16.4183C57.9435 16.237 57.8166 16.0158 57.7223 15.7547C57.6353 15.4864 57.5918 15.1818 57.5918 14.841ZM56.6128 14.841C56.6128 15.2544 56.6708 15.6387 56.7868 15.994C56.9029 16.3494 57.0769 16.6612 57.309 16.9295C57.541 17.1906 57.8275 17.3972 58.1683 17.5495C58.5091 17.6946 58.9007 17.7671 59.3431 17.7671C59.7927 17.7671 60.1843 17.6946 60.5179 17.5495C60.8587 17.3972 61.1451 17.1906 61.3772 16.9295C61.6093 16.6612 61.7833 16.3494 61.8993 15.994C62.0153 15.6387 62.0734 15.2544 62.0734 14.841C62.0734 14.4277 62.0153 14.0433 61.8993 13.688C61.7833 13.3254 61.6093 13.0136 61.3772 12.7525C61.1451 12.4842 60.8587 12.2739 60.5179 12.1216C60.1843 11.9693 59.7927 11.8932 59.3431 11.8932C58.9007 11.8932 58.5091 11.9693 58.1683 12.1216C57.8275 12.2739 57.541 12.4842 57.309 12.7525C57.0769 13.0136 56.9029 13.3254 56.7868 13.688C56.6708 14.0433 56.6128 14.4277 56.6128 14.841ZM68.9504 17.6474L70.7452 12.0237H69.788L68.5262 16.6249H68.5044L67.3296 12.0237H66.318L65.1867 16.6249H65.165L63.8923 12.0237H62.8698L64.6755 17.6474H65.6762L66.8075 13.1767H66.8293L67.9714 17.6474H68.9504ZM71.8418 12.0237V17.6474H72.7664V14.4712C72.7664 14.2174 72.799 13.9853 72.8643 13.775C72.9368 13.5575 73.0419 13.3689 73.1797 13.2094C73.3175 13.0498 73.4879 12.9266 73.691 12.8395C73.9013 12.7525 74.1478 12.709 74.4307 12.709C74.786 12.709 75.0652 12.8105 75.2682 13.0136C75.4713 13.2166 75.5728 13.4922 75.5728 13.8403V17.6474H76.4974V13.949C76.4974 13.6445 76.4648 13.3689 76.3995 13.1223C76.3415 12.8685 76.2363 12.651 76.084 12.4697C75.9318 12.2884 75.7323 12.147 75.4858 12.0455C75.2392 11.9439 74.931 11.8932 74.5612 11.8932C73.7272 11.8932 73.1181 12.234 72.7337 12.9157H72.712V12.0237H71.8418ZM78.158 9.88082V17.6474H79.0826V9.88082H78.158ZM81.4069 14.841C81.4069 14.5002 81.4504 14.1992 81.5375 13.9382C81.6317 13.6699 81.7586 13.4451 81.9182 13.2638C82.0777 13.0825 82.2626 12.9447 82.4729 12.8504C82.6905 12.7561 82.9189 12.709 83.1582 12.709C83.3975 12.709 83.6223 12.7561 83.8326 12.8504C84.0502 12.9447 84.2387 13.0825 84.3983 13.2638C84.5578 13.4451 84.6811 13.6699 84.7681 13.9382C84.8624 14.1992 84.9095 14.5002 84.9095 14.841C84.9095 15.1818 84.8624 15.4864 84.7681 15.7547C84.6811 16.0158 84.5578 16.237 84.3983 16.4183C84.2387 16.5923 84.0502 16.7265 83.8326 16.8207C83.6223 16.915 83.3975 16.9621 83.1582 16.9621C82.9189 16.9621 82.6905 16.915 82.4729 16.8207C82.2626 16.7265 82.0777 16.5923 81.9182 16.4183C81.7586 16.237 81.6317 16.0158 81.5375 15.7547C81.4504 15.4864 81.4069 15.1818 81.4069 14.841ZM80.4279 14.841C80.4279 15.2544 80.486 15.6387 80.602 15.994C80.718 16.3494 80.8921 16.6612 81.1241 16.9295C81.3562 17.1906 81.6426 17.3972 81.9834 17.5495C82.3243 17.6946 82.7159 17.7671 83.1582 17.7671C83.6078 17.7671 83.9994 17.6946 84.333 17.5495C84.6738 17.3972 84.9603 17.1906 85.1923 16.9295C85.4244 16.6612 85.5984 16.3494 85.7145 15.994C85.8305 15.6387 85.8885 15.2544 85.8885 14.841C85.8885 14.4277 85.8305 14.0433 85.7145 13.688C85.5984 13.3254 85.4244 13.0136 85.1923 12.7525C84.9603 12.4842 84.6738 12.2739 84.333 12.1216C83.9994 11.9693 83.6078 11.8932 83.1582 11.8932C82.7159 11.8932 82.3243 11.9693 81.9834 12.1216C81.6426 12.2739 81.3562 12.4842 81.1241 12.7525C80.8921 13.0136 80.718 13.3254 80.602 13.688C80.486 14.0433 80.4279 14.4277 80.4279 14.841ZM92.1781 17.6257C92.0186 17.7199 91.7974 17.7671 91.5146 17.7671C91.2753 17.7671 91.0831 17.7018 90.9381 17.5713C90.8003 17.4335 90.7314 17.2123 90.7314 16.9078C90.4776 17.2123 90.1803 17.4335 89.8394 17.5713C89.5059 17.7018 89.1433 17.7671 88.7517 17.7671C88.4979 17.7671 88.2549 17.7381 88.0229 17.6801C87.7981 17.622 87.6023 17.5314 87.4355 17.4081C87.2687 17.2848 87.1346 17.1253 87.033 16.9295C86.9388 16.7265 86.8916 16.4835 86.8916 16.2007C86.8916 15.8816 86.946 15.6206 87.0548 15.4175C87.1636 15.2145 87.305 15.0513 87.479 14.928C87.6603 14.7975 87.8634 14.6996 88.0882 14.6343C88.3202 14.5691 88.5559 14.5147 88.7952 14.4712C89.049 14.4204 89.2883 14.3842 89.5131 14.3624C89.7452 14.3334 89.9482 14.2971 90.1223 14.2536C90.2963 14.2029 90.4341 14.134 90.5356 14.0469C90.6371 13.9527 90.6879 13.8185 90.6879 13.6445C90.6879 13.4414 90.648 13.2783 90.5682 13.155C90.4957 13.0317 90.3978 12.9374 90.2746 12.8722C90.1585 12.8069 90.0244 12.7634 89.8721 12.7416C89.727 12.7199 89.582 12.709 89.437 12.709C89.0454 12.709 88.7191 12.7851 88.458 12.9374C88.1969 13.0825 88.0555 13.3617 88.0338 13.775H87.1092C87.1237 13.4269 87.1962 13.1332 87.3267 12.8939C87.4573 12.6546 87.6313 12.4624 87.8488 12.3174C88.0664 12.1651 88.313 12.0563 88.5885 11.9911C88.8713 11.9258 89.1723 11.8932 89.4914 11.8932C89.7452 11.8932 89.9954 11.9113 90.2419 11.9476C90.4957 11.9838 90.7242 12.06 90.9272 12.176C91.1303 12.2848 91.2934 12.4407 91.4167 12.6437C91.54 12.8468 91.6016 13.1115 91.6016 13.4378V16.3312C91.6016 16.5488 91.6125 16.7083 91.6343 16.8099C91.6633 16.9114 91.7503 16.9621 91.8953 16.9621C91.9751 16.9621 92.0694 16.944 92.1781 16.9078V17.6257ZM90.677 14.7431C90.561 14.8301 90.4087 14.8954 90.2202 14.9389C90.0316 14.9752 89.8322 15.0078 89.6219 15.0368C89.4188 15.0586 89.2122 15.0876 89.0019 15.1238C88.7916 15.1528 88.603 15.2036 88.4362 15.2761C88.2694 15.3486 88.1317 15.4538 88.0229 15.5916C87.9214 15.7221 87.8706 15.9034 87.8706 16.1354C87.8706 16.2877 87.8996 16.4183 87.9576 16.527C88.0229 16.6286 88.1027 16.712 88.1969 16.7772C88.2985 16.8425 88.4145 16.8896 88.545 16.9186C88.6755 16.9476 88.8133 16.9621 88.9584 16.9621C89.2629 16.9621 89.524 16.9223 89.7416 16.8425C89.9591 16.7555 90.1368 16.6503 90.2746 16.527C90.4123 16.3965 90.5139 16.2587 90.5791 16.1137C90.6444 15.9614 90.677 15.82 90.677 15.6895V14.7431ZM93.9306 14.8845C93.9306 14.609 93.9596 14.3406 94.0176 14.0796C94.0757 13.8185 94.1699 13.5865 94.3005 13.3834C94.431 13.1804 94.605 13.0172 94.8226 12.8939C95.0401 12.7706 95.3048 12.709 95.6166 12.709C95.9357 12.709 96.2077 12.7706 96.4325 12.8939C96.6573 13.0099 96.8386 13.1659 96.9763 13.3617C97.1214 13.5575 97.2265 13.7859 97.2918 14.0469C97.3571 14.3008 97.3897 14.5654 97.3897 14.841C97.3897 15.1021 97.3571 15.3595 97.2918 15.6133C97.2338 15.8671 97.1359 16.0956 96.9981 16.2986C96.8603 16.4944 96.6826 16.6539 96.4651 16.7772C96.2475 16.9005 95.9829 16.9621 95.671 16.9621C95.3737 16.9621 95.1126 16.9041 94.8878 16.7881C94.6703 16.6721 94.489 16.5162 94.344 16.3204C94.2062 16.1246 94.101 15.9034 94.0285 15.6568C93.9632 15.403 93.9306 15.1456 93.9306 14.8845ZM98.2817 17.6474V9.88082H97.3571V12.7743H97.3353C97.2338 12.6075 97.1069 12.4697 96.9546 12.3609C96.8096 12.2449 96.6536 12.1542 96.4869 12.089C96.3201 12.0165 96.1533 11.9657 95.9865 11.9367C95.8197 11.9077 95.6638 11.8932 95.5187 11.8932C95.0909 11.8932 94.7138 11.9729 94.3875 12.1325C94.0684 12.2848 93.8001 12.4951 93.5825 12.7634C93.3722 13.0245 93.2127 13.3326 93.1039 13.688C93.0024 14.0433 92.9516 14.4204 92.9516 14.8193C92.9516 15.2181 93.006 15.5952 93.1148 15.9505C93.2236 16.3059 93.3831 16.6177 93.5934 16.886C93.811 17.1543 94.0793 17.3682 94.3984 17.5278C94.7247 17.6873 95.1054 17.7671 95.5405 17.7671C95.9321 17.7671 96.2911 17.6982 96.6174 17.5604C96.9437 17.4226 97.183 17.1978 97.3353 16.886H97.3571V17.6474H98.2817ZM103.841 14.841C103.841 14.5002 103.885 14.1992 103.972 13.9382C104.066 13.6699 104.193 13.4451 104.352 13.2638C104.512 13.0825 104.697 12.9447 104.907 12.8504C105.125 12.7561 105.353 12.709 105.592 12.709C105.832 12.709 106.057 12.7561 106.267 12.8504C106.484 12.9447 106.673 13.0825 106.832 13.2638C106.992 13.4451 107.115 13.6699 107.202 13.9382C107.297 14.1992 107.344 14.5002 107.344 14.841C107.344 15.1818 107.297 15.4864 107.202 15.7547C107.115 16.0158 106.992 16.237 106.832 16.4183C106.673 16.5923 106.484 16.7265 106.267 16.8207C106.057 16.915 105.832 16.9621 105.592 16.9621C105.353 16.9621 105.125 16.915 104.907 16.8207C104.697 16.7265 104.512 16.5923 104.352 16.4183C104.193 16.237 104.066 16.0158 103.972 15.7547C103.885 15.4864 103.841 15.1818 103.841 14.841ZM102.862 14.841C102.862 15.2544 102.92 15.6387 103.036 15.994C103.152 16.3494 103.326 16.6612 103.558 16.9295C103.79 17.1906 104.077 17.3972 104.418 17.5495C104.758 17.6946 105.15 17.7671 105.592 17.7671C106.042 17.7671 106.434 17.6946 106.767 17.5495C107.108 17.3972 107.394 17.1906 107.627 16.9295C107.859 16.6612 108.033 16.3494 108.149 15.994C108.265 15.6387 108.323 15.2544 108.323 14.841C108.323 14.4277 108.265 14.0433 108.149 13.688C108.033 13.3254 107.859 13.0136 107.627 12.7525C107.394 12.4842 107.108 12.2739 106.767 12.1216C106.434 11.9693 106.042 11.8932 105.592 11.8932C105.15 11.8932 104.758 11.9693 104.418 12.1216C104.077 12.2739 103.79 12.4842 103.558 12.7525C103.326 13.0136 103.152 13.3254 103.036 13.688C102.92 14.0433 102.862 14.4277 102.862 14.841ZM109.63 12.0237V17.6474H110.555V14.4712C110.555 14.2174 110.588 13.9853 110.653 13.775C110.725 13.5575 110.831 13.3689 110.968 13.2094C111.106 13.0498 111.277 12.9266 111.48 12.8395C111.69 12.7525 111.936 12.709 112.219 12.709C112.575 12.709 112.854 12.8105 113.057 13.0136C113.26 13.2166 113.361 13.4922 113.361 13.8403V17.6474H114.286V13.949C114.286 13.6445 114.253 13.3689 114.188 13.1223C114.13 12.8685 114.025 12.651 113.873 12.4697C113.72 12.2884 113.521 12.147 113.274 12.0455C113.028 11.9439 112.72 11.8932 112.35 11.8932C111.516 11.8932 110.907 12.234 110.522 12.9157H110.501V12.0237H109.63ZM120.421 12.0237V10.3377H119.496V12.0237H118.539V12.8395H119.496V16.4183C119.496 16.6793 119.522 16.8896 119.572 17.0492C119.623 17.2087 119.699 17.332 119.801 17.419C119.91 17.506 120.047 17.5677 120.214 17.6039C120.388 17.6329 120.595 17.6474 120.834 17.6474H121.541V16.8316H121.117C120.972 16.8316 120.852 16.828 120.758 16.8207C120.671 16.8062 120.602 16.7808 120.551 16.7446C120.501 16.7083 120.464 16.6576 120.443 16.5923C120.428 16.527 120.421 16.44 120.421 16.3312V12.8395H121.541V12.0237H120.421ZM122.786 9.88082V17.6474H123.711V14.4712C123.711 14.2174 123.743 13.9853 123.808 13.775C123.881 13.5575 123.986 13.3689 124.124 13.2094C124.262 13.0498 124.432 12.9266 124.635 12.8395C124.845 12.7525 125.092 12.709 125.375 12.709C125.73 12.709 126.009 12.8105 126.212 13.0136C126.415 13.2166 126.517 13.4922 126.517 13.8403V17.6474H127.442V13.949C127.442 13.6445 127.409 13.3689 127.344 13.1223C127.286 12.8685 127.18 12.651 127.028 12.4697C126.876 12.2884 126.676 12.147 126.43 12.0455C126.183 11.9439 125.875 11.8932 125.505 11.8932C125.339 11.8932 125.164 11.9113 124.983 11.9476C124.809 11.9838 124.639 12.0418 124.472 12.1216C124.312 12.1941 124.167 12.292 124.037 12.4153C123.906 12.5313 123.805 12.6764 123.732 12.8504H123.711V9.88082H122.786ZM132.953 14.2971H129.722C129.737 14.0796 129.784 13.8765 129.864 13.688C129.943 13.4922 130.052 13.3218 130.19 13.1767C130.328 13.0317 130.491 12.9193 130.679 12.8395C130.875 12.7525 131.093 12.709 131.332 12.709C131.564 12.709 131.774 12.7525 131.963 12.8395C132.159 12.9193 132.326 13.0317 132.463 13.1767C132.608 13.3145 132.721 13.4813 132.801 13.6771C132.888 13.8729 132.938 14.0796 132.953 14.2971ZM133.845 15.8635H132.931C132.851 16.2333 132.684 16.5089 132.431 16.6902C132.184 16.8715 131.865 16.9621 131.473 16.9621C131.169 16.9621 130.904 16.9114 130.679 16.8099C130.455 16.7083 130.27 16.5742 130.125 16.4074C129.98 16.2333 129.874 16.0375 129.809 15.82C129.744 15.5952 129.715 15.3595 129.722 15.1129H133.932C133.946 14.7721 133.914 14.4132 133.834 14.0361C133.761 13.659 133.624 13.3109 133.421 12.9918C133.225 12.6727 132.96 12.4117 132.626 12.2086C132.3 11.9983 131.887 11.8932 131.386 11.8932C131.002 11.8932 130.647 11.9657 130.32 12.1107C130.001 12.2558 129.722 12.4588 129.483 12.7199C129.251 12.9809 129.07 13.2891 128.939 13.6445C128.808 13.9998 128.743 14.3914 128.743 14.8193C128.758 15.2471 128.819 15.6423 128.928 16.0049C129.044 16.3675 129.215 16.6793 129.439 16.9404C129.664 17.2014 129.94 17.4045 130.266 17.5495C130.6 17.6946 130.991 17.7671 131.441 17.7671C132.079 17.7671 132.608 17.6075 133.029 17.2885C133.45 16.9694 133.721 16.4944 133.845 15.8635Z" fill="white"/>
<path d="M68.9713 26.6163C71.7485 26.6163 73.5791 28.8117 73.5791 32.2027C73.5791 35.6031 71.7591 37.7878 69.0126 37.7878C67.5929 37.8621 66.2557 37.1185 65.5697 35.8733H65.5177V41.2933H63.2716V26.7308H65.4457V28.5508H65.487C66.2035 27.3135 67.5422 26.5702 68.9713 26.6163ZM81.015 26.6163C83.7922 26.6163 85.6229 28.8117 85.6229 32.2027C85.6229 35.6031 83.8029 37.7878 81.0563 37.7878C79.6366 37.8621 78.2994 37.1185 77.6134 35.8733H77.5614V41.2933H75.3153V26.7308H77.4894V28.5508H77.5307C78.2472 27.3135 79.5859 26.5702 81.015 26.6163ZM97.1402 22.4144C100.312 22.4144 102.486 24.1931 102.559 26.7827H100.292C100.156 25.2849 98.9177 24.3808 97.1083 24.3808C95.2989 24.3808 94.0608 25.2955 94.0608 26.6269C94.0608 27.688 94.8516 28.3123 96.7861 28.7903L98.4397 29.1963C101.519 29.9246 102.799 31.1616 102.799 33.3569C102.799 36.1648 100.562 37.9234 97.0044 37.9234C93.676 37.9234 91.4287 36.2061 91.2835 33.4914L93.5828 33.4915C93.7492 34.9799 95.1951 35.9571 97.1709 35.9571C99.0641 35.9571 100.426 34.9798 100.426 33.6378C100.426 32.4729 99.6046 31.7753 97.6595 31.2973L95.7144 30.8287C92.9584 30.163 91.679 28.8742 91.679 26.7827C91.679 24.1931 93.9357 22.4144 97.1402 22.4144ZM116.122 26.5963C119.294 26.5963 121.313 28.7597 121.313 32.2027C121.313 35.655 119.305 37.8091 116.122 37.8091C112.94 37.8091 110.932 35.655 110.932 32.2027C110.932 28.7597 112.96 26.5963 116.122 26.5963ZM134.31 26.5962C137.338 26.5962 139.241 28.6759 139.241 31.9937V32.7633H131.513V32.899C131.441 33.7137 131.722 34.5201 132.285 35.1131C132.848 35.7061 133.639 36.0286 134.456 35.9985C135.546 36.1006 136.574 35.4747 136.983 34.4594L139.116 34.4594C138.814 36.4458 136.88 37.809 134.404 37.809C131.221 37.809 129.245 35.6762 129.245 32.2546C129.245 28.8223 131.232 26.5962 134.31 26.5962ZM107.646 24.1412V26.7308H109.727V28.5095H107.646V34.542C107.646 35.4791 108.063 35.9159 108.977 35.9159C109.224 35.9115 109.471 35.8942 109.716 35.8639V37.632C109.305 37.7088 108.887 37.7436 108.469 37.7358C106.253 37.7358 105.389 36.9037 105.389 34.7816V28.5095H103.798V26.7308H105.389V24.1412H107.646ZM56.4578 22.6647L61.8765 37.6733H59.4121L58.0394 33.6166H52.3185L50.9446 37.6733H48.5215L53.9402 22.6647H56.4578ZM127.991 26.6163C128.25 26.6154 128.508 26.6435 128.76 26.7001V28.801C128.434 28.7012 128.093 28.6553 127.751 28.6653C127.091 28.6385 126.452 28.9017 126.002 29.3857C125.552 29.8697 125.336 30.5262 125.411 31.1829V37.6733H123.165V26.7308H125.307V28.5933H125.359C125.657 27.3943 126.756 26.5691 127.991 26.6163ZM116.122 28.447C114.302 28.447 113.221 29.8515 113.221 32.2027C113.221 34.5739 114.302 35.9572 116.122 35.9572C117.942 35.9572 119.024 34.5739 119.024 32.2027C119.024 29.8409 117.942 28.447 116.122 28.447ZM68.3788 28.5308C66.6626 28.5308 65.5083 30.0179 65.5083 32.2027C65.5083 34.4074 66.6626 35.884 68.3788 35.884C70.1256 35.884 71.2705 34.4381 71.2705 32.2027C71.2705 29.9872 70.1256 28.5308 68.3788 28.5308ZM80.4225 28.5308C78.7063 28.5308 77.552 30.0179 77.552 32.2027C77.552 34.4074 78.7063 35.884 80.4225 35.884C82.1693 35.884 83.3142 34.4381 83.3142 32.2027C83.3142 29.9872 82.1693 28.5308 80.4225 28.5308ZM55.2103 25.161H55.1477L52.911 31.7447H57.4457L55.2103 25.161ZM134.31 28.4163C133.571 28.4118 132.861 28.7027 132.338 29.2243C131.815 29.7458 131.521 30.4547 131.523 31.1935H136.994C137.035 30.4615 136.768 29.7456 136.259 29.2184C135.749 28.6913 135.043 28.4005 134.31 28.4163Z" fill="white"/>
<rect x="0.604311" y="0.604311" width="155.912" height="47.1363" rx="6.64742" stroke="#A6A6A6" stroke-width="1.20862"/>
<path fill-rule="evenodd" clip-rule="evenodd" d="M182.466 9.20247C182.114 9.57579 181.906 10.1539 181.906 10.9042V37.6884C181.906 38.4387 182.114 39.0169 182.466 39.3902L182.556 39.4774L197.56 24.4733V24.1194L182.556 9.1152L182.466 9.20247Z" fill="#00D7FE"/>
<mask id="mask0_441_1058" style="mask-type:alpha" maskUnits="userSpaceOnUse" x="197" y="19" width="13" height="11">
<path d="M202.562 29.4769L197.562 24.4735V24.1195L202.565 19.1173L208.603 22.5475C210.295 23.5099 210.295 25.0831 208.603 26.0443L202.677 29.4114L202.562 29.4769Z" fill="white"/>
</mask>
<g mask="url(#mask0_441_1058)">
<path fill-rule="evenodd" clip-rule="evenodd" d="M202.562 29.4769L197.562 24.4735V24.1195L202.565 19.1173L208.603 22.5475C210.295 23.5099 210.295 25.0831 208.603 26.0443L202.677 29.4114L202.562 29.4769Z" fill="url(#paint0_linear_441_1058)"/>
</g>
<mask id="mask1_441_1058" style="mask-type:alpha" maskUnits="userSpaceOnUse" x="182" y="24" width="21" height="16">
<path d="M202.676 29.4115L197.561 24.2965L182.467 39.3904C183.026 39.9807 183.947 40.0534 184.984 39.4643L202.676 29.4115Z" fill="white"/>
</mask>
<g mask="url(#mask1_441_1058)">
<path fill-rule="evenodd" clip-rule="evenodd" d="M202.676 29.4115L197.561 24.2965L182.467 39.3904C183.026 39.9807 183.947 40.0534 184.984 39.4643L202.676 29.4115Z" fill="url(#paint1_linear_441_1058)"/>
</g>
<mask id="mask2_441_1058" style="mask-type:alpha" maskUnits="userSpaceOnUse" x="182" y="8" width="21" height="17">
<path d="M202.676 19.1814L184.984 9.12858C183.947 8.53951 183.026 8.61224 182.467 9.20251L197.561 24.2964L202.676 19.1814Z" fill="white"/>
</mask>
<g mask="url(#mask2_441_1058)">
<path fill-rule="evenodd" clip-rule="evenodd" d="M202.676 19.1814L184.984 9.12858C183.947 8.53951 183.026 8.61224 182.467 9.20251L197.561 24.2964L202.676 19.1814Z" fill="url(#paint2_linear_441_1058)"/>
</g>
<path fill-rule="evenodd" clip-rule="evenodd" d="M296.958 37.5721H299.219V22.42H296.958V37.5721ZM317.329 27.878L314.736 34.4474H314.659L311.968 27.878H309.532L313.567 37.0594L311.266 42.167H313.626L319.844 27.878H317.329ZM304.503 35.8509C303.761 35.8509 302.728 35.4813 302.728 34.5649C302.728 33.3953 304.016 32.9468 305.126 32.9468C306.121 32.9468 306.588 33.1614 307.192 33.4535C307.017 34.8571 305.808 35.8509 304.503 35.8509ZM304.776 27.5471C303.138 27.5471 301.442 28.2683 300.741 29.867L302.748 30.7045C303.177 29.867 303.976 29.5931 304.814 29.5931C305.984 29.5931 307.173 30.2948 307.192 31.5433V31.6984C306.783 31.4645 305.906 31.1142 304.834 31.1142C302.67 31.1142 300.467 32.3032 300.467 34.5249C300.467 36.5527 302.241 37.8593 304.229 37.8593C305.75 37.8593 306.588 37.1769 307.115 36.377H307.192V37.5466H309.375V31.7384C309.375 29.0476 307.368 27.5471 304.776 27.5471ZM290.798 29.7227H287.581V24.529H290.798C292.489 24.529 293.449 25.929 293.449 27.1253C293.449 28.2998 292.489 29.7227 290.798 29.7227ZM290.74 22.42H285.321V37.5721H287.581V31.8317H290.74C293.246 31.8317 295.71 30.0161 295.71 27.1253C295.71 24.2345 293.246 22.42 290.74 22.42ZM261.188 35.8534C259.626 35.8534 258.318 34.5456 258.318 32.7493C258.318 30.9336 259.626 29.6052 261.188 29.6052C262.731 29.6052 263.941 30.9336 263.941 32.7493C263.941 34.5456 262.731 35.8534 261.188 35.8534ZM263.785 28.7264H263.707C263.199 28.1216 262.224 27.575 260.993 27.575C258.415 27.575 256.053 29.8391 256.053 32.7493C256.053 35.6388 258.415 37.8848 260.993 37.8848C262.224 37.8848 263.199 37.3381 263.707 36.7127H263.785V37.4545C263.785 39.4278 262.731 40.4822 261.032 40.4822C259.645 40.4822 258.786 39.4859 258.435 38.646L256.463 39.4665C257.029 40.8337 258.533 42.5125 261.032 42.5125C263.688 42.5125 265.934 40.9501 265.934 37.143V27.8865H263.785V28.7264ZM267.496 37.5721H269.761V22.4188H267.496V37.5721ZM273.099 32.5735C273.041 30.5821 274.642 29.5664 275.794 29.5664C276.693 29.5664 277.454 30.0148 277.708 30.6597L273.099 32.5735ZM280.129 30.8548C279.7 29.7033 278.391 27.575 275.716 27.575C273.061 27.575 270.855 29.6634 270.855 32.7299C270.855 35.6194 273.041 37.8848 275.97 37.8848C278.333 37.8848 279.7 36.44 280.266 35.6L278.509 34.428C277.923 35.2873 277.122 35.8534 275.97 35.8534C274.818 35.8534 273.998 35.3261 273.47 34.2922L280.363 31.4415L280.129 30.8548ZM225.213 29.1567V31.3433H230.446C230.289 32.5735 229.88 33.4717 229.255 34.0971C228.493 34.8583 227.301 35.697 225.213 35.697C221.991 35.697 219.472 33.1008 219.472 29.8791C219.472 26.6562 221.991 24.06 225.213 24.06C226.951 24.06 228.22 24.7436 229.157 25.6223L230.7 24.0794C229.391 22.8297 227.654 21.8722 225.213 21.8722C220.8 21.8722 217.09 25.466 217.09 29.8791C217.09 34.2922 220.8 37.8848 225.213 37.8848C227.595 37.8848 229.391 37.1042 230.797 35.6388C232.242 34.1941 232.692 32.1638 232.692 30.5227C232.692 30.0148 232.653 29.547 232.574 29.1567H225.213ZM238.642 35.8534C237.079 35.8534 235.731 34.5649 235.731 32.7299C235.731 30.8742 237.079 29.6052 238.642 29.6052C240.203 29.6052 241.551 30.8742 241.551 32.7299C241.551 34.5649 240.203 35.8534 238.642 35.8534ZM238.642 27.575C235.79 27.575 233.466 29.7421 233.466 32.7299C233.466 35.697 235.79 37.8848 238.642 37.8848C241.492 37.8848 243.816 35.697 243.816 32.7299C243.816 29.7421 241.492 27.575 238.642 27.575ZM249.93 35.8534C248.367 35.8534 247.019 34.5649 247.019 32.7299C247.019 30.8742 248.367 29.6052 249.93 29.6052C251.492 29.6052 252.839 30.8742 252.839 32.7299C252.839 34.5649 251.492 35.8534 249.93 35.8534ZM249.93 27.575C247.079 27.575 244.755 29.7421 244.755 32.7299C244.755 35.697 247.079 37.8848 249.93 37.8848C252.78 37.8848 255.104 35.697 255.104 32.7299C255.104 29.7421 252.78 27.575 249.93 27.575Z" fill="white"/>
<path d="M223.721 12.2536V15.0926C223.625 15.2347 223.473 15.3944 223.263 15.572C223.054 15.746 222.764 15.8987 222.395 16.0301C222.029 16.1579 221.557 16.2218 220.978 16.2218C220.506 16.2218 220.071 16.1402 219.673 15.9768C219.279 15.8099 218.936 15.5684 218.645 15.2524C218.358 14.9328 218.134 14.5458 217.974 14.0912C217.818 13.6332 217.74 13.1147 217.74 12.5359V11.934C217.74 11.3552 217.807 10.8385 217.942 10.384C218.081 9.9295 218.283 9.54422 218.549 9.22818C218.816 8.9086 219.142 8.66713 219.529 8.50379C219.916 8.33689 220.36 8.25344 220.861 8.25344C221.454 8.25344 221.949 8.35642 222.347 8.56238C222.748 8.76478 223.061 9.04531 223.285 9.40396C223.512 9.76261 223.657 10.171 223.721 10.629H222.693C222.647 10.3485 222.555 10.0928 222.416 9.86203C222.281 9.63122 222.088 9.44657 221.836 9.30808C221.584 9.16604 221.259 9.09502 220.861 9.09502C220.502 9.09502 220.192 9.16072 219.929 9.2921C219.666 9.42349 219.449 9.61169 219.279 9.85671C219.109 10.1017 218.981 10.3982 218.896 10.7462C218.814 11.0942 218.773 11.4866 218.773 11.9234V12.5359C218.773 12.9833 218.824 13.3828 218.927 13.7344C219.034 14.0859 219.185 14.386 219.38 14.6345C219.576 14.8796 219.808 15.066 220.078 15.1938C220.351 15.3217 220.653 15.3856 220.983 15.3856C221.349 15.3856 221.646 15.3554 221.873 15.295C222.1 15.2311 222.278 15.1565 222.406 15.0713C222.533 14.9825 222.631 14.8991 222.699 14.821V13.0845H220.904V12.2536H223.721ZM230.025 15.279V16.1153H225.919V15.279H230.025ZM226.127 8.35997V16.1153H225.098V8.35997H226.127ZM229.482 11.6943V12.5306H225.919V11.6943H229.482ZM229.972 8.35997V9.20155H225.919V8.35997H229.972ZM233.943 8.35997V16.1153H232.931V8.35997H233.943ZM236.436 8.35997V9.20155H230.444V8.35997H236.436ZM240.528 8.35997V16.1153H239.5V8.35997H240.528ZM244.776 8.35997V16.1153H243.764V8.35997H244.776ZM247.268 8.35997V9.20155H241.276V8.35997H247.268ZM256.228 11.9926V12.4827C256.228 13.065 256.155 13.587 256.01 14.0486C255.864 14.5103 255.655 14.9026 255.381 15.2258C255.108 15.5489 254.779 15.7957 254.396 15.9662C254.016 16.1366 253.59 16.2218 253.118 16.2218C252.66 16.2218 252.239 16.1366 251.855 15.9662C251.475 15.7957 251.145 15.5489 250.864 15.2258C250.588 14.9026 250.373 14.5103 250.22 14.0486C250.067 13.587 249.991 13.065 249.991 12.4827V11.9926C249.991 11.4103 250.066 10.89 250.215 10.432C250.367 9.97034 250.582 9.57795 250.859 9.25482C251.136 8.92813 251.465 8.67956 251.845 8.50911C252.228 8.33867 252.649 8.25344 253.107 8.25344C253.579 8.25344 254.005 8.33867 254.385 8.50911C254.769 8.67956 255.097 8.92813 255.371 9.25482C255.648 9.57795 255.859 9.97034 256.005 10.432C256.154 10.89 256.228 11.4103 256.228 11.9926ZM255.211 12.4827V11.982C255.211 11.5203 255.163 11.112 255.067 10.7569C254.975 10.4018 254.838 10.1035 254.657 9.86203C254.476 9.62057 254.254 9.43769 253.991 9.31341C253.732 9.18912 253.437 9.12698 253.107 9.12698C252.787 9.12698 252.498 9.18912 252.239 9.31341C251.983 9.43769 251.763 9.62057 251.578 9.86203C251.397 10.1035 251.257 10.4018 251.157 10.7569C251.058 11.112 251.008 11.5203 251.008 11.982V12.4827C251.008 12.9478 251.058 13.3597 251.157 13.7184C251.257 14.0735 251.399 14.3735 251.584 14.6186C251.772 14.86 251.994 15.0429 252.249 15.1672C252.509 15.2915 252.798 15.3536 253.118 15.3536C253.451 15.3536 253.748 15.2915 254.007 15.1672C254.266 15.0429 254.485 14.86 254.662 14.6186C254.843 14.3735 254.98 14.0735 255.072 13.7184C255.165 13.3597 255.211 12.9478 255.211 12.4827ZM263.406 8.35997V16.1153H262.373L258.468 10.1337V16.1153H257.44V8.35997H258.468L262.389 14.3576V8.35997H263.406Z" fill="white"/>
<rect x="171.46" y="0.606033" width="156.356" height="47.2706" rx="6.66636" stroke="#A6A6A6" stroke-width="1.21207"/>
<defs>
<linearGradient id="paint0_linear_441_1058" x1="207.502" y1="24.2969" x2="197.562" y2="24.2969" gradientUnits="userSpaceOnUse">
<stop stop-color="#FFBC00"/>
<stop offset="1" stop-color="#FFDA03"/>
</linearGradient>
<linearGradient id="paint1_linear_441_1058" x1="199.896" y1="29.1094" x2="186.922" y2="39.8029" gradientUnits="userSpaceOnUse">
<stop stop-color="#E22652"/>
<stop offset="1" stop-color="#FF3A44"/>
</linearGradient>
<linearGradient id="paint2_linear_441_1058" x1="184.752" y1="11.0196" x2="193.402" y2="18.6252" gradientUnits="userSpaceOnUse">
<stop stop-color="#0ED574"/>
<stop offset="1" stop-color="#07F076"/>
</linearGradient>
</defs>
</svg>
