<svg width="560" height="673" viewBox="0 0 560 673" fill="none" xmlns="http://www.w3.org/2000/svg">
<path d="M503.585 381.053L490.565 376.055C486.247 374.393 481.655 377.358 481.655 386.148V400.532L497.17 407.35L503.585 381.053Z" fill="white" stroke="#231F20" stroke-width="0.74" stroke-miterlimit="10"/>
<path d="M503.586 402.445L497.32 407.35V389.802C497.319 388.438 497.619 387.094 498.195 385.879C498.772 384.663 499.608 383.611 500.636 382.809L503.586 380.496V402.445Z" fill="#231F20" stroke="#231F20" stroke-width="1.03" stroke-miterlimit="10"/>
<path d="M481.655 388.634L492.84 393.27C493.332 393.474 493.868 393.553 494.398 393.5C494.928 393.447 495.437 393.263 495.88 392.964C496.323 392.666 496.686 392.262 496.937 391.789C497.188 391.316 497.319 390.788 497.32 390.252" fill="white"/>
<path d="M481.655 388.634L492.84 393.27C493.332 393.474 493.868 393.553 494.398 393.5C494.928 393.447 495.437 393.263 495.88 392.964C496.323 392.666 496.686 392.262 496.937 391.789C497.188 391.316 497.319 390.788 497.32 390.252" stroke="#231F20" stroke-width="0.74" stroke-miterlimit="10"/>
<path d="M488.313 388.634C487.77 388.634 487.24 388.801 486.789 389.114C486.338 389.427 485.987 389.873 485.779 390.393C485.572 390.914 485.518 391.487 485.624 392.04C485.731 392.592 485.992 393.1 486.376 393.498C486.76 393.896 487.249 394.167 487.781 394.276C488.313 394.385 488.865 394.328 489.365 394.111C489.866 393.895 490.294 393.529 490.595 393.06C490.895 392.591 491.055 392.04 491.054 391.476C491.054 391.102 490.983 390.732 490.845 390.387C490.707 390.042 490.505 389.728 490.251 389.464C489.996 389.2 489.694 388.991 489.361 388.848C489.029 388.706 488.672 388.633 488.313 388.634ZM488.313 393.332C487.963 393.332 487.621 393.224 487.33 393.022C487.039 392.82 486.812 392.533 486.678 392.197C486.544 391.861 486.509 391.492 486.577 391.135C486.646 390.778 486.814 390.451 487.062 390.194C487.309 389.937 487.624 389.762 487.967 389.691C488.311 389.62 488.666 389.656 488.99 389.796C489.313 389.935 489.589 390.17 489.783 390.472C489.978 390.775 490.082 391.13 490.082 391.494C490.077 391.978 489.889 392.441 489.557 392.782C489.226 393.123 488.779 393.314 488.313 393.314V393.332Z" fill="white" stroke="#231F20" stroke-width="0.74" stroke-miterlimit="10"/>
<path d="M501.101 382.938C498.556 372.769 495.149 363.4 493.738 362.958C493.738 362.958 492.882 362.902 490.958 366.322C489.631 368.672 488.443 371.711 487.4 373.858C486.502 375.703 486.562 375.47 486.146 375.703L484.005 377.432C484.174 377.186 485.145 374.196 485.639 373.046C488.654 365.99 491.416 360.226 494.263 361.044C495.397 361.37 497.085 362.933 500.064 372.16C501.662 377.081 502.79 381.597 502.802 381.646L501.101 382.938Z" fill="white" stroke="#231F20" stroke-width="0.74" stroke-miterlimit="10"/>
<path d="M320.02 316.876C380.614 233.482 382.871 128.745 325.061 82.9391C267.251 37.1331 171.265 67.6041 110.671 150.998C50.0765 234.392 47.8195 339.129 105.63 384.935C163.44 430.741 259.426 400.27 320.02 316.876Z" fill="white" stroke="#231F20" stroke-width="1.03" stroke-miterlimit="10"/>
<path d="M334.407 323.901C395.001 240.508 397.258 135.77 339.448 89.9644C281.638 44.1584 185.652 74.6295 125.058 158.023C64.4632 241.417 62.2062 346.154 120.016 391.96C177.826 437.766 273.812 407.295 334.407 323.901Z" fill="#231F20" stroke="#231F20" stroke-width="1.03" stroke-miterlimit="10"/>
<path d="M131.612 535.106L353.992 340L351.629 282.034L318.839 291.306L285.539 320.985L131.56 466.704L131.612 535.106Z" fill="#C8E9E8" stroke="#231F20" stroke-width="1.03" stroke-miterlimit="10"/>
<path d="M50.1055 419.556V490.395L131.56 535.106L131.506 466.849L50.1055 419.556Z" fill="#231F20" stroke="#231F20" stroke-width="1.03" stroke-miterlimit="10"/>
<path d="M423.698 363.408C442.73 363.408 458.159 347.196 458.159 327.197C458.159 307.198 442.73 290.986 423.698 290.986C404.665 290.986 389.236 307.198 389.236 327.197C389.236 347.196 404.665 363.408 423.698 363.408Z" fill="white" stroke="#231F20" stroke-width="1.03" stroke-miterlimit="10"/>
<path d="M423.698 357.712C416.012 357.712 408.641 354.54 403.206 348.893C397.772 343.247 394.719 335.589 394.719 327.604" fill="white"/>
<path d="M423.698 357.712C416.012 357.712 408.641 354.54 403.206 348.893C397.772 343.247 394.719 335.589 394.719 327.604" stroke="#231F20" stroke-width="1.03" stroke-miterlimit="10"/>
<path d="M224.762 493.606C224.762 493.606 225.495 492.169 226.328 491.978L224.762 493.606Z" fill="white"/>
<path d="M224.762 493.606C224.762 493.606 225.495 492.169 226.328 491.978" stroke="#231F20" stroke-width="1.03" stroke-miterlimit="10"/>
<path d="M400.984 338.594L397.395 337.54L341.881 312.956L336.761 313.007L397.02 338.996L400.984 338.594Z" fill="#231F20" stroke="#231F20" stroke-width="1.03" stroke-miterlimit="10"/>
<path d="M279.195 557.891C279.507 557.891 279.806 557.762 280.026 557.533C280.246 557.304 280.37 556.994 280.37 556.67C280.37 556.346 280.246 556.036 280.026 555.807C279.806 555.578 279.507 555.45 279.195 555.45C278.884 555.45 278.585 555.578 278.365 555.807C278.144 556.036 278.021 556.346 278.021 556.67C278.021 556.994 278.144 557.304 278.365 557.533C278.585 557.762 278.884 557.891 279.195 557.891Z" fill="#231F20"/>
<path d="M284.678 570.097C284.989 570.097 285.288 569.968 285.508 569.739C285.729 569.51 285.853 569.2 285.853 568.876C285.853 568.553 285.729 568.242 285.508 568.013C285.288 567.784 284.989 567.656 284.678 567.656C284.366 567.656 284.067 567.784 283.847 568.013C283.627 568.242 283.503 568.553 283.503 568.876C283.503 569.2 283.627 569.51 283.847 569.739C284.067 569.968 284.366 570.097 284.678 570.097Z" fill="#231F20"/>
<path d="M289.769 556.263C289.976 556.263 290.175 556.178 290.322 556.025C290.469 555.872 290.552 555.665 290.552 555.45C290.552 555.234 290.469 555.027 290.322 554.874C290.175 554.722 289.976 554.636 289.769 554.636C289.561 554.636 289.362 554.722 289.215 554.874C289.068 555.027 288.985 555.234 288.985 555.45C288.985 555.665 289.068 555.872 289.215 556.025C289.362 556.178 289.561 556.263 289.769 556.263Z" fill="#231F20"/>
<path d="M147.224 554.636C147.437 554.619 147.636 554.526 147.781 554.376C147.926 554.225 148.007 554.027 148.007 553.822C148.007 553.617 147.926 553.419 147.781 553.269C147.636 553.118 147.437 553.025 147.224 553.008C147.01 553.025 146.811 553.118 146.666 553.269C146.521 553.419 146.44 553.617 146.44 553.822C146.44 554.027 146.521 554.225 146.666 554.376C146.811 554.526 147.01 554.619 147.224 554.636Z" fill="#231F20"/>
<path d="M165.238 518.831C165.446 518.831 165.645 518.746 165.792 518.593C165.939 518.441 166.022 518.234 166.022 518.018C166.022 517.802 165.939 517.595 165.792 517.442C165.645 517.29 165.446 517.204 165.238 517.204C165.031 517.204 164.831 517.29 164.684 517.442C164.538 517.595 164.455 517.802 164.455 518.018C164.455 518.234 164.538 518.441 164.684 518.593C164.831 518.746 165.031 518.831 165.238 518.831Z" fill="#231F20"/>
<path d="M177.378 520.459C177.689 520.459 177.988 520.373 178.209 520.221C178.429 520.068 178.553 519.861 178.553 519.645C178.553 519.429 178.429 519.222 178.209 519.07C177.988 518.917 177.689 518.831 177.378 518.831C177.066 518.831 176.768 518.917 176.547 519.07C176.327 519.222 176.203 519.429 176.203 519.645C176.203 519.861 176.327 520.068 176.547 520.221C176.768 520.373 177.066 520.459 177.378 520.459Z" fill="#231F20"/>
<path d="M119.028 536.734C119.236 536.734 119.435 536.648 119.582 536.495C119.729 536.343 119.812 536.136 119.812 535.92C119.812 535.704 119.729 535.497 119.582 535.345C119.435 535.192 119.236 535.106 119.028 535.106C118.821 535.106 118.621 535.192 118.475 535.345C118.328 535.497 118.245 535.704 118.245 535.92C118.245 536.136 118.328 536.343 118.475 536.495C118.621 536.648 118.821 536.734 119.028 536.734Z" fill="#231F20"/>
<path d="M307.708 356.192C307.559 356.196 307.414 356.234 307.286 356.303C307.289 356.267 307.289 356.229 307.286 356.192C307.286 356.091 307.264 355.991 307.221 355.897C307.177 355.804 307.114 355.719 307.035 355.647C306.955 355.575 306.861 355.519 306.757 355.48C306.652 355.441 306.541 355.421 306.428 355.421C306.31 355.422 306.193 355.444 306.084 355.485C306.042 355.321 305.94 355.174 305.794 355.068C305.648 354.962 305.466 354.903 305.279 354.901C305.091 354.903 304.91 354.963 304.765 355.07C304.728 354.898 304.625 354.743 304.475 354.631C304.324 354.519 304.136 354.458 303.94 354.457C303.713 354.457 303.495 354.538 303.334 354.683C303.173 354.827 303.083 355.024 303.083 355.228C303.083 355.433 303.173 355.629 303.334 355.774C303.495 355.918 303.713 356 303.94 356C304.052 355.917 304.185 355.862 304.328 355.84C304.47 355.818 304.616 355.83 304.752 355.875C304.887 355.92 305.007 355.997 305.099 356.096C305.192 356.196 305.254 356.316 305.279 356.444C305.397 356.441 305.514 356.417 305.623 356.374C305.651 356.488 305.71 356.595 305.794 356.685C305.878 356.774 305.985 356.844 306.105 356.888C306.226 356.933 306.357 356.95 306.487 356.939C306.617 356.927 306.742 356.888 306.851 356.824C306.848 356.862 306.848 356.902 306.851 356.94C306.851 357.093 306.901 357.242 306.995 357.369C307.089 357.496 307.223 357.595 307.38 357.653C307.537 357.711 307.709 357.727 307.875 357.697C308.042 357.667 308.194 357.594 308.314 357.486C308.434 357.378 308.516 357.241 308.549 357.091C308.582 356.941 308.565 356.786 308.5 356.645C308.435 356.504 308.325 356.384 308.184 356.299C308.043 356.214 307.878 356.169 307.708 356.169V356.192Z" fill="white" stroke="#231F20" stroke-width="1.03" stroke-miterlimit="10"/>
<path d="M240.344 630.313L81.4336 546.681L311.977 353.643L463.641 438.723L240.344 630.313Z" fill="white" stroke="#231F20" stroke-width="1.03" stroke-miterlimit="10"/>
<path d="M240.426 630.546L241.856 671L463.641 475.439V439.085L240.426 630.546Z" fill="#C8E9E8" stroke="#231F20" stroke-width="1.03" stroke-miterlimit="10"/>
<path d="M439.438 559.518L354.775 515.243L477.605 413.046L558.411 458.087L439.438 559.518Z" fill="white" stroke="#231F20" stroke-width="1.03" stroke-miterlimit="10"/>
<path d="M354.775 515.577L355.009 533.891L440.146 581.489L439.385 559.813L354.775 515.577Z" fill="#231F20" stroke="#231F20" stroke-width="1.03" stroke-miterlimit="10"/>
<path d="M439.361 559.766L440.125 581.489L558.41 476.5V456.988L439.361 559.766Z" fill="#C8E9E8" stroke="#231F20" stroke-width="1.03" stroke-miterlimit="10"/>
<path d="M382.051 510.694L383.754 509.641L381.404 504.998L382.051 510.694Z" fill="#231F20" stroke="#231F20" stroke-width="1.03" stroke-miterlimit="10"/>
<path d="M394.719 494.419L399.418 490.351" stroke="#231F20" stroke-width="1.03" stroke-miterlimit="10"/>
<path d="M483.222 476.917L451.894 503.371V456.89L483.222 433.389V476.917Z" fill="white" stroke="#231F20" stroke-width="1.03" stroke-miterlimit="10"/>
<path d="M451.894 456.969L412.733 439.899V483.408L451.894 503.371V456.969Z" fill="#231F20" stroke="#231F20" stroke-width="1.03" stroke-miterlimit="10"/>
<path d="M412.733 439.458L446.185 416.301L483.223 433.201L451.816 456.174L412.733 439.458Z" fill="white" stroke="#231F20" stroke-width="1.03" stroke-miterlimit="10"/>
<path d="M426.83 421.539L435.63 414.269C435.63 414.269 436.75 406.804 433.738 403.09C430.726 399.376 426.665 385.907 442.172 383.889C457.68 381.872 452.369 402.593 451.32 405.847L454.974 402.393C454.974 402.393 460.686 408.301 461.629 420.001C462.354 428.944 461.977 431.967 461.977 431.967L445.656 444.782L426.83 421.539Z" fill="white" stroke="#231F20" stroke-width="1.03" stroke-miterlimit="10"/>
<path d="M432.674 439.2L426.83 422.284C426.83 422.284 436.435 419.596 440.643 430.672C444.85 441.747 445.627 444.781 445.627 444.781L432.674 439.2Z" fill="#231F20" stroke="#231F20" stroke-width="1.03" stroke-miterlimit="10"/>
<path d="M434.662 404.909L447.977 415.08C447.977 415.08 439.182 418.605 434.662 404.909Z" fill="#231F20" stroke="#231F20" stroke-width="1.03" stroke-miterlimit="10"/>
<path d="M435.47 412.669C437.17 414.116 439.248 415.052 441.463 415.368C443.677 415.684 445.937 415.367 447.977 414.454L434.662 404.909C434.662 404.909 435.846 409.586 435.47 412.669Z" fill="#231F20" stroke="#231F20" stroke-width="1.03" stroke-miterlimit="10"/>
<path d="M434.271 414.673C435.352 414.673 436.229 413.763 436.229 412.639C436.229 411.515 435.352 410.605 434.271 410.605C433.189 410.605 432.312 411.515 432.312 412.639C432.312 413.763 433.189 414.673 434.271 414.673Z" fill="white" stroke="#231F20" stroke-width="1.03" stroke-miterlimit="10"/>
<path d="M436.229 417.114C437.094 417.114 437.795 416.204 437.795 415.08C437.795 413.957 437.094 413.046 436.229 413.046C435.363 413.046 434.662 413.957 434.662 415.08C434.662 416.204 435.363 417.114 436.229 417.114Z" fill="white" stroke="#231F20" stroke-width="1.03" stroke-miterlimit="10"/>
<path d="M439.362 418.742C440.227 418.742 440.929 417.831 440.929 416.708C440.929 415.584 440.227 414.673 439.362 414.673C438.497 414.673 437.796 415.584 437.796 416.708C437.796 417.831 438.497 418.742 439.362 418.742Z" fill="white" stroke="#231F20" stroke-width="1.03" stroke-miterlimit="10"/>
<path d="M442.104 419.556C443.185 419.556 444.062 418.645 444.062 417.521C444.062 416.398 443.185 415.487 442.104 415.487C441.022 415.487 440.146 416.398 440.146 417.521C440.146 418.645 441.022 419.556 442.104 419.556Z" fill="white" stroke="#231F20" stroke-width="1.03" stroke-miterlimit="10"/>
<path d="M444.844 418.742C445.709 418.742 446.41 418.013 446.41 417.114C446.41 416.216 445.709 415.487 444.844 415.487C443.979 415.487 443.277 416.216 443.277 417.114C443.277 418.013 443.979 418.742 444.844 418.742Z" fill="white" stroke="#231F20" stroke-width="1.03" stroke-miterlimit="10"/>
<path d="M447.978 417.928C448.843 417.928 449.544 417.2 449.544 416.301C449.544 415.402 448.843 414.673 447.978 414.673C447.112 414.673 446.411 415.402 446.411 416.301C446.411 417.2 447.112 417.928 447.978 417.928Z" fill="white" stroke="#231F20" stroke-width="1.03" stroke-miterlimit="10"/>
<path d="M449.936 414.673C451.017 414.673 451.894 413.945 451.894 413.046C451.894 412.147 451.017 411.418 449.936 411.418C448.854 411.418 447.978 412.147 447.978 413.046C447.978 413.945 448.854 414.673 449.936 414.673Z" fill="white" stroke="#231F20" stroke-width="1.03" stroke-miterlimit="10"/>
<path d="M433.096 404.095L447.867 414.543C447.945 414.604 448.037 414.645 448.135 414.663C448.233 414.681 448.335 414.675 448.43 414.645C448.525 414.615 448.611 414.562 448.68 414.492C448.75 414.421 448.8 414.335 448.827 414.24C449.225 413.056 450.397 409.402 451.11 406.79" fill="white"/>
<path d="M433.096 404.095L447.867 414.543C447.945 414.604 448.037 414.645 448.135 414.663C448.233 414.681 448.335 414.675 448.43 414.645C448.525 414.615 448.611 414.562 448.68 414.492C448.75 414.421 448.8 414.335 448.827 414.24C449.225 413.056 450.397 409.402 451.11 406.79" stroke="#231F20" stroke-width="1.03" stroke-miterlimit="10"/>
<path d="M444.845 396.771L447.194 405.722L445.738 405.228L444.845 396.771Z" fill="#231F20" stroke="#231F20" stroke-width="1.03" stroke-miterlimit="10"/>
<path d="M445.628 396.771L448.761 406.103L447.71 406.536" stroke="#231F20" stroke-width="1.03" stroke-miterlimit="10"/>
<path d="M455.026 454.546V500.929" stroke="#231F20" stroke-width="1.03" stroke-miterlimit="10"/>
<path d="M457.376 452.919V499.302" stroke="#231F20" stroke-width="1.03" stroke-miterlimit="10"/>
<path d="M459.726 451.291V497.674" stroke="#231F20" stroke-width="1.03" stroke-miterlimit="10"/>
<path d="M462.075 448.85V495.233" stroke="#231F20" stroke-width="1.03" stroke-miterlimit="10"/>
<path d="M465.208 447.223V493.606" stroke="#231F20" stroke-width="1.03" stroke-miterlimit="10"/>
<path d="M467.558 445.595V475.704" stroke="#231F20" stroke-width="1.03" stroke-miterlimit="10"/>
<path d="M469.907 443.968V474.076" stroke="#231F20" stroke-width="1.03" stroke-miterlimit="10"/>
<path d="M472.258 441.527V471.635" stroke="#231F20" stroke-width="1.03" stroke-miterlimit="10"/>
<path d="M473.823 439.899V461.87" stroke="#231F20" stroke-width="1.03" stroke-miterlimit="10"/>
<path d="M476.956 439.085V460.243" stroke="#231F20" stroke-width="1.03" stroke-miterlimit="10"/>
<path d="M479.306 436.644V448.85" stroke="#231F20" stroke-width="1.03" stroke-miterlimit="10"/>
<path d="M481.655 435.017V447.223" stroke="#231F20" stroke-width="1.03" stroke-miterlimit="10"/>
<path d="M392.369 490.351C392.853 490.499 394.719 491.371 394.719 491.371V494.419L392.369 493.28V490.351Z" fill="#231F20" stroke="#231F20" stroke-width="1.03" stroke-miterlimit="10"/>
<path d="M400.201 492.792C400.201 492.792 413.972 499.78 417.432 505.812L405.603 501.792C402.661 500.783 400.201 495.891 400.201 492.792Z" fill="#231F20" stroke="#231F20" stroke-width="1.03" stroke-miterlimit="10"/>
<path d="M392.369 490.223C392.369 490.223 396.683 480.86 402.844 479.772L417.432 505.812L400.202 492.4C399.958 491.167 399.965 489.895 400.222 488.666C400.48 487.436 400.982 486.275 401.696 485.256L395.223 491.336L392.369 490.223Z" fill="white" stroke="#231F20" stroke-width="1.03" stroke-miterlimit="10"/>
<path d="M379.349 488.723C379.349 488.723 374.509 490.316 376.333 496.57C378.157 502.825 379.799 509.947 379.799 509.947L381.74 511.186L380.998 504.851C380.998 504.851 385.855 520.75 403.334 516.473L393.332 506.928L386.954 505.645L379.349 488.723Z" fill="white" stroke="#231F20" stroke-width="1.03" stroke-miterlimit="10"/>
<path d="M396.285 509.661C395.739 509.884 393.711 512.358 393.124 512.321C390.992 512.179 385.39 511.081 382.664 503.455C379.294 493.944 376.575 490.62 379.544 488.723L396.285 509.661Z" fill="#231F20" stroke="#231F20" stroke-width="1.03" stroke-miterlimit="10"/>
<path d="M362.804 439.899L397.068 338.394L336.772 312.956L306.216 410.935L362.804 439.899Z" fill="#FAAFA4" stroke="#231F20" stroke-width="1.03" stroke-miterlimit="10"/>
<path d="M397.186 338.996H402.551L368.073 442.34L362.607 439.85L397.186 338.996Z" fill="#C8E9E8" stroke="#231F20" stroke-width="1.03" stroke-miterlimit="10"/>
<path d="M367.582 442.34L395.627 469.043C395.844 469.241 396.016 469.487 396.129 469.762C396.243 470.037 396.296 470.334 396.284 470.633C396.272 470.931 396.196 471.223 396.061 471.488C395.926 471.752 395.735 471.982 395.503 472.161C395.236 472.356 394.916 472.456 394.59 472.448C392.628 472.411 364.957 444.464 364.957 444.464L367.582 442.34Z" fill="#C8E9E8" stroke="#231F20" stroke-width="1.03" stroke-miterlimit="10"/>
<path d="M394.625 472.448L351.643 454.678L354.306 452.496L382.301 464.72L363.247 445.075L366.009 443.968L394.712 472.317C394.718 472.332 394.72 472.348 394.719 472.364C394.717 472.381 394.712 472.396 394.703 472.409C394.694 472.423 394.682 472.433 394.669 472.44C394.655 472.447 394.64 472.45 394.625 472.448Z" fill="#231F20" stroke="#231F20" stroke-width="1.03" stroke-miterlimit="10"/>
<path d="M301.517 557.891C301.724 557.891 301.924 557.762 302.07 557.533C302.217 557.304 302.3 556.994 302.3 556.67C302.3 556.346 302.217 556.036 302.07 555.807C301.924 555.578 301.724 555.45 301.517 555.45C301.309 555.45 301.11 555.578 300.963 555.807C300.816 556.036 300.733 556.346 300.733 556.67C300.733 556.994 300.816 557.304 300.963 557.533C301.11 557.762 301.309 557.891 301.517 557.891Z" fill="#231F20"/>
<path d="M272.101 234.838C276.173 237.206 271.554 242.096 275.631 244.465C279.709 246.833 282.428 241.747 286.499 244.121C290.571 246.496 287.847 251.576 291.913 253.939C295.979 256.301 298.709 251.227 302.781 253.595C306.852 255.963 304.128 261.05 308.2 263.412C312.272 265.775 314.99 260.694 319.062 263.069C323.134 265.443 320.409 270.524 324.481 272.886C328.553 275.248 331.277 270.174 335.349 272.543C339.421 274.911 336.703 280.004 340.774 282.36C344.846 284.716 347.57 279.648 351.642 282.016C348.506 284.692 347.276 282.237 344.134 284.919C340.992 287.6 343.352 290.6 340.215 293.276C337.079 295.951 334.714 292.944 331.577 295.62C328.441 298.295 330.795 301.307 327.659 303.983C324.522 306.658 322.163 303.651 319.021 306.327C315.879 309.002 318.244 312.008 315.102 314.684C311.96 317.359 309.606 314.352 306.47 317.028C303.334 319.703 305.687 322.709 302.551 325.385C299.415 328.06 297.055 325.053 293.919 327.728C290.783 330.404 293.137 333.41 289.995 336.085C286.852 338.761 284.499 335.754 281.363 338.429C278.226 341.105 280.586 344.111 277.444 346.786C274.302 349.462 271.948 346.455 268.812 349.13C265.676 351.806 268.029 354.812 264.893 357.487C261.757 360.163 259.397 357.156 256.261 359.831C253.125 362.506 255.478 365.513 252.342 368.188C249.206 370.864 246.846 367.851 243.71 370.526C240.574 373.201 242.933 376.208 239.797 378.883C236.661 381.558 234.301 378.552 231.165 381.227C228.029 383.902 230.383 386.903 227.246 389.578C224.11 392.253 221.751 389.247 218.614 391.922C215.478 394.597 217.838 397.604 214.702 400.273C211.565 402.942 209.206 399.941 206.07 402.617C202.933 405.292 205.287 408.298 202.151 410.974C199.014 413.649 196.655 410.642 193.519 413.318C190.383 415.993 192.742 418.999 189.6 421.675C186.458 424.35 184.104 421.337 180.968 424.012C177.832 426.688 180.191 429.694 177.049 432.369C173.907 435.045 171.559 432.038 168.417 434.713C165.275 437.388 167.64 440.395 164.504 443.07C161.368 445.745 159.008 442.739 155.872 445.408C152.736 448.077 155.09 451.09 151.953 453.765C148.817 456.44 146.458 453.434 143.321 456.109C140.185 458.784 142.539 461.791 139.403 464.466C136.266 467.141 133.913 464.128 130.771 466.804L131.124 466.577C127.046 464.202 124.328 469.289 120.25 466.92C116.172 464.552 118.902 459.459 114.825 457.103C110.747 454.747 108.034 459.815 103.963 457.447C99.8909 455.078 102.615 449.991 98.5375 447.629C94.4598 445.267 91.7473 450.347 87.6755 447.979C83.6037 445.611 86.328 440.524 82.2562 438.162C78.1844 435.799 75.466 440.88 71.3942 438.511C67.3224 436.143 70.0467 431.056 65.9749 428.694C61.9031 426.332 59.1788 431.412 55.107 429.044C51.0352 426.675 54.2538 421.797 50.1879 419.429L50.1055 419.091C53.2417 416.416 55.6012 419.423 58.7433 416.747C61.8854 414.072 59.5259 411.059 62.668 408.384C65.8101 405.709 68.1638 408.716 71.3 406.04C74.4362 403.365 72.0826 400.359 75.2247 397.677C78.3668 394.996 80.7205 398.009 83.8567 395.333C86.9929 392.658 84.6393 389.651 87.7755 386.976C90.9117 384.301 93.2713 387.314 96.4075 384.639C99.5437 381.963 97.1901 378.957 100.326 376.275C103.463 373.594 105.822 376.613 108.964 373.938C112.106 371.262 109.741 368.25 112.883 365.574C116.025 362.899 118.379 365.906 121.515 363.231C124.651 360.555 122.298 357.549 125.434 354.873C128.57 352.198 130.93 355.205 134.066 352.536C137.202 349.867 134.848 346.848 137.985 344.173C141.121 341.497 143.48 344.51 146.617 341.835C149.753 339.16 147.399 336.153 150.535 333.478C153.672 330.802 156.031 333.809 159.167 331.134C162.304 328.459 159.95 325.452 163.086 322.777C166.222 320.102 168.576 323.114 171.718 320.439C174.86 317.764 172.495 314.757 175.631 312.082C178.767 309.407 181.127 312.413 184.263 309.744C187.399 307.075 185.04 304.062 188.176 301.387C191.312 298.712 193.672 301.719 196.808 299.043C199.944 296.368 197.591 293.362 200.727 290.692C203.863 288.023 206.223 291.024 209.359 288.349C212.495 285.673 210.141 282.667 213.278 279.991C216.414 277.316 218.773 280.323 221.91 277.648C225.046 274.972 222.692 271.966 225.828 269.291C228.965 266.615 231.324 269.622 234.46 266.953C237.597 264.284 235.237 261.271 238.379 258.596C241.521 255.921 243.869 258.927 247.011 256.252C250.153 253.577 247.788 250.57 250.924 247.895C254.06 245.22 256.42 248.226 259.556 245.557C262.692 242.888 260.339 239.875 263.475 237.2C266.611 234.525 268.965 237.513 272.101 234.838Z" fill="white" stroke="#231F20" stroke-width="1.03" stroke-miterlimit="10"/>
<path d="M220.243 333.3H216.749C214.253 333.3 212.23 335.463 212.23 338.132V483.891C212.23 486.56 214.253 488.723 216.749 488.723H220.243C222.739 488.723 224.762 486.56 224.762 483.891V338.132C224.762 335.463 222.739 333.3 220.243 333.3Z" fill="white" stroke="#231F20" stroke-width="1.03" stroke-miterlimit="10"/>
<path d="M212.23 339.81H213.758C214.807 339.81 215.813 340.245 216.554 341.02C217.296 341.796 217.713 342.847 217.713 343.944V479.707C217.713 480.803 217.296 481.855 216.554 482.63C215.813 483.405 214.807 483.841 213.758 483.841H212.23V339.81Z" fill="#231F20" stroke="#231F20" stroke-width="1.03" stroke-miterlimit="10"/>
<path d="M218.417 340.623C218.417 340.623 185.163 340.946 171.504 320.28C171.504 320.28 204.943 336.934 219.28 336.525L218.417 340.623Z" fill="#231F20" stroke="#231F20" stroke-width="1.03" stroke-miterlimit="10"/>
<path d="M218.561 340.623C218.561 340.623 251.271 340.946 264.706 320.28C264.706 320.28 231.815 336.934 217.713 336.525L218.561 340.623Z" fill="#231F20" stroke="#231F20" stroke-width="1.03" stroke-miterlimit="10"/>
<path d="M219.49 339.81C219.49 339.81 251.613 332.072 260.006 308.888C260.006 308.888 231.62 332.996 217.713 336.07L219.49 339.81Z" fill="white" stroke="#231F20" stroke-width="1.03" stroke-miterlimit="10"/>
<path d="M216.318 335.741C216.318 335.741 247.851 328.003 256.09 304.819C256.09 304.819 228.226 328.927 214.58 332.002L216.318 335.741Z" fill="#231F20" stroke="#231F20" stroke-width="1.03" stroke-miterlimit="10"/>
<path d="M219.086 341.437C219.086 341.437 186.958 333.699 178.552 310.515C178.552 310.515 206.936 334.629 220.845 337.698L219.086 341.437Z" fill="white" stroke="#231F20" stroke-width="1.03" stroke-miterlimit="10"/>
<path d="M222.985 338.182C222.985 338.182 190.867 330.239 182.468 306.447C182.468 306.447 210.854 331.194 224.761 334.35L222.985 338.182Z" fill="#231F20" stroke="#231F20" stroke-width="1.03" stroke-miterlimit="10"/>
<path d="M219.28 340.623C219.28 340.623 188.406 320.495 185.602 299.937C185.602 299.937 218.477 325.835 219.28 340.623Z" fill="white" stroke="#231F20" stroke-width="1.03" stroke-miterlimit="10"/>
<path d="M219.279 340.623C219.279 340.623 248.718 320.495 251.391 299.937C251.391 299.937 220.045 325.835 219.279 340.623Z" fill="white" stroke="#231F20" stroke-width="1.03" stroke-miterlimit="10"/>
<path d="M219.328 341.437C219.328 341.437 211.832 304.457 223.345 287.731C223.345 287.731 228.432 330.28 219.328 341.437Z" fill="white" stroke="#231F20" stroke-width="1.03" stroke-miterlimit="10"/>
<path d="M219.28 340.623C219.28 340.623 188.406 320.495 185.602 299.937C185.602 299.937 218.477 325.835 219.28 340.623Z" fill="white" stroke="#231F20" stroke-width="1.03" stroke-miterlimit="10"/>
<path d="M218.794 341.437C218.794 341.437 196.155 311.599 200.178 290.986C200.178 291.01 222.848 327.065 218.794 341.437Z" fill="white" stroke="#231F20" stroke-width="1.03" stroke-miterlimit="10"/>
<path d="M219.464 339.81C219.464 339.81 244.656 313.062 242.663 292.613C242.669 292.613 216.859 325.384 219.464 339.81Z" fill="white" stroke="#231F20" stroke-width="1.03" stroke-miterlimit="10"/>
<path d="M219.328 341.437C219.328 341.437 211.832 304.457 223.345 287.731C223.345 287.731 228.432 330.28 219.328 341.437Z" fill="white" stroke="#231F20" stroke-width="1.03" stroke-miterlimit="10"/>
<path d="M219.339 339.81C219.339 339.81 252.052 339.493 265.489 360.153C265.489 360.153 232.594 343.505 218.496 343.914L219.339 339.81Z" fill="white" stroke="#231F20" stroke-width="1.03" stroke-miterlimit="10"/>
<path d="M219.2 339.81C219.2 339.81 185.945 339.493 172.286 360.153C172.286 360.153 205.731 343.505 220.062 343.914L219.2 339.81Z" fill="white" stroke="#231F20" stroke-width="1.03" stroke-miterlimit="10"/>
<path d="M217.503 340.623C217.503 340.623 185.38 348.565 176.986 372.359C176.986 372.359 205.373 347.616 219.28 344.461L217.503 340.623Z" fill="white" stroke="#231F20" stroke-width="1.03" stroke-miterlimit="10"/>
<path d="M221.419 344.692C221.419 344.692 189.296 352.635 180.902 376.428C180.902 376.428 209.289 351.68 223.196 348.524L221.419 344.692Z" fill="#231F20" stroke="#231F20" stroke-width="1.03" stroke-miterlimit="10"/>
<path d="M217.923 338.996C217.923 338.996 250.04 346.938 258.44 370.732C258.44 370.732 230.053 345.989 216.146 342.833L217.923 338.996Z" fill="white" stroke="#231F20" stroke-width="1.03" stroke-miterlimit="10"/>
<path d="M214.758 343.065C214.758 343.065 246.286 350.803 254.524 373.987C254.524 373.987 226.663 349.872 213.014 346.804L214.758 343.065Z" fill="#231F20" stroke="#231F20" stroke-width="1.03" stroke-miterlimit="10"/>
<path d="M218.496 339.81C218.496 339.81 248.652 359.95 251.391 380.496C251.391 380.496 219.274 354.608 218.496 339.81Z" fill="white" stroke="#231F20" stroke-width="1.03" stroke-miterlimit="10"/>
<path d="M218.497 339.81C218.497 339.81 187.628 359.95 184.818 380.496C184.818 380.496 217.694 354.608 218.497 339.81Z" fill="white" stroke="#231F20" stroke-width="1.03" stroke-miterlimit="10"/>
<path d="M218.448 339.81C218.448 339.81 225.942 376.228 214.432 392.702C214.432 392.702 209.341 350.793 218.448 339.81Z" fill="white" stroke="#231F20" stroke-width="1.03" stroke-miterlimit="10"/>
<path d="M218.496 339.81C218.496 339.81 248.652 359.95 251.391 380.496C251.391 380.496 219.274 354.608 218.496 339.81Z" fill="white" stroke="#231F20" stroke-width="1.03" stroke-miterlimit="10"/>
<path d="M218.981 339.81C218.981 339.81 241.621 369.163 237.597 389.448C237.603 389.448 214.928 353.979 218.981 339.81Z" fill="white" stroke="#231F20" stroke-width="1.03" stroke-miterlimit="10"/>
<path d="M218.312 340.623C218.312 340.623 193.12 367.832 195.112 388.634C195.106 388.634 220.917 355.297 218.312 340.623Z" fill="white" stroke="#231F20" stroke-width="1.03" stroke-miterlimit="10"/>
<path d="M218.448 339.81C218.448 339.81 225.942 376.228 214.432 392.702C214.432 392.702 209.341 350.793 218.448 339.81Z" fill="white" stroke="#231F20" stroke-width="1.03" stroke-miterlimit="10"/>
<path d="M81.4336 546.499V581.815L241.992 671L240.56 630.392L81.4336 546.499Z" fill="#231F20" stroke="#231F20" stroke-width="1.03" stroke-miterlimit="10"/>
<path d="M259.186 579.862L394.719 472.061L328.919 445.595L184.035 538.227L259.186 579.862Z" fill="#231F20" stroke="#231F20" stroke-width="1.03" stroke-miterlimit="10"/>
<path d="M195.768 490.351L184.035 538.482L251.139 575.793L261.573 523.733L195.768 490.351Z" fill="#FAAFA4" stroke="#231F20" stroke-width="1.03" stroke-miterlimit="10"/>
<path d="M251 566.842C251.312 566.842 251.61 566.756 251.831 566.603C252.051 566.451 252.175 566.244 252.175 566.028C252.175 565.812 252.051 565.605 251.831 565.453C251.61 565.3 251.312 565.214 251 565.214C250.688 565.214 250.39 565.3 250.169 565.453C249.949 565.605 249.825 565.812 249.825 566.028C249.825 566.244 249.949 566.451 250.169 566.603C250.39 566.756 250.688 566.842 251 566.842Z" fill="#231F20"/>
<path d="M251 573.352C251.312 573.352 251.61 573.266 251.831 573.113C252.051 572.961 252.175 572.754 252.175 572.538C252.175 572.322 252.051 572.115 251.831 571.963C251.61 571.81 251.312 571.724 251 571.724C250.688 571.724 250.39 571.81 250.169 571.963C249.949 572.115 249.825 572.322 249.825 572.538C249.825 572.754 249.949 572.961 250.169 573.113C250.39 573.266 250.688 573.352 251 573.352Z" fill="#231F20"/>
<path d="M257.656 568.469C257.864 568.469 258.063 568.384 258.21 568.231C258.357 568.078 258.439 567.871 258.439 567.656C258.439 567.44 258.357 567.233 258.21 567.08C258.063 566.928 257.864 566.842 257.656 566.842C257.449 566.842 257.249 566.928 257.102 567.08C256.956 567.233 256.873 567.44 256.873 567.656C256.873 567.871 256.956 568.078 257.102 568.231C257.249 568.384 257.449 568.469 257.656 568.469Z" fill="#231F20"/>
<path d="M258.048 561.146C258.359 561.146 258.658 561.06 258.879 560.907C259.099 560.755 259.223 560.548 259.223 560.332C259.223 560.116 259.099 559.909 258.879 559.757C258.658 559.604 258.359 559.518 258.048 559.518C257.736 559.518 257.437 559.604 257.217 559.757C256.997 559.909 256.873 560.116 256.873 560.332C256.873 560.548 256.997 560.755 257.217 560.907C257.437 561.06 257.736 561.146 258.048 561.146Z" fill="#231F20"/>
<path d="M267.055 557.891C267.262 557.891 267.462 557.762 267.609 557.533C267.755 557.304 267.838 556.994 267.838 556.67C267.838 556.346 267.755 556.036 267.609 555.807C267.462 555.578 267.262 555.45 267.055 555.45C266.847 555.45 266.648 555.578 266.501 555.807C266.354 556.036 266.271 556.346 266.271 556.67C266.271 556.994 266.354 557.304 266.501 557.533C266.648 557.762 266.847 557.891 267.055 557.891Z" fill="#231F20"/>
<path d="M266.272 563.587C266.48 563.587 266.679 563.501 266.826 563.349C266.973 563.196 267.056 562.989 267.056 562.773C267.056 562.557 266.973 562.35 266.826 562.198C266.679 562.045 266.48 561.959 266.272 561.959C266.065 561.959 265.866 562.045 265.719 562.198C265.572 562.35 265.489 562.557 265.489 562.773C265.489 562.989 265.572 563.196 265.719 563.349C265.866 563.501 266.065 563.587 266.272 563.587Z" fill="#231F20"/>
<path d="M267.839 570.097C268.047 570.097 268.246 570.011 268.393 569.858C268.54 569.706 268.622 569.499 268.622 569.283C268.622 569.067 268.54 568.86 268.393 568.708C268.246 568.555 268.047 568.469 267.839 568.469C267.631 568.469 267.432 568.555 267.285 568.708C267.138 568.86 267.056 569.067 267.056 569.283C267.056 569.499 267.138 569.706 267.285 569.858C267.432 570.011 267.631 570.097 267.839 570.097Z" fill="#231F20"/>
<path d="M258.439 574.165C258.653 574.149 258.852 574.056 258.997 573.905C259.142 573.754 259.223 573.557 259.223 573.352C259.223 573.147 259.142 572.949 258.997 572.798C258.852 572.647 258.653 572.555 258.439 572.538C258.226 572.555 258.027 572.647 257.882 572.798C257.737 572.949 257.656 573.147 257.656 573.352C257.656 573.557 257.737 573.754 257.882 573.905C258.027 574.056 258.226 574.149 258.439 574.165Z" fill="#231F20"/>
<path d="M258.439 581.489C258.647 581.489 258.846 581.36 258.993 581.132C259.14 580.903 259.223 580.592 259.223 580.268C259.223 579.945 259.14 579.634 258.993 579.405C258.846 579.176 258.647 579.048 258.439 579.048C258.232 579.048 258.033 579.176 257.886 579.405C257.739 579.634 257.656 579.945 257.656 580.268C257.656 580.592 257.739 580.903 257.886 581.132C258.033 581.36 258.232 581.489 258.439 581.489Z" fill="#231F20"/>
<path d="M250.608 583.116C250.816 583.116 251.015 582.988 251.162 582.759C251.309 582.53 251.392 582.22 251.392 581.896C251.392 581.572 251.309 581.262 251.162 581.033C251.015 580.804 250.816 580.675 250.608 580.675C250.401 580.675 250.201 580.804 250.055 581.033C249.908 581.262 249.825 581.572 249.825 581.896C249.825 582.22 249.908 582.53 250.055 582.759C250.201 582.988 250.401 583.116 250.608 583.116Z" fill="#231F20"/>
<path d="M273.32 553.008C273.528 553.008 273.727 552.923 273.874 552.77C274.021 552.617 274.104 552.41 274.104 552.195C274.104 551.979 274.021 551.772 273.874 551.619C273.727 551.467 273.528 551.381 273.32 551.381C273.113 551.381 272.913 551.467 272.767 551.619C272.62 551.772 272.537 551.979 272.537 552.195C272.537 552.41 272.62 552.617 272.767 552.77C272.913 552.923 273.113 553.008 273.32 553.008Z" fill="#231F20"/>
<path d="M273.32 568.469C273.528 568.469 273.727 568.384 273.874 568.231C274.021 568.078 274.104 567.871 274.104 567.656C274.104 567.44 274.021 567.233 273.874 567.08C273.727 566.928 273.528 566.842 273.32 566.842C273.113 566.842 272.913 566.928 272.767 567.08C272.62 567.233 272.537 567.44 272.537 567.656C272.537 567.871 272.62 568.078 272.767 568.231C272.913 568.384 273.113 568.469 273.32 568.469Z" fill="#231F20"/>
<path d="M166.413 546.499C166.725 546.499 167.023 546.413 167.244 546.26C167.464 546.108 167.588 545.901 167.588 545.685C167.588 545.469 167.464 545.262 167.244 545.109C167.023 544.957 166.725 544.871 166.413 544.871C166.102 544.871 165.803 544.957 165.582 545.109C165.362 545.262 165.238 545.469 165.238 545.685C165.238 545.901 165.362 546.108 165.582 546.26C165.803 546.413 166.102 546.499 166.413 546.499Z" fill="#231F20"/>
<path d="M171.895 539.175C172.207 539.175 172.506 539.046 172.726 538.817C172.947 538.588 173.07 538.278 173.07 537.954C173.07 537.63 172.947 537.32 172.726 537.091C172.506 536.862 172.207 536.734 171.895 536.734C171.584 536.734 171.285 536.862 171.065 537.091C170.844 537.32 170.721 537.63 170.721 537.954C170.721 538.278 170.844 538.588 171.065 538.817C171.285 539.046 171.584 539.175 171.895 539.175Z" fill="#231F20"/>
<path d="M176.203 544.871C176.411 544.871 176.61 544.742 176.757 544.514C176.904 544.285 176.986 543.974 176.986 543.65C176.986 543.327 176.904 543.016 176.757 542.787C176.61 542.558 176.411 542.43 176.203 542.43C175.995 542.43 175.796 542.558 175.649 542.787C175.502 543.016 175.42 543.327 175.42 543.65C175.42 543.974 175.502 544.285 175.649 544.514C175.796 544.742 175.995 544.871 176.203 544.871Z" fill="#231F20"/>
<path d="M186.776 548.126C187.088 548.126 187.387 547.997 187.607 547.768C187.827 547.54 187.951 547.229 187.951 546.905C187.951 546.582 187.827 546.271 187.607 546.042C187.387 545.813 187.088 545.685 186.776 545.685C186.465 545.685 186.166 545.813 185.946 546.042C185.725 546.271 185.602 546.582 185.602 546.905C185.602 547.229 185.725 547.54 185.946 547.768C186.166 547.997 186.465 548.126 186.776 548.126Z" fill="#231F20"/>
<path d="M178.553 552.195C178.76 552.195 178.96 552.109 179.107 551.956C179.253 551.804 179.336 551.597 179.336 551.381C179.336 551.165 179.253 550.958 179.107 550.805C178.96 550.653 178.76 550.567 178.553 550.567C178.345 550.567 178.146 550.653 177.999 550.805C177.852 550.958 177.77 551.165 177.77 551.381C177.77 551.597 177.852 551.804 177.999 551.956C178.146 552.109 178.345 552.195 178.553 552.195Z" fill="#231F20"/>
<path d="M171.895 557.077C172.207 557.077 172.506 556.991 172.726 556.839C172.947 556.686 173.07 556.479 173.07 556.263C173.07 556.048 172.947 555.841 172.726 555.688C172.506 555.535 172.207 555.45 171.895 555.45C171.584 555.45 171.285 555.535 171.065 555.688C170.844 555.841 170.721 556.048 170.721 556.263C170.721 556.479 170.844 556.686 171.065 556.839C171.285 556.991 171.584 557.077 171.895 557.077Z" fill="#231F20"/>
<path d="M149.965 540.802C150.276 540.802 150.575 540.716 150.796 540.564C151.016 540.411 151.14 540.204 151.14 539.988C151.14 539.773 151.016 539.566 150.796 539.413C150.575 539.261 150.276 539.175 149.965 539.175C149.653 539.175 149.354 539.261 149.134 539.413C148.914 539.566 148.79 539.773 148.79 539.988C148.79 540.204 148.914 540.411 149.134 540.564C149.354 540.716 149.653 540.802 149.965 540.802Z" fill="#231F20"/>
<path d="M155.056 529.41C155.269 529.393 155.468 529.301 155.613 529.15C155.758 528.999 155.839 528.801 155.839 528.596C155.839 528.391 155.758 528.193 155.613 528.043C155.468 527.892 155.269 527.799 155.056 527.782C154.842 527.799 154.643 527.892 154.498 528.043C154.353 528.193 154.272 528.391 154.272 528.596C154.272 528.801 154.353 528.999 154.498 529.15C154.643 529.301 154.842 529.393 155.056 529.41Z" fill="#231F20"/>
<path d="M157.406 538.361C157.614 538.361 157.813 538.275 157.96 538.123C158.107 537.97 158.189 537.763 158.189 537.547C158.189 537.332 158.107 537.125 157.96 536.972C157.813 536.819 157.614 536.734 157.406 536.734C157.199 536.734 156.999 536.819 156.852 536.972C156.706 537.125 156.623 537.332 156.623 537.547C156.623 537.763 156.706 537.97 156.852 538.123C156.999 538.275 157.199 538.361 157.406 538.361Z" fill="#231F20"/>
<path d="M164.454 526.969C164.662 526.969 164.861 526.84 165.008 526.611C165.155 526.382 165.237 526.072 165.237 525.748C165.237 525.425 165.155 525.114 165.008 524.885C164.861 524.656 164.662 524.528 164.454 524.528C164.246 524.528 164.047 524.656 163.9 524.885C163.753 525.114 163.671 525.425 163.671 525.748C163.671 526.072 163.753 526.382 163.9 526.611C164.047 526.84 164.246 526.969 164.454 526.969Z" fill="#231F20"/>
<path d="M198.133 577.42C198.341 577.42 198.54 577.335 198.687 577.182C198.834 577.029 198.916 576.823 198.916 576.607C198.916 576.391 198.834 576.184 198.687 576.031C198.54 575.879 198.341 575.793 198.133 575.793C197.925 575.793 197.726 575.879 197.579 576.031C197.432 576.184 197.35 576.391 197.35 576.607C197.35 576.823 197.432 577.029 197.579 577.182C197.726 577.335 197.925 577.42 198.133 577.42Z" fill="#231F20"/>
<path d="M188.734 580.675C188.948 580.659 189.147 580.566 189.292 580.415C189.437 580.264 189.518 580.067 189.518 579.862C189.518 579.656 189.437 579.459 189.292 579.308C189.147 579.157 188.948 579.064 188.734 579.048C188.521 579.064 188.322 579.157 188.177 579.308C188.032 579.459 187.951 579.656 187.951 579.862C187.951 580.067 188.032 580.264 188.177 580.415C188.322 580.566 188.521 580.659 188.734 580.675Z" fill="#231F20"/>
<path d="M185.21 569.283C185.522 569.283 185.82 569.154 186.041 568.926C186.261 568.697 186.385 568.386 186.385 568.062C186.385 567.739 186.261 567.428 186.041 567.199C185.82 566.97 185.522 566.842 185.21 566.842C184.898 566.842 184.6 566.97 184.379 567.199C184.159 567.428 184.035 567.739 184.035 568.062C184.035 568.386 184.159 568.697 184.379 568.926C184.6 569.154 184.898 569.283 185.21 569.283Z" fill="#231F20"/>
<path d="M174.245 573.352C174.557 573.352 174.856 573.223 175.076 572.994C175.296 572.765 175.42 572.455 175.42 572.131C175.42 571.807 175.296 571.497 175.076 571.268C174.856 571.039 174.557 570.911 174.245 570.911C173.934 570.911 173.635 571.039 173.414 571.268C173.194 571.497 173.07 571.807 173.07 572.131C173.07 572.455 173.194 572.765 173.414 572.994C173.635 573.223 173.934 573.352 174.245 573.352Z" fill="#231F20"/>
<path d="M261.682 523.714L195.783 490.503L306.127 411.418L362.607 440.155L261.682 523.714Z" fill="#FAAFA4" stroke="#231F20" stroke-width="1.03" stroke-miterlimit="10"/>
<path d="M321.098 457.801C319.995 458.321 318.792 458.59 317.573 458.59C316.355 458.59 315.151 458.321 314.049 457.801C314.049 457.801 314.46 460.787 318.939 460.154" fill="white"/>
<path d="M321.098 457.801C319.995 458.321 318.792 458.59 317.573 458.59C316.355 458.59 315.151 458.321 314.049 457.801C314.049 457.801 314.46 460.787 318.939 460.154" stroke="#231F20" stroke-width="1.03" stroke-miterlimit="10"/>
<path d="M368.09 442.396L362.644 439.899L260.97 523.786L250.608 574.979L255.382 572.623L265.466 525.475L265.372 525.438L368.09 442.396Z" fill="#C8E9E8" stroke="#231F20" stroke-width="1.03" stroke-miterlimit="10"/>
<path d="M348.29 377.324C337.139 374.645 345.866 362.594 345.866 362.594L338.577 364.04L334.809 373.907L324.503 388.277H335.965C335.965 388.277 331.728 403.757 339.041 404.471L345.866 393.951L342.052 422.831L326.111 452.901C326.111 452.901 321.346 459.46 317.179 461.407C313.012 463.353 314.327 470.37 321.645 466.337C328.964 462.304 330.085 460.717 331.035 456.916L349.388 428.713C350.121 427.689 350.614 426.499 350.826 425.241L356.865 388.905C356.865 388.905 359.453 380.009 348.29 377.324Z" fill="white" stroke="#231F20" stroke-width="1.03" stroke-miterlimit="10"/>
<path d="M317.964 460.243L312.135 463.334L306.999 469.184C306.999 469.184 309.284 469.395 310.613 467.827C311.942 466.259 312.992 464.537 313.376 464.717C313.761 464.896 317.964 463.334 317.964 463.334" fill="white"/>
<path d="M317.964 460.243L312.135 463.334L306.999 469.184C306.999 469.184 309.284 469.395 310.613 467.827C311.942 466.259 312.992 464.537 313.376 464.717C313.761 464.896 317.964 463.334 317.964 463.334" stroke="#231F20" stroke-width="1.03" stroke-miterlimit="10"/>
<path d="M318.145 461.87L313.145 465.983L309.349 472.449C309.349 472.449 311.579 472.132 312.56 470.407C313.54 468.682 314.206 466.885 314.607 466.968C315.008 467.052 318.747 464.688 318.747 464.688" fill="white"/>
<path d="M318.145 461.87L313.145 465.983L309.349 472.449C309.349 472.449 311.579 472.132 312.56 470.407C313.54 468.682 314.206 466.885 314.607 466.968C315.008 467.052 318.747 464.688 318.747 464.688" stroke="#231F20" stroke-width="1.03" stroke-miterlimit="10"/>
<path d="M319.717 462.684L314.713 467.109L310.915 474.076C310.915 474.076 313.147 473.735 314.122 471.882C315.098 470.03 315.769 468.081 316.171 468.171C316.573 468.261 320.314 465.714 320.314 465.714" fill="white"/>
<path d="M319.717 462.684L314.713 467.109L310.915 474.076C310.915 474.076 313.147 473.735 314.122 471.882C315.098 470.03 315.769 468.081 316.171 468.171C316.573 468.261 320.314 465.714 320.314 465.714" stroke="#231F20" stroke-width="1.03" stroke-miterlimit="10"/>
<path d="M321.094 464.155L318.719 466.18L315.614 471.634C316.211 471.65 316.802 471.501 317.329 471.2C317.856 470.899 318.302 470.457 318.624 469.916C319.633 468.07 319.811 467.144 320.227 467.233C320.643 467.323 326.579 463.497 326.579 463.497" fill="white"/>
<path d="M321.094 464.155L318.719 466.18L315.614 471.634C316.211 471.65 316.802 471.501 317.329 471.2C317.856 470.899 318.302 470.457 318.624 469.916C319.633 468.07 319.811 467.144 320.227 467.233C320.643 467.323 326.579 463.497 326.579 463.497" stroke="#231F20" stroke-width="1.03" stroke-miterlimit="10"/>
<path d="M168.897 439.899H166.276C164.405 439.899 162.888 441.507 162.888 443.491V551.857C162.888 553.841 164.405 555.45 166.276 555.45H168.897C170.769 555.45 172.286 553.841 172.286 551.857V443.491C172.286 441.507 170.769 439.899 168.897 439.899Z" fill="white" stroke="#231F20" stroke-width="1.03" stroke-miterlimit="10"/>
<path d="M162.899 444.781H163.982C164.731 444.781 165.448 445.105 165.977 445.68C166.507 446.256 166.804 447.037 166.804 447.85V549.126C166.804 549.94 166.507 550.72 165.977 551.296C165.448 551.871 164.731 552.195 163.982 552.195H162.888V444.781H162.899Z" fill="#231F20" stroke="#231F20" stroke-width="1.03" stroke-miterlimit="10"/>
<path d="M167.753 445.595C167.753 445.595 143.762 445.831 133.909 430.948C133.909 430.948 158.033 442.941 168.371 442.646L167.753 445.595Z" fill="#231F20" stroke="#231F20" stroke-width="1.03" stroke-miterlimit="10"/>
<path d="M167.442 445.595C167.442 445.595 191.974 445.831 202.049 430.948C202.049 430.948 177.376 442.941 166.805 442.646L167.442 445.595Z" fill="#231F20" stroke="#231F20" stroke-width="1.03" stroke-miterlimit="10"/>
<path d="M168.905 444.782C168.905 444.782 192.696 439.277 198.915 422.811C198.915 422.811 177.89 439.96 167.587 442.151L168.905 444.782Z" fill="white" stroke="#231F20" stroke-width="1.03" stroke-miterlimit="10"/>
<path d="M166.556 442.34C166.556 442.34 190.353 436.632 196.567 419.556C196.567 419.556 175.536 437.34 165.238 439.606L166.556 442.34Z" fill="#231F20" stroke="#231F20" stroke-width="1.03" stroke-miterlimit="10"/>
<path d="M168.586 446.409C168.586 446.409 144.194 440.701 137.825 423.624C137.825 423.624 159.376 441.408 169.937 443.675L168.586 446.409Z" fill="white" stroke="#231F20" stroke-width="1.03" stroke-miterlimit="10"/>
<path d="M170.968 443.154C170.968 443.154 147.172 437.65 140.958 421.183C140.958 421.183 161.983 438.332 172.287 440.518L170.968 443.154Z" fill="#231F20" stroke="#231F20" stroke-width="1.03" stroke-miterlimit="10"/>
<path d="M168.37 445.595C168.37 445.595 145.396 431.1 143.308 416.301C143.326 416.325 167.77 434.968 168.37 445.595Z" fill="white" stroke="#231F20" stroke-width="1.03" stroke-miterlimit="10"/>
<path d="M168.371 445.595C168.371 445.595 190.628 431.1 192.651 416.301C192.656 416.325 168.952 434.968 168.371 445.595Z" fill="white" stroke="#231F20" stroke-width="1.03" stroke-miterlimit="10"/>
<path d="M167.941 445.595C167.941 445.595 161.94 419.266 171.152 407.35C171.152 407.332 175.222 437.643 167.941 445.595Z" fill="white" stroke="#231F20" stroke-width="1.03" stroke-miterlimit="10"/>
<path d="M168.37 445.595C168.37 445.595 145.396 431.1 143.308 416.301C143.326 416.325 167.77 434.968 168.37 445.595Z" fill="white" stroke="#231F20" stroke-width="1.03" stroke-miterlimit="10"/>
<path d="M168.021 445.595C168.021 445.595 151.708 424.401 154.621 409.791C154.598 409.791 170.94 435.378 168.021 445.595Z" fill="white" stroke="#231F20" stroke-width="1.03" stroke-miterlimit="10"/>
<path d="M168.505 444.782C168.505 444.782 186.97 425.403 185.521 410.605C185.515 410.605 166.609 434.337 168.505 444.782Z" fill="white" stroke="#231F20" stroke-width="1.03" stroke-miterlimit="10"/>
<path d="M167.941 445.595C167.941 445.595 161.94 419.266 171.152 407.35C171.152 407.332 175.222 437.643 167.941 445.595Z" fill="white" stroke="#231F20" stroke-width="1.03" stroke-miterlimit="10"/>
<path d="M168.219 444.782C168.219 444.782 192.755 444.539 202.831 460.242C202.831 460.242 178.16 447.588 167.587 447.9L168.219 444.782Z" fill="white" stroke="#231F20" stroke-width="1.03" stroke-miterlimit="10"/>
<path d="M168.516 444.782C168.516 444.782 143.984 444.539 133.909 460.242C133.909 460.242 158.577 447.588 169.154 447.9L168.516 444.782Z" fill="white" stroke="#231F20" stroke-width="1.03" stroke-miterlimit="10"/>
<path d="M167.052 445.595C167.052 445.595 143.256 451.303 137.042 468.38C137.042 468.38 158.073 450.596 168.37 448.324L167.052 445.595Z" fill="white" stroke="#231F20" stroke-width="1.03" stroke-miterlimit="10"/>
<path d="M169.402 448.037C169.402 448.037 145.606 453.949 139.392 471.635C139.392 471.635 160.417 453.216 170.72 450.868L169.402 448.037Z" fill="#231F20" stroke="#231F20" stroke-width="1.03" stroke-miterlimit="10"/>
<path d="M167.339 443.968C167.339 443.968 191.135 449.88 197.349 467.566C197.349 467.566 176.318 449.147 166.021 446.793L167.339 443.968Z" fill="white" stroke="#231F20" stroke-width="1.03" stroke-miterlimit="10"/>
<path d="M164.989 447.223C164.989 447.223 188.785 452.931 194.999 470.007C194.999 470.007 173.974 452.223 163.671 449.957L164.989 447.223Z" fill="#231F20" stroke="#231F20" stroke-width="1.03" stroke-miterlimit="10"/>
<path d="M167.587 444.781C167.587 444.781 190.562 459.68 192.65 474.89C192.65 474.89 168.181 455.729 167.587 444.781Z" fill="white" stroke="#231F20" stroke-width="1.03" stroke-miterlimit="10"/>
<path d="M167.587 444.782C167.587 444.782 145.33 459.68 143.308 474.89C143.308 474.89 167.006 455.729 167.587 444.782Z" fill="white" stroke="#231F20" stroke-width="1.03" stroke-miterlimit="10"/>
<path d="M167.473 444.781C167.473 444.781 172.722 472.231 164.665 484.655C164.665 484.655 161.1 453.06 167.473 444.781Z" fill="white" stroke="#231F20" stroke-width="1.03" stroke-miterlimit="10"/>
<path d="M167.587 444.781C167.587 444.781 190.562 459.68 192.65 474.89C192.65 474.89 168.181 455.729 167.587 444.781Z" fill="white" stroke="#231F20" stroke-width="1.03" stroke-miterlimit="10"/>
<path d="M167.935 444.781C167.935 444.781 184.223 466.457 181.343 481.4C181.343 481.4 165.021 455.231 167.935 444.781Z" fill="white" stroke="#231F20" stroke-width="1.03" stroke-miterlimit="10"/>
<path d="M167.452 445.595C167.452 445.595 148.988 465.435 150.437 480.586C150.443 480.586 169.359 456.288 167.452 445.595Z" fill="white" stroke="#231F20" stroke-width="1.03" stroke-miterlimit="10"/>
<path d="M167.473 444.781C167.473 444.781 172.722 472.231 164.665 484.655C164.665 484.655 161.1 453.06 167.473 444.781Z" fill="white" stroke="#231F20" stroke-width="1.03" stroke-miterlimit="10"/>
<path d="M348.51 342.821L346.927 338.813C346.927 338.813 341.741 336.204 336.997 341.6C332.252 346.996 317.965 371.138 317.965 371.138L334.83 373.987L348.51 342.821Z" fill="#231F20" stroke="#231F20" stroke-width="1.03" stroke-miterlimit="10"/>
<path d="M343.261 342.364C343.261 342.364 338.246 341.32 335.874 345.585C333.501 349.85 330.496 367.477 330.496 367.477C330.496 367.477 339.148 366.174 346.154 362.222C346.154 362.222 353.881 343.709 345.088 342.538" fill="white"/>
<path d="M343.261 342.364C343.261 342.364 338.246 341.32 335.874 345.585C333.501 349.85 330.496 367.477 330.496 367.477C330.496 367.477 339.148 366.174 346.154 362.222C346.154 362.222 353.881 343.709 345.088 342.538" stroke="#231F20" stroke-width="1.03" stroke-miterlimit="10"/>
<path d="M303.938 370.52L297.601 367.234L299.586 348.199C299.609 348.006 299.679 347.821 299.791 347.66C299.902 347.499 300.052 347.367 300.226 347.275C300.401 347.184 300.596 347.135 300.794 347.133C300.992 347.132 301.188 347.177 301.364 347.266L308.566 350.998L306.678 369.058C306.65 369.359 306.546 369.649 306.377 369.902C306.207 370.155 305.977 370.363 305.706 370.508C305.435 370.653 305.132 370.729 304.824 370.732C304.515 370.734 304.211 370.661 303.938 370.52Z" fill="#231F20" stroke="#231F20" stroke-width="1.03" stroke-miterlimit="10"/>
<path d="M305.088 371.545L297.601 367.429L299.517 347.947L306.999 352.063L305.088 371.545Z" fill="#C8E9E8" stroke="#231F20" stroke-width="1.03" stroke-linejoin="bevel"/>
<path d="M343.335 342.315C343.335 342.315 348.38 341.903 347.371 349.895C346.362 357.886 339.895 377.242 339.895 377.242L355.758 368.843C355.758 368.843 358.481 353.496 357.799 348.124C357.116 342.752 351.29 340.623 351.29 340.623L343.335 342.315Z" fill="#231F20" stroke="#231F20" stroke-width="1.03" stroke-miterlimit="10"/>
<path d="M297.563 356.715C297.563 356.715 298.535 352.763 299.245 350.346C299.955 347.929 298.601 347.947 298.601 347.947L294.558 359.525L297.134 373.164C297.134 373.164 293.788 381.809 290.705 398.259C288.773 408.585 287.95 412.408 291.045 411.205C294.14 410.002 318.282 391.197 318.282 391.197L335.195 373.894L331.742 374.072C325.347 374.402 319.289 377.12 314.703 381.717L299.716 394.05L301.189 373.575C301.189 373.575 302.728 368.133 300.832 364.74C298.935 361.347 307.988 357.703 307.988 357.703C308.452 357.308 308.766 356.759 308.877 356.15C308.877 356.15 304.493 357.764 303.813 357.856C303.134 357.948 300.014 360.55 300.014 360.55" fill="white"/>
<path d="M297.563 356.715C297.563 356.715 298.535 352.763 299.245 350.346C299.955 347.929 298.601 347.947 298.601 347.947L294.558 359.525L297.134 373.164C297.134 373.164 293.788 381.809 290.705 398.259C288.773 408.585 287.95 412.408 291.045 411.205C294.14 410.002 318.282 391.197 318.282 391.197L335.195 373.894L331.742 374.072C325.347 374.402 319.289 377.12 314.703 381.717L299.716 394.05L301.189 373.575C301.189 373.575 302.728 368.133 300.832 364.74C298.935 361.347 307.988 357.703 307.988 357.703C308.452 357.308 308.766 356.759 308.877 356.15C308.877 356.15 304.493 357.764 303.813 357.856C303.134 357.948 300.014 360.55 300.014 360.55" stroke="#231F20" stroke-width="1.03" stroke-miterlimit="10"/>
<path d="M304.69 439.893C304.13 440.306 309.578 419.927 309.578 419.927L316.956 396.111C316.956 396.111 311.311 389.939 318.01 385.596C329.097 378.408 334.837 373.987 334.837 373.987L327.055 386.776L345.376 378.767C345.376 378.767 336.445 389.525 337.79 395.74C339.136 401.956 341.214 401.159 341.214 401.159C341.214 401.159 334.867 410.105 334.069 417.865C333.271 425.625 338.106 427.036 333.474 438.366C333.521 438.385 318.897 429.542 304.69 439.893Z" fill="#231F20" stroke="#231F20" stroke-width="1.03" stroke-miterlimit="10"/>
<path d="M309.349 423.335C309.349 423.335 272.083 417.494 261.743 412.649C257.997 410.895 253.55 415.078 252.66 417.713C249.079 428.155 239.967 487.277 239.967 487.277L229.393 501.016C229.393 501.016 227.052 498.114 228.222 499.091C228.222 499.091 228.053 500.779 229.393 501.016C229.393 501.016 229.141 502.655 230.475 503.007C230.475 503.007 230.698 504.47 231.599 504.567C231.599 504.567 231.014 506.298 233.191 506.625L246.943 494.264C247.87 493.891 248.665 493.232 249.222 492.378C249.78 491.523 250.072 490.512 250.062 489.48C250.442 478.728 260.514 444.997 264.048 431.834L306.224 442.829L309.349 423.335Z" fill="white" stroke="#231F20" stroke-width="1.03" stroke-miterlimit="10"/>
<path d="M232.427 516.014C232.427 516.014 235.21 510.396 239.399 508.653C259.226 500.384 258.626 505.88 299.904 467.522L333.628 438.627C333.628 438.627 315.537 428.104 306.858 439.517C290.055 461.605 233.645 503.711 233.645 503.711L231.762 498.647C231.762 498.647 231.921 496.393 230.626 495.875C230.626 495.875 229.291 493.322 228.196 493.206C228.196 493.206 227.608 491.5 226.531 491.512C226.531 491.512 225.096 489.964 224.066 490.488C223.037 491.012 223.225 491.542 223.196 493.06C223.166 494.577 226.59 513.168 226.59 513.168C226.59 513.168 227.49 517.702 232.427 516.014Z" fill="white" stroke="#231F20" stroke-width="1.03" stroke-miterlimit="10"/>
<path d="M223.195 491.164C223.195 491.164 225.177 491.782 225.313 492.935C225.313 492.935 226.876 492.652 227.264 493.88C227.264 493.88 228.729 494.571 229.019 495.502C229.366 495.644 229.659 495.893 229.857 496.212C230.055 496.531 230.147 496.905 230.121 497.28C230.121 498.693 232.441 512.145 232.441 512.145C232.441 512.145 233.322 516.045 230.853 516.39C230.853 516.39 227.775 515.724 227.252 514.409C226.729 513.095 224.753 502.549 224.753 502.549L223.195 491.164Z" fill="#231F20" stroke="#231F20" stroke-width="1.03" stroke-miterlimit="10"/>
<path d="M290.552 461.87C290.552 461.87 289.669 465.838 287.419 467.566L290.552 461.87Z" fill="#C8E9E8"/>
<path d="M290.552 461.87C290.552 461.87 289.669 465.838 287.419 467.566" stroke="#231F20" stroke-width="1.03" stroke-miterlimit="10"/>
<path d="M264.572 422.811C264.572 422.811 265.142 428.009 263.922 431.762L264.572 422.811Z" fill="white"/>
<path d="M264.572 422.811C264.572 422.811 265.142 428.009 263.922 431.762" stroke="#231F20" stroke-width="1.03" stroke-miterlimit="10"/>
<path d="M299.95 394.33L299.167 399.212" stroke="#231F20" stroke-width="1.03" stroke-miterlimit="10"/>
<path d="M338.328 347.133L333.629 357.386L336.377 357.712" fill="white"/>
<path d="M338.328 347.133L333.629 357.386L336.377 357.712" stroke="#231F20" stroke-width="1.03" stroke-miterlimit="10"/>
<path d="M325.796 349.574L335.978 350.658C335.978 350.658 330.543 358.047 325.796 349.574Z" fill="#231F20" stroke="#231F20" stroke-width="1.03" stroke-miterlimit="10"/>
<path d="M336.761 351.202L347.726 352.281C347.726 352.281 341.854 359.678 336.761 351.202Z" fill="#231F20" stroke="#231F20" stroke-width="1.03" stroke-miterlimit="10"/>
<path d="M330.797 350.388L328.93 353.03C329.736 353.352 330.589 353.559 331.461 353.643L333.629 350.735L330.797 350.388Z" fill="#C8E9E8"/>
<path d="M342.351 351.202L340.677 354.67C341.085 354.992 341.552 355.192 342.037 355.252C342.523 355.311 343.013 355.23 343.467 355.013L345.376 351.572L342.351 351.202Z" fill="#C8E9E8"/>
<path d="M227.895 582.303C227.895 582.303 237.873 572.546 250.543 571.836C272.592 570.612 278.02 579.842 278.02 579.842" fill="white"/>
<path d="M227.895 582.303C227.895 582.303 237.873 572.546 250.543 571.836C272.592 570.612 278.02 579.842 278.02 579.842" stroke="#231F20" stroke-width="1.03" stroke-miterlimit="10"/>
<path d="M137.825 561.959C137.825 561.959 148.582 549.168 162.245 548.273C186.019 546.668 191.867 558.743 191.867 558.743" fill="white"/>
<path d="M137.825 561.959C137.825 561.959 148.582 549.168 162.245 548.273C186.019 546.668 191.867 558.743 191.867 558.743" stroke="#231F20" stroke-width="1.03" stroke-miterlimit="10"/>
<path d="M128.427 319.671L151.646 303.192L170.72 310.715L147.846 329.231L128.427 319.671Z" fill="white" stroke="#231F20" stroke-width="1.03" stroke-miterlimit="10"/>
<path d="M92.1152 323.421C83.2879 323.947 72.0649 322.811 61.0703 316.571L95.5653 295.44L77.612 285.305L86.8786 279.633C86.8786 279.633 90.6977 286.062 106.144 288.712C114.415 290.134 139.591 266.573 139.591 266.573C139.591 266.573 149.584 301.216 131.074 299.891C131.074 299.891 137.312 300.459 138.103 305.197C138.894 309.935 143.058 308.146 144.874 311.125L143.24 313.213L136.152 311.125C136.152 311.125 135.11 312.706 131.091 313.213C127.073 313.72 115.979 308.988 115.979 308.988C113.368 313.178 109.847 316.669 105.701 319.176C101.555 321.684 96.9009 323.138 92.1152 323.421Z" fill="white" stroke="#231F20" stroke-width="1.03" stroke-miterlimit="10"/>
<path d="M143.135 313.483L132.343 310.122C132.343 310.122 138.064 310.587 139.119 307.26L147.224 311.245C147.224 311.245 147.313 314.784 143.135 313.483Z" fill="#231F20" stroke="#231F20" stroke-width="1.03" stroke-miterlimit="10"/>
<path d="M131.559 299.937L111.195 290.986" stroke="#231F20" stroke-width="1.03" stroke-miterlimit="10"/>
<path d="M79.8672 283.662L86.9161 286.917" stroke="#231F20" stroke-width="1.03" stroke-miterlimit="10"/>
<path d="M83.7832 281.221L90.0489 285.289" stroke="#231F20" stroke-width="1.03" stroke-miterlimit="10"/>
<path d="M128.427 309.701C128.64 309.677 128.839 309.537 128.984 309.311C129.129 309.085 129.21 308.789 129.21 308.481C129.21 308.173 129.129 307.877 128.984 307.651C128.839 307.424 128.64 307.285 128.427 307.26C128.213 307.285 128.014 307.424 127.869 307.651C127.724 307.877 127.644 308.173 127.644 308.481C127.644 308.789 127.724 309.085 127.869 309.311C128.014 309.537 128.213 309.677 128.427 309.701Z" fill="#231F20"/>
<path d="M525.591 367.421C533.444 366.943 541.013 364.189 547.445 359.469L520.605 347.503L532.696 338.442L525.484 335.229C525.484 335.229 523.293 340.252 512.348 343.662C506.489 345.508 486.182 330.859 486.182 330.859C486.182 330.859 482.047 356.89 495.301 354.15C495.301 354.15 490.836 355.16 490.694 358.662C490.552 362.165 487.375 361.278 486.323 363.587L487.688 364.941L492.637 362.743C492.637 362.743 493.529 363.79 496.483 363.771C499.436 363.753 507.044 359.253 507.044 359.253C509.303 362.036 512.159 364.226 515.381 365.645C518.603 367.064 522.101 367.673 525.591 367.421Z" fill="white" stroke="#231F20" stroke-width="0.74" stroke-miterlimit="10"/>
<path d="M487.45 364.66L495.753 361.371C495.753 361.371 491.238 362.248 490.112 360.153L484.005 363.558C484.005 363.558 484.241 365.933 487.45 364.66Z" fill="#231F20" stroke="#231F20" stroke-width="1.03" stroke-miterlimit="10"/>
<path d="M494.971 353.643L509.069 345.506" stroke="#231F20" stroke-width="0.74" stroke-miterlimit="10"/>
<path d="M530.998 337.368L526.299 340.623" stroke="#231F20" stroke-width="0.74" stroke-miterlimit="10"/>
<path d="M527.865 335.741L523.949 339.81" stroke="#231F20" stroke-width="0.74" stroke-miterlimit="10"/>
<path d="M498.495 360.153C498.602 360.143 498.702 360.096 498.774 360.021C498.847 359.946 498.887 359.848 498.887 359.746C498.887 359.644 498.847 359.546 498.774 359.471C498.702 359.396 498.602 359.349 498.495 359.339C498.388 359.349 498.288 359.396 498.216 359.471C498.144 359.546 498.104 359.644 498.104 359.746C498.104 359.848 498.144 359.946 498.216 360.021C498.288 360.096 498.388 360.143 498.495 360.153Z" fill="#231F20"/>
<path d="M259.117 132.307L305.433 174.4V241.358L258.44 273.083L259.117 132.307Z" fill="white" stroke="#231F20" stroke-width="1.03" stroke-miterlimit="10"/>
<path d="M258.44 131.767L271.91 124.983L317.965 166.923V234.268L305.112 241.348V174.065L258.44 131.767Z" fill="white" stroke="#231F20" stroke-width="1.03" stroke-miterlimit="10"/>
<path d="M305.433 174.403L317.964 167.298V234.304L305.433 241.348V174.403Z" fill="#C8E9E8" stroke="#231F20" stroke-width="1.03" stroke-miterlimit="10"/>
<path d="M299.95 227.178L314.286 217.058C314.286 217.058 329.632 211.923 330.502 225.708C330.502 225.708 349.181 208.21 362.957 232.362C367.23 239.863 377.766 228.915 385.856 247.383C389.242 255.125 393.152 279.939 393.152 279.939L385.132 285.289L299.95 227.178Z" fill="#231F20" stroke="white" stroke-width="1.03" stroke-miterlimit="10"/>
<path d="M291.335 232.821L305.797 222.749C305.797 222.749 321.266 217.642 322.149 231.352C322.149 231.352 340.985 213.943 354.877 237.971C359.18 245.431 369.81 234.535 377.963 252.91C381.383 260.604 385.32 285.289 385.32 285.289L291.335 232.821Z" fill="white" stroke="#231F20" stroke-width="1.03" stroke-miterlimit="10"/>
<path d="M75.168 153.005L89.6246 142.997C89.6246 142.997 105.099 137.922 105.977 151.546C105.977 151.546 124.812 134.246 138.704 158.123C143.007 165.536 153.637 154.709 161.796 172.968C165.21 180.613 169.153 205.143 169.153 205.143L161.066 210.426L75.168 153.005Z" fill="#231F20" stroke="white" stroke-width="1.03" stroke-miterlimit="10"/>
<path d="M67.3359 158.601L81.6779 148.687C81.6779 148.687 97.018 143.645 97.8936 157.181C97.8936 157.181 116.573 139.993 130.348 163.715C134.615 171.075 145.157 160.324 153.242 178.458C156.633 186.06 160.538 210.426 160.538 210.426L67.3359 158.601Z" fill="white" stroke="#231F20" stroke-width="1.03" stroke-miterlimit="10"/>
<path d="M423.697 306.447V176.249" stroke="#231F20" stroke-width="1.03" stroke-miterlimit="10"/>
<path d="M438.579 333.119L444.845 326.79V335.922L438.579 342.251V333.119Z" fill="#231F20" stroke="#231F20" stroke-width="1.03" stroke-miterlimit="10"/>
<path d="M444.845 318.135L450.327 312.143V320.797L444.845 326.79V318.135Z" fill="#231F20" stroke="#231F20" stroke-width="1.03" stroke-miterlimit="10"/>
<path d="M444.845 336.855L451.11 330.859V339.516L444.845 345.506V336.855Z" fill="#231F20" stroke="#231F20" stroke-width="1.03" stroke-miterlimit="10"/>
<path d="M404.9 318.135L399.418 312.143V320.797L404.9 326.79V318.135Z" fill="#231F20" stroke="#231F20" stroke-width="1.03" stroke-miterlimit="10"/>
<path d="M411.166 333.6L404.9 327.604V336.255L411.166 342.251V333.6Z" fill="#231F20" stroke="#231F20" stroke-width="1.03" stroke-miterlimit="10"/>
<path d="M296.034 358.857L299.005 352.719L303.082 348.761C303.082 348.761 303.157 350.715 302.2 351.78C301.671 352.361 301.18 352.976 300.73 353.621L298.586 359.339" fill="white"/>
<path d="M296.034 358.857L299.005 352.719L303.082 348.761C303.082 348.761 303.157 350.715 302.2 351.78C301.671 352.361 301.18 352.976 300.73 353.621L298.586 359.339" stroke="#231F20" stroke-width="1.03" stroke-miterlimit="10"/>
<path d="M297.601 359.139L301.632 354.033L306.216 351.202C306.216 351.202 305.863 353.055 304.757 353.846C304.14 354.276 303.55 354.746 302.991 355.252L299.807 360.153" fill="white"/>
<path d="M297.601 359.139L301.632 354.033L306.216 351.202C306.216 351.202 305.863 353.055 304.757 353.846C304.14 354.276 303.55 354.746 302.991 355.252L299.807 360.153" stroke="#231F20" stroke-width="1.03" stroke-miterlimit="10"/>
<path d="M229.853 213.681C241.316 213.681 250.608 203.844 250.608 191.71C250.608 179.576 241.316 169.739 229.853 169.739C218.39 169.739 209.098 179.576 209.098 191.71C209.098 203.844 218.39 213.681 229.853 213.681Z" fill="#FAAFA4" stroke="#231F20" stroke-width="1.03" stroke-miterlimit="10"/>
<path d="M249.825 190.082C249.825 196.822 240.708 202.288 229.458 202.288C218.209 202.288 209.098 196.822 209.098 190.082" stroke="#231F20" stroke-width="1.18" stroke-miterlimit="10"/>
<path d="M230.636 198.22C234.745 198.22 238.076 196.762 238.076 194.965C238.076 193.167 234.745 191.71 230.636 191.71C226.527 191.71 223.195 193.167 223.195 194.965C223.195 196.762 226.527 198.22 230.636 198.22Z" stroke="#231F20" stroke-width="1.03" stroke-miterlimit="10"/>
<path d="M209.881 186.014C209.881 186.014 211.218 191.603 218.528 190.311C225.838 189.018 234.15 187.956 240.549 190.311C246.948 192.666 249.825 187.149 249.825 187.149" stroke="#231F20" stroke-width="1.03" stroke-miterlimit="10"/>
<path d="M210.664 200.661C210.664 200.661 226.275 217.219 246.692 205.294" stroke="#231F20" stroke-width="1.03" stroke-miterlimit="10"/>
<path d="M243.559 174.621C243.559 178.22 237.424 181.131 229.85 181.131C222.275 181.131 216.146 178.22 216.146 174.621" stroke="#231F20" stroke-width="1.03" stroke-miterlimit="10"/>
</svg>
