<svg width="32" height="32" viewBox="0 0 32 32" fill="none" xmlns="http://www.w3.org/2000/svg">
<path d="M0 16C0 7.16344 7.16344 0 16 0C24.8366 0 32 7.16344 32 16C32 24.8366 24.8366 32 16 32C7.16344 32 0 24.8366 0 16Z" fill="#0077B5"/>
<path fill-rule="evenodd" clip-rule="evenodd" d="M11.546 9.8818C11.546 10.9279 10.7586 11.7649 9.49426 11.7649H9.47108C8.25377 11.7649 7.4668 10.9279 7.4668 9.8818C7.4668 8.8136 8.27774 8 9.51815 8C10.7586 8 11.5224 8.8136 11.546 9.8818ZM11.3076 13.252V24.1464H7.68164V13.252H11.3076ZM24.3838 24.1464L24.384 17.8998C24.384 14.5535 22.5952 12.9961 20.2091 12.9961C18.284 12.9961 17.4221 14.0535 16.9408 14.7953V13.2522H13.3145C13.3622 14.2745 13.3145 24.1467 13.3145 24.1467H16.9408V18.0623C16.9408 17.7367 16.9644 17.4119 17.0602 17.1788C17.3223 16.5283 17.919 15.8548 18.9207 15.8548C20.2333 15.8548 20.758 16.8538 20.758 18.3178V24.1464H24.3838Z" fill="white"/>
</svg>
