<svg width="114" height="61" viewBox="0 0 114 61" fill="none" xmlns="http://www.w3.org/2000/svg">
<g clip-path="url(#clip0_441_1296)">
<path d="M6.10917 12.7376C6.10917 13.4083 5.84269 14.0516 5.36833 14.5258C4.89397 15 4.2506 15.2665 3.57976 15.2665C2.90891 15.2665 2.26555 15 1.79119 14.5258C1.31683 14.0516 1.05035 13.4083 1.05035 12.7376C1.05035 12.6992 1.05035 12.6607 1.05035 12.6222C1.06986 12.9003 1.19428 13.1605 1.39845 13.3504C1.60262 13.5402 1.87129 13.6454 2.1501 13.6447C2.43249 13.6451 2.70419 13.5368 2.90893 13.3424C3.11366 13.1479 3.23573 12.8822 3.24985 12.6002V9.41168H0.0605469V12.6002C0.0649118 13.8308 0.556921 15.0096 1.42886 15.8782C2.30079 16.7469 3.48155 17.2346 4.71246 17.2346C5.94003 17.2346 7.11776 16.7489 7.98835 15.8837C8.85894 15.0185 9.35168 13.844 9.35894 12.6167V-1.52588e-05H6.10366V12.7376H6.10917Z" fill="white"/>
<path d="M16.8865 10.3517C16.8865 10.3517 15.9242 12.7322 14.7255 12.6222C14.4917 12.6068 14.2725 12.5025 14.113 12.3308C13.9535 12.1591 13.8658 11.933 13.8677 11.6986V3.61734H10.6289V11.8965C10.6281 12.2511 10.6982 12.6022 10.835 12.9293C10.9719 13.2564 11.1727 13.5529 11.4258 13.8013C11.6789 14.0497 11.979 14.245 12.3087 14.3758C12.6383 14.5065 12.9908 14.5701 13.3453 14.5628C14.995 14.6343 16.8645 12.2209 16.8645 12.2209V14.2989H20.0868V3.64482H16.8645L16.8865 10.3517Z" fill="white"/>
<path d="M27.7084 3.66682C27.1362 3.67459 26.5732 3.81284 26.0624 4.07101C25.5517 4.32919 25.1066 4.70048 24.7611 5.15663V3.62285H21.5498V18.422H24.7776V13.0675C25.1134 13.5346 25.555 13.9155 26.0663 14.1792C26.5776 14.4429 27.1441 14.5819 27.7194 14.5848C29.9519 14.5848 31.8985 12.3198 31.904 9.13131C31.9095 5.94278 29.9354 3.67232 27.7084 3.66682ZM26.6912 13.1885C25.8884 13.1885 25.0415 12.2319 24.7501 11.4512V6.81138C25.058 6.03623 25.8993 5.08516 26.6966 5.08516C27.8459 5.08516 28.3737 6.43206 28.3462 9.15331C28.3187 11.8746 27.8349 13.1885 26.6912 13.1885Z" fill="white"/>
<path d="M33.0259 14.3429H36.2481V3.62285H33.0039L33.0259 14.3429Z" fill="white"/>
<path d="M49.258 13.4798C47.13 13.4798 46.7507 11.8306 46.7562 8.97738H53.0192C52.8542 5.59094 50.8802 3.63383 48.5267 3.63383C45.2275 3.63383 43.2204 6.13519 43.2149 9.08184C43.1818 9.77815 43.2876 10.4741 43.5263 11.1291C43.765 11.784 44.1319 12.3849 44.6053 12.8967C45.0788 13.4084 45.6494 13.8207 46.284 14.1096C46.9186 14.3985 47.6043 14.5582 48.3013 14.5793C49.7662 14.5352 51.1652 13.9609 52.2384 12.9631L51.7215 12.2044C50.0279 13.6612 49.258 13.4798 49.258 13.4798ZM48.5212 4.19457C49.5165 4.19457 49.9949 6.61347 49.8849 7.98784H46.7562C46.7617 6.30562 47.2345 4.19457 48.5212 4.19457Z" fill="white"/>
<path d="M43.5394 3.57886H41.7798V0.0110016L37.1279 4.59039H38.4971V14.3374H41.7359V4.56291H43.512L43.5394 3.57886Z" fill="white"/>
<path d="M59.8706 3.57336C58.8384 3.93821 57.9335 4.59293 57.2642 5.45901V3.61735H54.0254V14.3374H57.2476V7.40511V7.08626C57.682 6.3441 58.4519 5.29408 59.2327 5.36555C59.5006 5.41864 59.7421 5.56244 59.9163 5.77272C60.0906 5.98301 60.1871 6.24694 60.1895 6.52002L62.4384 4.32103C62.1046 3.99536 61.6958 3.75682 61.2479 3.62643C60.8001 3.49604 60.3271 3.47781 59.8706 3.57336Z" fill="white"/>
<path d="M87.1389 37.9821L100.682 51.209L95.5465 51.2035L83.0479 38.9826L87.1389 37.9821Z" fill="#FF6664"/>
<path d="M100.682 51.5059H95.5458C95.5081 51.5065 95.4707 51.4995 95.4357 51.4854C95.4007 51.4712 95.369 51.4501 95.3424 51.4234L82.8437 39.2025C82.8056 39.1655 82.7779 39.119 82.7634 39.0679C82.7489 39.0167 82.7482 38.9627 82.7613 38.9111C82.7767 38.8612 82.8045 38.8159 82.8419 38.7794C82.8794 38.7429 82.9253 38.7164 82.9757 38.7022L87.0668 37.7072C87.1154 37.6959 87.166 37.697 87.2141 37.7105C87.2621 37.7239 87.306 37.7493 87.3417 37.7842L100.885 51.0111C100.928 51.0508 100.957 51.1028 100.969 51.16C100.981 51.2171 100.975 51.2765 100.951 51.3299C100.928 51.3825 100.891 51.4272 100.843 51.4585C100.795 51.4897 100.739 51.5062 100.682 51.5059ZM95.6668 50.9066H99.9558L87.0448 38.3009L83.6355 39.1365L95.6668 50.9066Z" fill="white"/>
<path d="M50.1814 18.3836V26.08C48.0736 24.6496 45.5804 23.8942 43.033 23.914C35.1093 23.914 29.2861 29.8073 29.2861 37.7237C29.2861 45.6401 35.0928 51.5773 43.033 51.5773C46.0254 51.6056 48.928 50.5557 51.2096 48.6197L52.0455 50.8187H57.2583V18.422L50.1814 18.3836ZM43.5829 44.8759C42.6397 44.8987 41.7017 44.7292 40.8263 44.3776C39.9508 44.026 39.1562 43.4998 38.4908 42.831C37.8255 42.1622 37.3034 41.365 36.9565 40.4878C36.6096 39.6106 36.4451 38.672 36.473 37.7292C36.4443 36.7862 36.6083 35.8472 36.9549 34.9697C37.3016 34.0921 37.8235 33.2945 38.489 32.6256C39.1545 31.9567 39.9495 31.4305 40.8253 31.0792C41.7011 30.7279 42.6395 30.5588 43.5829 30.5825C44.5263 30.5597 45.4645 30.7292 46.3402 31.0807C47.216 31.4323 48.011 31.9584 48.6767 32.6271C49.3425 33.2958 49.865 34.093 50.2126 34.9702C50.5601 35.8474 50.7254 36.7861 50.6982 37.7292C50.7245 38.6711 50.5591 39.6086 50.2119 40.4847C49.8648 41.3607 49.3432 42.1571 48.6787 42.8255C48.0143 43.4938 47.221 44.0202 46.3469 44.3727C45.4728 44.7252 44.5362 44.8964 43.5939 44.8759H43.5829Z" fill="white"/>
<path d="M100.495 23.8975C92.7472 23.8975 86.957 29.8293 86.957 37.7072V37.7842L100.66 51.5278C103.364 51.5411 106.009 50.7315 108.242 49.2066C110.476 47.6817 112.192 45.5136 113.164 42.9903H105.466C104.855 43.7162 104.089 44.2949 103.223 44.6833C102.358 45.0716 101.416 45.2596 100.467 45.2332C97.0472 45.2332 94.7048 43.2706 94.0944 39.7028H113.835C113.922 39.0153 113.968 38.3232 113.972 37.6302C114.005 30.0822 108.507 23.8975 100.495 23.8975ZM107.093 36.0854H94.1659C94.1518 36.091 94.1361 36.091 94.1219 36.0854C94.1164 36.0713 94.1164 36.0556 94.1219 36.0415V35.8875C94.2154 32.6275 97.1242 29.9942 100.478 29.9118H100.808C104.163 29.9942 107.071 32.6275 107.159 35.8875V36.0415C107.159 36.0415 107.159 36.0744 107.159 36.0799C107.15 36.0892 107.138 36.0949 107.125 36.0959C107.112 36.0969 107.099 36.0932 107.088 36.0854H107.093Z" fill="white"/>
<path d="M13.5434 23.903C5.79568 23.903 0 29.8348 0 37.7072C0 45.5796 5.83417 51.5169 13.5434 51.5169C16.272 51.5586 18.9477 50.7624 21.2093 49.2356C23.4709 47.7089 25.2096 45.5252 26.1905 42.9793H18.4923C17.8834 43.7057 17.1179 44.2848 16.2532 44.6733C15.3885 45.0617 14.447 45.2494 13.4994 45.2222C10.0792 45.2222 7.73671 43.2596 7.12085 39.6918H26.9328C27.0226 39.0045 27.0685 38.3123 27.0703 37.6192C27.0538 30.0877 21.5551 23.903 13.5434 23.903ZM20.1419 36.0909H7.18683V35.9315C7.28031 32.6715 10.1892 30.0382 13.5434 29.9558H13.8733C17.2276 30.0382 20.1364 32.6715 20.2299 35.9315V36.0909C20.2325 36.097 20.2338 36.1036 20.2338 36.1102C20.2338 36.1168 20.2325 36.1233 20.2299 36.1294C20.2248 36.1418 20.215 36.1517 20.2026 36.1568C20.1902 36.162 20.1763 36.162 20.1639 36.1569C20.1515 36.1518 20.1416 36.142 20.1365 36.1296C20.1313 36.1172 20.1313 36.1033 20.1364 36.0909H20.1419Z" fill="white"/>
<path d="M73.0567 23.8535H72.5068C71.7696 23.8571 71.0339 23.9214 70.3073 24.046H70.1698C67.1462 24.5957 64.4153 26.1991 62.4623 28.5714C60.5092 30.9437 59.4605 33.9313 59.5023 37.0035C59.4404 40.3037 60.6476 43.5018 62.8749 45.9383C65.1023 48.3748 68.1798 49.8639 71.473 50.0985H71.627C71.9166 50.1205 72.2136 50.1315 72.5178 50.1315C75.1021 50.1476 77.6306 49.3809 79.7707 47.9325L79.9961 47.7786V48.7516C79.9961 52.5998 77.0213 54.9033 73.4526 54.9033C73.1348 54.9032 72.8173 54.8867 72.5013 54.8538H72.4629C70.1754 54.5899 67.9703 53.4135 67.272 51.3519H60.2336C61.2564 56.3931 65.0011 59.7686 70.4063 60.6976C70.5713 60.7306 70.7417 60.7526 70.9177 60.7746C71.7954 60.9019 72.6812 60.9662 73.5681 60.967C81.8162 60.967 86.93 55.9423 86.93 47.7401V37.7347L73.0567 23.8535ZM73.3646 43.7764H73.2656C69.4165 43.7269 66.6671 40.8847 66.6671 37.0035C66.6063 35.3478 67.1803 33.7313 68.2719 32.4846C69.3635 31.238 70.8901 30.4553 72.5398 30.2966C72.8101 30.2681 73.0818 30.2534 73.3536 30.2526C77.2468 30.2526 80.0181 33.1003 80.0181 37.0035C80.0181 40.9067 77.1973 43.7819 73.3371 43.7819L73.3646 43.7764Z" fill="white"/>
</g>
<defs>
<clipPath id="clip0_441_1296">
<rect width="114" height="61" fill="white"/>
</clipPath>
</defs>
</svg>
