<svg width="32" height="32" viewBox="0 0 32 32" fill="none" xmlns="http://www.w3.org/2000/svg">
<path d="M16 32C24.8366 32 32 24.8366 32 16C32 7.16344 24.8366 0 16 0C7.16344 0 0 7.16344 0 16C0 24.8366 7.16344 32 16 32Z" fill="#0971BD"/>
<path fill-rule="evenodd" clip-rule="evenodd" d="M8.5332 11.4503C8.5332 11.4503 14.9729 15.1021 16.2228 15.1021C17.5329 15.1021 23.9028 11.5201 23.9028 11.5201L23.913 10.8801C23.913 10.1735 23.3396 9.6001 22.6311 9.6001H9.81448C9.10664 9.6001 8.5332 10.1735 8.5332 10.8801V11.4503ZM23.9028 13.4399C23.9028 13.4399 17.593 16.862 16.2228 16.862C14.9729 16.862 8.5428 13.4399 8.54344 13.4399L8.5332 21.1199C8.5332 21.8265 9.10728 22.3999 9.81448 22.3999H22.6311C23.3396 22.3999 23.913 21.8265 23.913 21.1199L23.9028 13.4399Z" fill="white"/>
</svg>
