<svg width="586" height="83" viewBox="0 0 586 83" fill="none" xmlns="http://www.w3.org/2000/svg">
<rect width="586" height="83" rx="8" fill="white"/>
<path d="M19.04 22.07C20.59 22.07 21.44 21.07 21.44 20.03C21.44 17.49 17.76 18.47 17.76 16.9C17.76 16.23 18.27 15.91 18.93 15.93C19.65 15.95 20.06 16.38 20.1 16.85H21.36C21.26 15.66 20.32 14.96 18.99 14.96C17.57 14.96 16.6 15.72 16.6 16.94C16.6 19.5 20.29 18.41 20.29 20.09C20.29 20.68 19.84 21.11 19.04 21.11C18.25 21.11 17.85 20.65 17.8 20.08H16.58C16.58 21.31 17.65 22.07 19.04 22.07ZM26.6252 15.04H22.7852V22H26.6252V21.07H23.9252V18.94H26.3252V18.01H23.9252V15.97H26.6252V15.04ZM31.1993 14.96C29.2393 14.96 27.6493 16.43 27.6493 18.51C27.6493 20.6 29.2393 22.06 31.1993 22.06C32.6493 22.06 33.8993 21.34 34.4293 19.98H33.0593C32.6893 20.72 32.0293 21.07 31.1993 21.07C29.8193 21.07 28.8193 20.08 28.8193 18.51C28.8193 16.94 29.8193 15.96 31.1993 15.96C32.0293 15.96 32.6893 16.31 33.0593 17.05H34.4293C33.8993 15.69 32.6493 14.96 31.1993 14.96ZM35.7537 19.46C35.7537 21.23 36.9937 22.07 38.4537 22.07C39.9037 22.07 41.1837 21.23 41.1837 19.46V15.05H40.0437V19.48C40.0437 20.56 39.4337 21.07 38.4637 21.07C37.5037 21.07 36.8937 20.56 36.8937 19.48V15.05H35.7537V19.46ZM45.918 19.12C47.088 18.83 47.528 17.95 47.528 17.13C47.528 16 46.718 15.05 45.068 15.05H42.668V22H43.808V19.22H44.678L46.278 22H47.638L45.918 19.12ZM45.068 15.98C45.958 15.98 46.358 16.43 46.358 17.13C46.358 17.82 45.958 18.31 45.068 18.31H43.808V15.98H45.068ZM48.9863 22H50.1263V15.05H48.9863V22ZM51.263 15.98H53.123V22H54.263V15.98H56.113V15.05H51.263V15.98ZM59.5476 18.46L57.9376 15.05H56.6676L58.9776 19.48V22H60.1176V19.48L62.4176 15.05H61.1576L59.5476 18.46ZM68.3199 19.18C70.1299 19.18 70.7799 18.11 70.7799 17.12C70.7799 15.99 69.9699 15.05 68.3199 15.05H65.9199V22H67.0599V19.18H68.3199ZM67.0599 18.25V15.98H68.3199C69.2099 15.98 69.6099 16.4 69.6099 17.12C69.6099 17.82 69.2099 18.25 68.3199 18.25H67.0599ZM77.7572 22L75.2672 15.04H73.9472L71.4572 22H72.6472L73.1472 20.58H76.0572L76.5572 22H77.7572ZM74.6072 16.42L75.7372 19.65H73.4672L74.6072 16.42ZM82.0898 19.12C83.2598 18.83 83.6998 17.95 83.6998 17.13C83.6998 16 82.8898 15.05 81.2398 15.05H78.8398V22H79.9798V19.22H80.8498L82.4498 22H83.8098L82.0898 19.12ZM81.2398 15.98C82.1298 15.98 82.5298 16.43 82.5298 17.13C82.5298 17.82 82.1298 18.31 81.2398 18.31H79.9798V15.98H81.2398ZM84.7982 15.98H86.6582V22H87.7982V15.98H89.6482V15.05H84.7982V15.98ZM95.3727 15.04V20.22L91.9427 15.04H90.8027V22H91.9427V16.81L95.3727 22H96.5127V15.04H95.3727ZM101.85 15.04H98.0098V22H101.85V21.07H99.1498V18.94H101.55V18.01H99.1498V15.97H101.85V15.04ZM106.504 19.12C107.674 18.83 108.114 17.95 108.114 17.13C108.114 16 107.304 15.05 105.654 15.05H103.254V22H104.394V19.22H105.264L106.864 22H108.224L106.504 19.12ZM105.654 15.98C106.544 15.98 106.944 16.43 106.944 17.13C106.944 17.82 106.544 18.31 105.654 18.31H104.394V15.98H105.654ZM111.862 22.07C113.412 22.07 114.262 21.07 114.262 20.03C114.262 17.49 110.582 18.47 110.582 16.9C110.582 16.23 111.092 15.91 111.752 15.93C112.472 15.95 112.882 16.38 112.922 16.85H114.182C114.082 15.66 113.142 14.96 111.812 14.96C110.392 14.96 109.422 15.72 109.422 16.94C109.422 19.5 113.112 18.41 113.112 20.09C113.112 20.68 112.662 21.11 111.862 21.11C111.072 21.11 110.672 20.65 110.622 20.08H109.402C109.402 21.31 110.472 22.07 111.862 22.07Z" fill="#656565"/>
<path d="M330.47 18.43C331.14 18.19 331.65 17.68 331.65 16.84C331.65 15.86 330.87 15.05 329.4 15.05H326.75V22H329.53C330.95 22 331.81 21.19 331.81 20.13C331.81 19.3 331.22 18.56 330.47 18.43ZM329.3 15.98C330.04 15.98 330.49 16.35 330.49 16.98C330.49 17.62 330.04 17.97 329.3 17.97H327.89V15.98H329.3ZM327.89 21.07V18.9H329.39C330.15 18.9 330.67 19.32 330.67 20.01C330.67 20.68 330.2 21.07 329.43 21.07H327.89ZM338.939 22L336.449 15.04H335.129L332.639 22H333.829L334.329 20.58H337.239L337.739 22H338.939ZM335.789 16.42L336.919 19.65H334.649L335.789 16.42ZM344.591 15.04V20.22L341.161 15.04H340.021V22H341.161V16.81L344.591 22H345.731V15.04H344.591ZM349.479 18.53L352.499 15.05H351.069L348.369 18.22V15.05H347.229V22H348.369V18.89L351.059 22H352.549L349.479 18.53ZM353.557 22H354.697V15.05H353.557V22ZM360.763 15.04V20.22L357.333 15.04H356.193V22H357.333V16.81L360.763 22H361.903V15.04H360.763ZM369.8 17.05C369.27 15.69 368.02 14.96 366.57 14.96C364.61 14.96 363.02 16.43 363.02 18.51C363.02 20.6 364.61 22.06 366.57 22.06C368.44 22.06 369.8 20.69 370.01 19.08V18.19H366.18V19.1H368.79C368.62 20.27 367.83 21.03 366.57 21.03C365.19 21.03 364.19 20.04 364.19 18.51C364.19 16.98 365.19 16 366.57 16C367.4 16 368.06 16.35 368.43 17.05H369.8ZM376.132 19.18C377.942 19.18 378.592 18.11 378.592 17.12C378.592 15.99 377.782 15.05 376.132 15.05H373.732V22H374.872V19.18H376.132ZM374.872 18.25V15.98H376.132C377.022 15.98 377.422 16.4 377.422 17.12C377.422 17.82 377.022 18.25 376.132 18.25H374.872ZM385.57 22L383.08 15.04H381.76L379.27 22H380.46L380.96 20.58H383.87L384.37 22H385.57ZM382.42 16.42L383.55 19.65H381.28L382.42 16.42ZM389.902 19.12C391.072 18.83 391.512 17.95 391.512 17.13C391.512 16 390.702 15.05 389.052 15.05H386.652V22H387.792V19.22H388.662L390.262 22H391.622L389.902 19.12ZM389.052 15.98C389.942 15.98 390.342 16.43 390.342 17.13C390.342 17.82 389.942 18.31 389.052 18.31H387.792V15.98H389.052ZM392.611 15.98H394.471V22H395.611V15.98H397.461V15.05H392.611V15.98ZM403.185 15.04V20.22L399.755 15.04H398.615V22H399.755V16.81L403.185 22H404.325V15.04H403.185ZM409.662 15.04H405.822V22H409.662V21.07H406.962V18.94H409.362V18.01H406.962V15.97H409.662V15.04ZM414.316 19.12C415.486 18.83 415.926 17.95 415.926 17.13C415.926 16 415.116 15.05 413.466 15.05H411.066V22H412.206V19.22H413.076L414.676 22H416.036L414.316 19.12ZM413.466 15.98C414.356 15.98 414.756 16.43 414.756 17.13C414.756 17.82 414.356 18.31 413.466 18.31H412.206V15.98H413.466ZM419.675 22.07C421.225 22.07 422.075 21.07 422.075 20.03C422.075 17.49 418.395 18.47 418.395 16.9C418.395 16.23 418.905 15.91 419.565 15.93C420.285 15.95 420.695 16.38 420.735 16.85H421.995C421.895 15.66 420.955 14.96 419.625 14.96C418.205 14.96 417.235 15.72 417.235 16.94C417.235 19.5 420.925 18.41 420.925 20.09C420.925 20.68 420.475 21.11 419.675 21.11C418.885 21.11 418.485 20.65 418.435 20.08H417.215C417.215 21.31 418.285 22.07 419.675 22.07Z" fill="#656565"/>
<path d="M276.5 68C267.94 68 261 61.0604 261 52.5C261 43.9396 267.94 37 276.5 37C285.06 37 292 43.9396 292 52.5C292 61.0604 285.06 68 276.5 68Z" fill="url(#paint0_linear_441_993)"/>
<path d="M273.51 41.3382C279.674 39.6866 286.01 43.3445 287.661 49.5085C289.313 55.6724 285.655 62.0082 279.491 63.6599C273.327 65.3115 266.991 61.6535 265.34 55.4896C263.688 49.3256 267.346 42.9898 273.51 41.3382Z" fill="url(#paint1_linear_441_993)"/>
<path d="M270.733 49.3074H268.627L268.149 50.6619H267.738L269.494 45.8281H269.867L271.622 50.6619H271.215L270.733 49.3074ZM268.748 48.9588H270.609L269.679 46.3261L268.748 48.9588Z" fill="white"/>
<path d="M272.785 50.6619H272.394V45.8281H272.785V50.6619Z" fill="white"/>
<path d="M277.332 49.1546C277.279 49.6637 277.104 50.0532 276.807 50.3232C276.511 50.5933 276.117 50.7283 275.624 50.7283C275.28 50.7283 274.976 50.6386 274.71 50.4594C274.447 50.2801 274.243 50.0267 274.098 49.6991C273.954 49.3693 273.881 48.9931 273.878 48.5703V47.9429C273.878 47.5135 273.951 47.1328 274.095 46.8008C274.239 46.4689 274.447 46.2132 274.716 46.0339C274.988 45.8525 275.301 45.7617 275.653 45.7617C276.15 45.7617 276.542 45.9023 276.829 46.1833C277.118 46.4622 277.286 46.8484 277.332 47.342H276.937C276.84 46.5209 276.412 46.1103 275.653 46.1103C275.233 46.1103 274.897 46.2741 274.646 46.6016C274.398 46.9292 274.273 47.3818 274.273 47.9595V48.5504C274.273 49.1082 274.395 49.553 274.637 49.885C274.881 50.217 275.21 50.383 275.624 50.383C276.034 50.383 276.344 50.2812 276.552 50.0776C276.76 49.8717 276.888 49.5641 276.937 49.1546H277.332Z" fill="white"/>
<path d="M278.677 48.6932V50.6619H278.285V45.8281H279.866C280.348 45.8281 280.728 45.9565 281.006 46.2132C281.287 46.47 281.427 46.823 281.427 47.2723C281.427 47.726 281.292 48.0768 281.022 48.3247C280.755 48.5703 280.366 48.6932 279.856 48.6932H278.677ZM278.677 48.3479H279.866C280.246 48.3479 280.536 48.2538 280.735 48.0657C280.935 47.8776 281.035 47.6153 281.035 47.2789C281.035 46.9447 280.935 46.6791 280.735 46.4821C280.538 46.2829 280.256 46.1811 279.891 46.1767H278.677V48.3479Z" fill="white"/>
<path d="M284.371 49.3074H282.265L281.787 50.6619H281.376L283.132 45.8281H283.504L285.26 50.6619H284.852L284.371 49.3074ZM282.386 48.9588H284.247L283.316 46.3261L282.386 48.9588Z" fill="white"/>
<path d="M273.451 57.3112C273.451 57.0433 273.361 56.832 273.181 56.6771C273 56.5199 272.67 56.3716 272.19 56.2322C271.71 56.0905 271.359 55.9367 271.138 55.7707C270.824 55.5361 270.667 55.2285 270.667 54.8478C270.667 54.4782 270.812 54.1783 271.103 53.9481C271.396 53.7157 271.77 53.5995 272.225 53.5995C272.533 53.5995 272.808 53.6615 273.05 53.7854C273.294 53.9094 273.483 54.082 273.617 54.3033C273.751 54.5247 273.818 54.7714 273.818 55.0437H273.423C273.423 54.7139 273.314 54.4494 273.098 54.2502C272.881 54.0488 272.59 53.9481 272.225 53.9481C271.87 53.9481 271.587 54.0311 271.377 54.1971C271.167 54.3609 271.062 54.5756 271.062 54.8412C271.062 55.0868 271.156 55.2871 271.345 55.4421C271.534 55.597 271.837 55.7342 272.253 55.8537C272.67 55.971 272.985 56.0939 273.2 56.2222C273.414 56.3484 273.576 56.5 273.684 56.6771C273.792 56.8541 273.847 57.0633 273.847 57.3045C273.847 57.6852 273.7 57.9906 273.407 58.2208C273.116 58.451 272.731 58.5661 272.253 58.5661C271.926 58.5661 271.626 58.5052 271.352 58.3835C271.08 58.2617 270.873 58.0913 270.73 57.8722C270.59 57.6531 270.52 57.4019 270.52 57.1186H270.912C270.912 57.4594 271.034 57.7283 271.278 57.9253C271.523 58.1223 271.848 58.2208 272.253 58.2208C272.614 58.2208 272.904 58.1378 273.123 57.9718C273.342 57.8058 273.451 57.5856 273.451 57.3112Z" fill="white"/>
<path d="M278.123 56.3451C278.123 56.7899 278.048 57.1806 277.9 57.517C277.753 57.8534 277.543 58.1123 277.269 58.2938C276.995 58.4753 276.678 58.5661 276.319 58.5661C275.777 58.5661 275.34 58.3647 275.006 57.9618C274.673 57.5568 274.506 57.0113 274.506 56.3251V55.8272C274.506 55.3867 274.58 54.9972 274.729 54.6586C274.88 54.3177 275.092 54.0566 275.366 53.8751C275.64 53.6914 275.956 53.5995 276.313 53.5995C276.67 53.5995 276.984 53.6892 277.256 53.8684C277.53 54.0477 277.741 54.3011 277.89 54.6287C278.039 54.9562 278.116 55.3358 278.123 55.7674V56.3451ZM277.731 55.8205C277.731 55.2384 277.604 54.7825 277.352 54.4527C277.099 54.123 276.752 53.9581 276.313 53.9581C275.882 53.9581 275.537 54.1241 275.28 54.456C275.025 54.7858 274.898 55.2473 274.898 55.8404V56.3451C274.898 56.9183 275.025 57.3731 275.28 57.7095C275.535 58.0437 275.882 58.2108 276.319 58.2108C276.763 58.2108 277.109 58.046 277.358 57.7162C277.606 57.3842 277.731 56.9227 277.731 56.3318V55.8205Z" fill="white"/>
<path d="M282.395 56.9924C282.342 57.5015 282.167 57.891 281.87 58.161C281.574 58.4311 281.18 58.5661 280.688 58.5661C280.343 58.5661 280.039 58.4764 279.773 58.2972C279.51 58.1179 279.306 57.8645 279.161 57.5369C279.017 57.2071 278.944 56.8309 278.941 56.4081V55.7807C278.941 55.3513 279.014 54.9706 279.158 54.6386C279.303 54.3067 279.51 54.051 279.78 53.8718C280.051 53.6903 280.364 53.5995 280.716 53.5995C281.213 53.5995 281.605 53.7401 281.892 54.0211C282.181 54.3 282.349 54.6862 282.395 55.1798H282C281.903 54.3587 281.475 53.9481 280.716 53.9481C280.296 53.9481 279.96 54.1119 279.709 54.4395C279.461 54.767 279.337 55.2196 279.337 55.7973V56.3882C279.337 56.946 279.458 57.3908 279.7 57.7228C279.944 58.0548 280.273 58.2208 280.688 58.2208C281.098 58.2208 281.407 58.119 281.615 57.9154C281.823 57.7095 281.952 57.4019 282 56.9924H282.395Z" fill="white"/>
<path d="M271.014 60.9553C271.004 60.9313 270.998 60.8957 270.996 60.8486C270.963 60.8872 270.921 60.9171 270.87 60.9384C270.819 60.9591 270.765 60.9694 270.708 60.9694C270.627 60.9694 270.56 60.949 270.51 60.908C270.46 60.867 270.435 60.8151 270.435 60.7525C270.435 60.678 270.469 60.6191 270.537 60.5758C270.606 60.5324 270.702 60.5108 270.825 60.5108H270.995V60.4238C270.995 60.3692 270.976 60.3263 270.939 60.2952C270.901 60.2636 270.847 60.2478 270.775 60.2478C270.71 60.2478 270.656 60.2629 270.613 60.2931C270.57 60.3232 270.549 60.3595 270.549 60.4019L270.455 60.4012C270.455 60.3404 270.486 60.2879 270.549 60.2436C270.612 60.1988 270.689 60.1764 270.78 60.1764C270.875 60.1764 270.949 60.1979 271.004 60.2408C271.058 60.2832 271.087 60.3425 271.088 60.4189V60.7807C271.088 60.8547 271.097 60.9101 271.114 60.9468V60.9553H271.014ZM270.719 60.8945C270.782 60.8945 270.838 60.8809 270.887 60.8535C270.936 60.8262 270.972 60.7897 270.995 60.744V60.5758H270.827C270.734 60.5767 270.661 60.5923 270.608 60.6224C270.555 60.6521 270.529 60.6931 270.529 60.7454C270.529 60.7883 270.546 60.8239 270.581 60.8521C270.617 60.8804 270.663 60.8945 270.719 60.8945Z" fill="white"/>
<path d="M271.444 60.9553H271.35V60.1906H271.444V60.9553ZM271.333 59.9694C271.333 59.9533 271.339 59.9399 271.351 59.9291C271.362 59.9178 271.378 59.9121 271.398 59.9121C271.418 59.9121 271.433 59.9178 271.445 59.9291C271.457 59.9399 271.463 59.9533 271.463 59.9694C271.463 59.9854 271.457 59.9988 271.445 60.0096C271.433 60.0205 271.418 60.0259 271.398 60.0259C271.378 60.0259 271.362 60.0205 271.351 60.0096C271.339 59.9988 271.333 59.9854 271.333 59.9694Z" fill="white"/>
<path d="M272.013 60.8981C272.078 60.8981 272.133 60.8816 272.177 60.8486C272.221 60.8151 272.245 60.772 272.249 60.7193H272.339C272.336 60.7659 272.32 60.8085 272.29 60.8472C272.261 60.8853 272.221 60.9153 272.171 60.9369C272.122 60.9586 272.069 60.9694 272.013 60.9694C271.902 60.9694 271.813 60.9346 271.748 60.8648C271.683 60.7951 271.651 60.7013 271.651 60.5835V60.5581C271.651 60.4827 271.666 60.416 271.695 60.3581C271.724 60.3001 271.766 60.2554 271.82 60.2238C271.875 60.1922 271.939 60.1764 272.012 60.1764C272.105 60.1764 272.182 60.2014 272.242 60.2514C272.302 60.3013 272.335 60.367 272.339 60.4486H272.249C272.245 60.3887 272.221 60.3404 272.177 60.3037C272.133 60.2669 272.079 60.2485 272.012 60.2485C271.928 60.2485 271.862 60.2761 271.815 60.3312C271.768 60.3864 271.745 60.4636 271.745 60.5631V60.5878C271.745 60.6853 271.768 60.7614 271.815 60.8161C271.862 60.8707 271.928 60.8981 272.013 60.8981Z" fill="white"/>
<path d="M273.209 60.5807C273.209 60.6999 273.18 60.7946 273.121 60.8648C273.063 60.9346 272.984 60.9694 272.886 60.9694C272.77 60.9694 272.681 60.9327 272.62 60.8592V61.2493H272.526V60.1906H272.613L272.618 60.2987C272.679 60.2172 272.768 60.1764 272.884 60.1764C272.985 60.1764 273.064 60.2111 273.122 60.2803C273.18 60.3496 273.209 60.4457 273.209 60.5687V60.5807ZM273.115 60.5659C273.115 60.4683 273.093 60.3913 273.048 60.3348C273.004 60.2782 272.942 60.2499 272.863 60.2499C272.805 60.2499 272.756 60.2624 272.714 60.2874C272.673 60.3124 272.642 60.3487 272.62 60.3963V60.7631C272.642 60.8069 272.674 60.8403 272.716 60.8634C272.758 60.8865 272.807 60.8981 272.864 60.8981C272.943 60.8981 273.004 60.8698 273.048 60.8133C273.093 60.7562 273.115 60.6738 273.115 60.5659Z" fill="white"/>
<path d="M273.953 60.9553C273.943 60.9313 273.937 60.8957 273.935 60.8486C273.902 60.8872 273.86 60.9171 273.808 60.9384C273.758 60.9591 273.704 60.9694 273.647 60.9694C273.566 60.9694 273.499 60.949 273.449 60.908C273.399 60.867 273.374 60.8151 273.374 60.7525C273.374 60.678 273.408 60.6191 273.476 60.5758C273.545 60.5324 273.641 60.5108 273.764 60.5108H273.934V60.4238C273.934 60.3692 273.915 60.3263 273.877 60.2952C273.84 60.2636 273.786 60.2478 273.714 60.2478C273.649 60.2478 273.595 60.2629 273.552 60.2931C273.509 60.3232 273.488 60.3595 273.488 60.4019L273.394 60.4012C273.394 60.3404 273.425 60.2879 273.488 60.2436C273.551 60.1988 273.628 60.1764 273.719 60.1764C273.814 60.1764 273.888 60.1979 273.943 60.2408C273.997 60.2832 274.026 60.3425 274.027 60.4189V60.7807C274.027 60.8547 274.036 60.9101 274.053 60.9468V60.9553H273.953ZM273.658 60.8945C273.721 60.8945 273.777 60.8809 273.826 60.8535C273.875 60.8262 273.911 60.7897 273.934 60.744V60.5758H273.766C273.673 60.5767 273.599 60.5923 273.547 60.6224C273.494 60.6521 273.468 60.6931 273.468 60.7454C273.468 60.7883 273.485 60.8239 273.52 60.8521C273.556 60.8804 273.602 60.8945 273.658 60.8945Z" fill="white"/>
<path d="M274.269 60.9044C274.269 60.8879 274.275 60.874 274.287 60.8627C274.299 60.8509 274.315 60.8451 274.336 60.8451C274.357 60.8451 274.373 60.8509 274.385 60.8627C274.397 60.874 274.403 60.8879 274.403 60.9044C274.403 60.9209 274.397 60.9346 274.385 60.9454C274.373 60.9558 274.357 60.961 274.336 60.961C274.315 60.961 274.299 60.9558 274.287 60.9454C274.275 60.9346 274.269 60.9209 274.269 60.9044Z" fill="white"/>
<path d="M274.61 60.5616C274.61 60.4881 274.626 60.4219 274.657 60.363C274.689 60.3041 274.734 60.2584 274.791 60.2259C274.849 60.1929 274.915 60.1764 274.988 60.1764C275.101 60.1764 275.192 60.2123 275.262 60.2839C275.332 60.355 275.367 60.4495 275.367 60.5673V60.585C275.367 60.6589 275.351 60.7256 275.32 60.785C275.288 60.8439 275.244 60.8893 275.186 60.9214C275.129 60.9534 275.063 60.9694 274.99 60.9694C274.877 60.9694 274.786 60.9339 274.715 60.8627C274.645 60.7911 274.61 60.6964 274.61 60.5786V60.5616ZM274.704 60.585C274.704 60.6764 274.73 60.7515 274.783 60.8104C274.835 60.8689 274.904 60.8981 274.99 60.8981C275.074 60.8981 275.143 60.8689 275.195 60.8104C275.248 60.7515 275.274 60.674 275.274 60.5779V60.5616C275.274 60.5032 275.262 60.4497 275.238 60.4012C275.214 60.3527 275.18 60.3152 275.137 60.2888C275.094 60.262 275.044 60.2485 274.988 60.2485C274.904 60.2485 274.836 60.2782 274.783 60.3376C274.731 60.3965 274.704 60.4738 274.704 60.5694V60.585Z" fill="white"/>
<path d="M275.954 60.2627C275.934 60.2594 275.913 60.2577 275.89 60.2577C275.832 60.2577 275.782 60.2726 275.741 60.3023C275.701 60.3315 275.672 60.3741 275.655 60.4302V60.9553H275.562V60.1906H275.653L275.655 60.3121C275.705 60.2217 275.784 60.1764 275.894 60.1764C275.92 60.1764 275.941 60.1795 275.956 60.1856L275.954 60.2627Z" fill="white"/>
<path d="M276.049 60.5659C276.049 60.4462 276.078 60.3515 276.137 60.2818C276.196 60.2115 276.276 60.1764 276.377 60.1764C276.492 60.1764 276.58 60.2179 276.64 60.3008L276.645 60.1906H276.733V60.9398C276.733 61.0382 276.702 61.1162 276.641 61.1737C276.58 61.2312 276.497 61.2599 276.392 61.2599C276.333 61.2599 276.277 61.2479 276.223 61.2239C276.17 61.2003 276.128 61.1688 276.097 61.1292L276.149 61.0783C276.216 61.1518 276.295 61.1886 276.386 61.1886C276.465 61.1886 276.526 61.1676 276.57 61.1256C276.613 61.0842 276.636 61.0265 276.638 60.9525V60.8564C276.578 60.9318 276.49 60.9694 276.375 60.9694C276.277 60.9694 276.198 60.9341 276.138 60.8634C276.079 60.7928 276.049 60.6973 276.049 60.5772V60.5659ZM276.144 60.5807C276.144 60.6783 276.166 60.7553 276.209 60.8118C276.252 60.8679 276.314 60.8959 276.392 60.8959C276.508 60.8959 276.59 60.8493 276.638 60.756V60.4005C276.616 60.3515 276.584 60.3143 276.543 60.2888C276.502 60.2629 276.452 60.2499 276.394 60.2499C276.315 60.2499 276.254 60.278 276.21 60.3341C276.166 60.3897 276.144 60.4719 276.144 60.5807Z" fill="white"/>
<path d="M276.964 61.0437H276.878L277.355 59.9262H277.439L276.964 61.0437Z" fill="white"/>
<path d="M278.123 60.7609C278.123 60.719 278.104 60.6853 278.066 60.6599C278.029 60.6344 277.973 60.6146 277.898 60.6005C277.823 60.5859 277.764 60.5694 277.722 60.551C277.681 60.5322 277.65 60.5093 277.63 60.4825C277.61 60.4556 277.6 60.4231 277.6 60.3849C277.6 60.3246 277.628 60.2749 277.684 60.2358C277.74 60.1962 277.811 60.1764 277.899 60.1764C277.993 60.1764 278.069 60.1976 278.126 60.2401C278.183 60.282 278.212 60.3369 278.212 60.4047H278.118C278.118 60.36 278.097 60.3227 278.055 60.2931C278.014 60.2634 277.962 60.2485 277.899 60.2485C277.837 60.2485 277.787 60.261 277.75 60.286C277.713 60.3105 277.694 60.3425 277.694 60.3821C277.694 60.4203 277.71 60.45 277.74 60.4712C277.772 60.4919 277.828 60.511 277.91 60.5284C277.993 60.5459 278.055 60.5645 278.095 60.5843C278.137 60.604 278.167 60.6278 278.187 60.6556C278.207 60.6834 278.217 60.7171 278.217 60.7567C278.217 60.8213 278.188 60.8729 278.13 60.9115C278.072 60.9501 277.997 60.9694 277.904 60.9694C277.805 60.9694 277.725 60.948 277.664 60.9051C277.602 60.8618 277.572 60.8071 277.572 60.7412H277.666C277.67 60.7906 277.693 60.8293 277.735 60.8571C277.778 60.8844 277.834 60.8981 277.904 60.8981C277.97 60.8981 278.022 60.8851 278.063 60.8592C278.103 60.8333 278.123 60.8005 278.123 60.7609Z" fill="white"/>
<path d="M278.377 60.5616C278.377 60.4881 278.392 60.4219 278.424 60.363C278.456 60.3041 278.5 60.2584 278.558 60.2259C278.616 60.1929 278.681 60.1764 278.755 60.1764C278.867 60.1764 278.959 60.2123 279.029 60.2839C279.099 60.355 279.134 60.4495 279.134 60.5673V60.585C279.134 60.6589 279.118 60.7256 279.086 60.785C279.055 60.8439 279.01 60.8893 278.953 60.9214C278.895 60.9534 278.83 60.9694 278.756 60.9694C278.644 60.9694 278.552 60.9339 278.482 60.8627C278.412 60.7911 278.377 60.6964 278.377 60.5786V60.5616ZM278.471 60.585C278.471 60.6764 278.497 60.7515 278.549 60.8104C278.602 60.8689 278.671 60.8981 278.756 60.8981C278.841 60.8981 278.909 60.8689 278.961 60.8104C279.014 60.7515 279.041 60.674 279.041 60.5779V60.5616C279.041 60.5032 279.029 60.4497 279.005 60.4012C278.981 60.3527 278.947 60.3152 278.903 60.2888C278.86 60.262 278.81 60.2485 278.755 60.2485C278.671 60.2485 278.603 60.2782 278.55 60.3376C278.497 60.3965 278.471 60.4738 278.471 60.5694V60.585Z" fill="white"/>
<path d="M279.642 60.8981C279.707 60.8981 279.762 60.8816 279.806 60.8486C279.85 60.8151 279.874 60.772 279.878 60.7193H279.968C279.965 60.7659 279.949 60.8085 279.919 60.8472C279.889 60.8853 279.85 60.9153 279.8 60.9369C279.751 60.9586 279.698 60.9694 279.642 60.9694C279.53 60.9694 279.442 60.9346 279.377 60.8648C279.312 60.7951 279.28 60.7013 279.28 60.5835V60.5581C279.28 60.4827 279.294 60.416 279.324 60.3581C279.353 60.3001 279.395 60.2554 279.449 60.2238C279.504 60.1922 279.568 60.1764 279.641 60.1764C279.734 60.1764 279.81 60.2014 279.871 60.2514C279.931 60.3013 279.964 60.367 279.968 60.4486H279.878C279.873 60.3887 279.849 60.3404 279.806 60.3037C279.762 60.2669 279.707 60.2485 279.641 60.2485C279.556 60.2485 279.49 60.2761 279.443 60.3312C279.397 60.3864 279.374 60.4636 279.374 60.5631V60.5878C279.374 60.6853 279.397 60.7614 279.443 60.8161C279.49 60.8707 279.557 60.8981 279.642 60.8981Z" fill="white"/>
<path d="M280.717 60.6238H280.895V60.6952H280.717V60.9553H280.623V60.6952H280.086V60.6472L280.614 59.9262H280.717V60.6238ZM280.201 60.6238H280.623V60.0358L280.581 60.1008L280.201 60.6238Z" fill="white"/>
<path d="M281.554 60.7609C281.554 60.719 281.535 60.6853 281.498 60.6599C281.46 60.6344 281.404 60.6146 281.329 60.6005C281.254 60.5859 281.195 60.5694 281.154 60.551C281.112 60.5322 281.081 60.5093 281.061 60.4825C281.041 60.4556 281.031 60.4231 281.031 60.3849C281.031 60.3246 281.059 60.2749 281.115 60.2358C281.171 60.1962 281.243 60.1764 281.33 60.1764C281.424 60.1764 281.5 60.1976 281.557 60.2401C281.615 60.282 281.643 60.3369 281.643 60.4047H281.549C281.549 60.36 281.528 60.3227 281.487 60.2931C281.445 60.2634 281.393 60.2485 281.33 60.2485C281.268 60.2485 281.219 60.261 281.181 60.286C281.144 60.3105 281.125 60.3425 281.125 60.3821C281.125 60.4203 281.141 60.45 281.172 60.4712C281.203 60.4919 281.26 60.511 281.342 60.5284C281.424 60.5459 281.486 60.5645 281.527 60.5843C281.568 60.604 281.598 60.6278 281.618 60.6556C281.638 60.6834 281.648 60.7171 281.648 60.7567C281.648 60.8213 281.619 60.8729 281.561 60.9115C281.504 60.9501 281.428 60.9694 281.335 60.9694C281.237 60.9694 281.156 60.948 281.095 60.9051C281.034 60.8618 281.003 60.8071 281.003 60.7412H281.097C281.101 60.7906 281.124 60.8293 281.166 60.8571C281.209 60.8844 281.265 60.8981 281.335 60.8981C281.401 60.8981 281.453 60.8851 281.494 60.8592C281.534 60.8333 281.554 60.8005 281.554 60.7609Z" fill="white"/>
<path d="M281.808 60.5616C281.808 60.4881 281.824 60.4219 281.855 60.363C281.887 60.3041 281.931 60.2584 281.989 60.2259C282.047 60.1929 282.113 60.1764 282.186 60.1764C282.299 60.1764 282.39 60.2123 282.46 60.2839C282.53 60.355 282.565 60.4495 282.565 60.5673V60.585C282.565 60.6589 282.549 60.7256 282.517 60.785C282.486 60.8439 282.441 60.8893 282.384 60.9214C282.326 60.9534 282.261 60.9694 282.187 60.9694C282.075 60.9694 281.983 60.9339 281.913 60.8627C281.843 60.7911 281.808 60.6964 281.808 60.5786V60.5616ZM281.902 60.585C281.902 60.6764 281.928 60.7515 281.98 60.8104C282.033 60.8689 282.102 60.8981 282.187 60.8981C282.272 60.8981 282.34 60.8689 282.393 60.8104C282.445 60.7515 282.472 60.674 282.472 60.5779V60.5616C282.472 60.5032 282.46 60.4497 282.436 60.4012C282.412 60.3527 282.378 60.3152 282.335 60.2888C282.291 60.262 282.242 60.2485 282.186 60.2485C282.102 60.2485 282.034 60.2782 281.981 60.3376C281.928 60.3965 281.902 60.4738 281.902 60.5694V60.585Z" fill="white"/>
<path fill-rule="evenodd" clip-rule="evenodd" d="M148.063 40.3362C140.095 40.7954 124.201 41.6988 124.092 41.6988C124.042 41.6988 124 41.7347 124 41.7784C124 41.895 132.219 64.2531 132.288 64.3243C132.321 64.3574 134.575 63.6816 137.299 62.8224C140.023 61.9632 143.584 60.8438 145.213 60.3349C146.842 59.826 148.201 59.3848 148.234 59.3545C148.267 59.3242 148.178 59.1072 148.036 58.8723C147.894 58.6374 147.701 58.2011 147.606 57.9028L147.434 57.3604L146.583 57.3578C145.55 57.3545 144.478 57.2091 143.584 56.9514C141.835 56.4472 140.574 55.244 140.18 53.7045C140.037 53.1462 140.031 51.699 140.17 51.1783C140.491 49.9783 141.333 48.9292 142.522 48.2499C143.466 47.7105 145.008 47.3862 146.62 47.3881C147.757 47.3894 148.386 47.4588 148.996 47.6503L149.396 47.7758V49.0583C149.396 49.7637 149.386 50.3408 149.373 50.3408C149.36 50.3408 149.171 50.2549 148.953 50.1499C147.725 49.5587 146.073 49.532 145.122 50.0879C144.097 50.6875 143.608 51.9352 143.946 53.0931C144.244 54.1152 145.331 54.9141 146.603 55.045C147.258 55.1125 148.741 54.8955 149.415 54.6338C149.608 54.5587 149.618 54.5655 149.618 54.7656C149.618 54.9534 149.654 54.9857 149.945 55.0587C150.125 55.1038 150.491 55.2549 150.759 55.3943L151.247 55.648V51.591V47.534H153.098H154.949L154.953 50.5439C154.957 53.5111 154.959 53.5512 155.097 53.3692C155.174 53.2676 155.793 52.4034 156.472 51.4487C157.152 50.4941 157.806 49.5878 157.927 49.4349L158.147 49.1568L156.086 44.5784L154.025 40L153.802 40.0092C153.68 40.0143 151.097 40.1615 148.063 40.3362ZM154.024 42.5376C154.873 42.9331 155.253 43.4758 155.305 44.3663C155.335 44.8829 155.317 44.9895 155.141 45.3485C154.775 46.0952 154.128 46.5049 153.233 46.5583C152.53 46.6002 152.039 46.4442 151.566 46.0291C150.391 44.9969 150.658 43.2533 152.096 42.5748C152.693 42.293 153.467 42.2781 154.024 42.5376ZM175.644 43.5713C174.383 43.8986 173.684 44.7561 173.774 45.8671C173.794 46.1172 173.862 46.4225 173.926 46.5454C174.26 47.1888 175.121 47.688 176.517 48.0472C177.763 48.3675 178.05 48.5528 178.05 49.0351C178.05 49.3361 177.627 49.7455 177.299 49.7632C176.379 49.8124 175.96 49.5584 175.755 48.8261L175.659 48.4862L175.281 48.5252C175.073 48.5465 174.575 48.5849 174.173 48.6105L173.443 48.6569L173.489 48.9441C173.643 49.9027 174.251 50.7083 175.039 50.9973C176.212 51.4275 177.974 51.3822 178.934 50.8972C179.992 50.3621 180.552 49.1678 180.243 48.1058C179.957 47.1241 179.233 46.6432 177.334 46.1729C176.17 45.8844 175.901 45.7474 175.905 45.4445C175.912 44.9591 176.634 44.7148 177.273 44.9813C177.539 45.092 177.827 45.4746 177.828 45.7171C177.828 45.8487 177.873 45.8544 178.55 45.8098C178.947 45.7835 179.451 45.7619 179.671 45.7617L180.069 45.7613L180.024 45.4294C179.918 44.6596 179.366 43.9871 178.597 43.6913C178.232 43.5509 177.988 43.5199 177.088 43.4995C176.371 43.4834 175.891 43.5072 175.644 43.5713ZM183.122 43.57C182.264 43.787 181.575 44.3463 181.349 45.0075C181.086 45.776 181.263 46.5216 181.835 47.0548C182.294 47.4837 182.877 47.7503 183.998 48.0448C185.249 48.3731 185.528 48.5541 185.528 49.0351C185.528 49.3359 185.106 49.7455 184.777 49.7634C183.873 49.8127 183.464 49.5762 183.264 48.8896L183.146 48.4852L182.764 48.5247C182.553 48.5463 182.053 48.585 181.651 48.6106L180.92 48.6571L180.965 48.9888C181.033 49.4844 181.409 50.2053 181.775 50.5418C182.714 51.4047 185.154 51.5626 186.499 50.8473C187.501 50.3146 188.023 49.1434 187.721 48.1058C187.436 47.1281 186.762 46.674 184.887 46.1955C183.455 45.8302 183.249 45.6885 183.463 45.2189C183.7 44.7011 184.816 44.7758 185.156 45.3322C185.238 45.4666 185.306 45.6398 185.306 45.7171C185.306 45.8487 185.351 45.8544 186.028 45.8098C186.425 45.7835 186.925 45.7619 187.139 45.7617C187.499 45.7613 187.527 45.7484 187.527 45.5851C187.527 44.8531 186.87 43.9904 186.084 43.69C185.708 43.5466 185.473 43.5169 184.566 43.4983C183.871 43.4841 183.361 43.5094 183.122 43.57ZM165.833 47.3824V51.1533L167.814 51.152C169.965 51.1506 170.488 51.0887 171.143 50.758C171.654 50.4994 172.297 49.7853 172.497 49.2539C172.94 48.0769 172.886 46.3444 172.372 45.2584C172.095 44.6725 171.462 44.0582 170.905 43.8348C170.474 43.6623 170.392 43.6564 168.147 43.6343L165.833 43.6115V47.3824ZM169.72 45.5068C170.201 45.7523 170.379 46.1946 170.413 47.2229C170.442 48.1309 170.359 48.6134 170.112 48.959C169.903 49.2518 169.618 49.3558 168.85 49.4188L168.203 49.4719V47.3875V45.303L168.813 45.3291C169.243 45.3476 169.512 45.4003 169.72 45.5068ZM163.29 46.55C162.9 46.6147 161.916 47.0732 161.448 47.4081C159.694 48.6626 157.796 51.0531 155.319 55.1271C153.624 57.9141 153.302 58.4329 153.202 58.5371C153.111 58.6315 153.008 58.5543 152.4 57.9385C151.527 57.0532 151.027 56.6251 150.465 56.2845C150.087 56.0547 149.981 56.0231 149.711 56.0584C148.938 56.1589 148.508 56.6035 148.508 57.3015C148.508 57.6836 148.537 57.7492 148.997 58.3971C150.179 60.0634 151.459 61.4735 152.009 61.7164C152.42 61.8979 153.404 61.9817 153.815 61.8703C154.384 61.7164 154.74 61.205 156.727 57.6901C158.301 54.9048 159.31 53.2231 160.228 51.855C161.888 49.3801 162.937 48.179 164.575 46.879C164.726 46.7591 164.742 46.7143 164.665 46.6358C164.568 46.5372 163.695 46.4828 163.29 46.55ZM136.402 47.7413C137.733 48.1051 138.556 48.6943 138.98 49.5855C139.2 50.0502 139.215 50.1346 139.215 50.8948C139.215 51.6202 139.194 51.7522 139.019 52.1264C138.388 53.4677 136.85 54.1982 134.403 54.3189L133.44 54.3663L133.42 55.8251L133.4 57.2839H131.551H129.701V52.4039V47.5238L132.755 47.5516C135.621 47.5777 135.846 47.5894 136.402 47.7413ZM133.385 49.6438C133.354 49.6751 133.329 50.264 133.329 50.9526V52.2046L134.06 52.1752C134.709 52.1492 134.825 52.123 135.103 51.9397C135.674 51.5629 135.868 50.7106 135.499 50.2031C135.257 49.87 134.713 49.6522 134.039 49.6176C133.709 49.6008 133.415 49.6126 133.385 49.6438ZM166.759 52.4759C166.382 52.5692 166.21 52.6977 166.056 52.9994C165.756 53.586 165.92 54.3467 166.418 54.6788C166.721 54.8809 167.352 54.9073 167.691 54.732C167.887 54.6312 168.202 54.237 168.202 54.0922C168.202 54.0633 168.064 54.0024 167.894 53.9568C167.635 53.8872 167.576 53.8921 167.522 53.9872C167.199 54.563 166.648 54.3699 166.648 53.6811C166.648 53.4812 166.698 53.257 166.763 53.164C166.914 52.9486 167.266 52.9438 167.415 53.1551C167.507 53.287 167.569 53.3027 167.826 53.2594C167.996 53.2309 168.129 53.1669 168.129 53.1141C168.129 52.9933 167.858 52.6492 167.697 52.5648C167.502 52.4629 167.003 52.4155 166.759 52.4759ZM169.21 52.4816C168.536 52.6956 168.239 53.5304 168.583 54.2406C168.954 55.0048 170.214 55.0622 170.7 54.3369C171.043 53.8242 170.869 52.8959 170.375 52.6119C170.098 52.4521 169.51 52.3863 169.21 52.4816ZM171.238 53.6646V54.8464H171.534H171.831L171.837 54.0155C171.845 53.1166 171.828 53.1021 172.14 54.2779L172.293 54.8542L172.557 54.8319L172.82 54.8095L173.01 54.0709L173.2 53.3322L173.237 54.0709L173.274 54.8095H173.571H173.867L173.887 53.6428L173.908 52.4759L173.406 52.4979L172.904 52.5197L172.756 53.0862C172.583 53.7493 172.533 53.8249 172.471 53.517C172.446 53.3924 172.373 53.1088 172.308 52.8867L172.19 52.4828H171.714H171.238V53.6646ZM174.348 53.6646V54.8464H174.718H175.088V54.4124V53.9784L175.496 53.9446C176.169 53.8889 176.514 53.3887 176.242 52.8633C176.07 52.5317 175.922 52.4828 175.093 52.4828H174.348V53.6646ZM176.717 53.6669V54.851L177.624 54.8302L178.531 54.8095L178.554 54.5325L178.577 54.2555H178.017H177.458V53.3692V52.4828H177.088H176.717V53.6669ZM178.939 53.6687V54.8545L179.29 54.832L179.642 54.8095L179.662 53.6462L179.683 52.4828H179.311H178.939V53.6687ZM180.754 52.6087C180.451 53.3587 179.975 54.6624 179.975 54.7436C179.975 54.8164 180.074 54.8464 180.312 54.8464C180.62 54.8464 180.656 54.8273 180.727 54.6248C180.8 54.4162 180.827 54.4032 181.197 54.4032C181.567 54.4032 181.594 54.4162 181.667 54.6248C181.737 54.8256 181.775 54.8464 182.069 54.8464C182.248 54.8464 182.412 54.8281 182.435 54.8057C182.457 54.7833 182.283 54.2598 182.047 53.6424L181.619 52.5197L181.214 52.4979C180.88 52.4799 180.799 52.4995 180.754 52.6087ZM182.715 53.6646V54.8464H183.045H183.375L183.397 54.2181L183.418 53.5896L183.847 54.2181L184.276 54.8464H184.606H184.936V53.6646V52.4828H184.606H184.276L184.254 53.0922L184.233 53.7015L183.802 53.0922C183.373 52.4852 183.369 52.4828 183.043 52.4828H182.715V53.6646ZM185.246 52.7598C185.269 53.0338 185.273 53.037 185.618 53.0592L185.968 53.0816L185.989 53.9456L186.009 54.8095L186.361 54.832L186.713 54.8545V53.9641V53.0737H187.083H187.453V52.7783V52.4828H186.338H185.223L185.246 52.7598ZM169.98 53.1476C170.087 53.2543 170.127 53.3927 170.127 53.6462C170.125 54.0392 170.088 54.1223 169.855 54.2444C169.624 54.3658 169.551 54.3521 169.347 54.1481C169.079 53.8807 169.119 53.2548 169.417 53.0564C169.567 52.9561 169.83 52.9987 169.98 53.1476ZM175.57 53.2214C175.57 53.3758 175.53 53.4099 175.329 53.4292C175.104 53.4509 175.088 53.4375 175.088 53.2214C175.088 53.0054 175.104 52.9919 175.329 53.0137C175.53 53.033 175.57 53.0671 175.57 53.2214ZM181.365 53.8543C181.341 53.878 181.242 53.8865 181.145 53.8733C180.969 53.8493 180.969 53.8482 181.076 53.48L181.184 53.1106L181.296 53.461C181.357 53.6537 181.388 53.8307 181.365 53.8543ZM159.96 54.2571C159.636 54.6908 158.855 55.9605 158.891 55.9963C158.91 56.0156 160.417 55.5591 160.851 55.4025C160.913 55.3802 160.848 55.1578 160.639 54.6836C160.473 54.306 160.314 53.9723 160.287 53.9422C160.259 53.912 160.112 54.0537 159.96 54.2571Z" fill="#225E63"/>
<path fill-rule="evenodd" clip-rule="evenodd" d="M163.269 46.4521C162.879 46.5168 161.894 46.9753 161.426 47.3102C159.673 48.5647 157.775 50.9552 155.298 55.0292C153.603 57.8162 153.281 58.335 153.181 58.4392C153.09 58.5336 152.987 58.4564 152.379 57.8407C151.506 56.9553 151.005 56.5272 150.444 56.1866C150.066 55.9569 149.96 55.9252 149.689 55.9605C148.917 56.061 148.486 56.5056 148.486 57.2037C148.486 57.5857 148.516 57.6513 148.975 58.2992C150.158 59.9655 151.437 61.3756 151.988 61.6185C152.399 61.8 153.383 61.8838 153.794 61.7724C154.362 61.6185 154.719 61.1071 156.705 57.5923C158.28 54.807 159.289 53.1253 160.207 51.7571C161.867 49.2822 162.916 48.0811 164.553 46.7811C164.704 46.6612 164.721 46.6164 164.643 46.5379C164.546 46.4393 163.673 46.3849 163.269 46.4521Z" fill="#2BBC5D"/>
<path d="M214.743 45.8258V51.6514H217.688C220.903 51.6514 221.857 51.5806 222.686 51.2897C225.165 50.4092 226.498 47.7126 225.956 44.6544C225.592 42.6261 224.29 41.0773 222.422 40.4562C221.469 40.1339 220.903 40.0788 217.75 40.0395L214.743 40.0002V45.8258ZM221.213 41.777C221.919 41.9421 222.779 42.3666 223.22 42.7912C223.654 43.2 224.073 43.8997 224.282 44.5758C224.507 45.2991 224.507 46.6827 224.282 47.4139C223.84 48.8369 222.717 49.7881 221.213 50.0083C220.872 50.0554 219.633 50.1026 218.463 50.1105L216.332 50.1183L216.308 45.8415L216.293 41.5726L218.478 41.6119C220.067 41.6433 220.818 41.6826 221.213 41.777Z" fill="#003F40"/>
<path d="M234.139 40.1779C233.961 40.2093 233.558 40.3351 233.248 40.4452C231.179 41.1999 229.761 42.9924 229.552 45.1151C229.265 47.9139 230.738 50.3824 233.202 51.2551C235.007 51.8919 237.247 51.6954 238.804 50.7677C239.711 50.2174 240.858 48.9123 240.858 48.4249C240.858 48.3777 240.555 48.3462 240.098 48.3462H239.331L238.827 48.8415C238.277 49.384 237.479 49.8478 236.782 50.0365C236.201 50.1859 234.922 50.1859 234.279 50.0365C233.535 49.8557 232.907 49.4862 232.295 48.8573C231.621 48.1733 231.303 47.5443 231.133 46.5852C230.815 44.722 231.737 42.8823 233.403 42.0568C234.147 41.6873 234.589 41.5851 235.511 41.5851C236.913 41.5851 237.836 41.9546 238.75 42.898L239.308 43.4719H240.083C240.656 43.4719 240.858 43.4484 240.858 43.3697C240.858 43.1653 240.261 42.2534 239.835 41.821C239.044 41.0034 237.805 40.3351 236.758 40.1621C236.232 40.0757 234.589 40.0835 234.139 40.1779Z" fill="#003F40"/>
<path d="M226.445 45.8558V51.4141L227.786 51.3983L229.119 51.3748V45.8479V40.329L227.778 40.3054L226.445 40.2897V45.8558Z" fill="#003F40"/>
<path d="M219.323 52.0307C216.797 52.5731 214.883 54.3499 214.186 56.8028C213.938 57.6833 213.938 59.2714 214.186 60.1519C214.829 62.4397 216.526 64.1221 218.835 64.7825C219.571 64.9947 221.23 65.0262 222.028 64.8532C225.034 64.185 227.258 61.3469 227.126 58.3201L227.103 57.7305L223.678 57.7069L220.246 57.6912L220.207 57.8641C220.184 57.9663 220.176 58.383 220.184 58.7918L220.207 59.5387L222.322 59.5072L224.43 59.4758V59.6566C224.43 59.9711 223.918 60.7808 223.407 61.2761C222.361 62.2982 220.958 62.707 219.664 62.3689C218.518 62.0623 217.394 61.1189 216.867 60.0104C216.565 59.3893 216.565 59.3736 216.565 58.4302V57.4789L216.906 56.7792C218.184 54.1612 221.501 53.6345 223.516 55.7336L224.027 56.276H225.391C226.142 56.276 226.755 56.2524 226.755 56.221C226.755 56.0402 226.111 54.9159 225.708 54.4049C224.926 53.3986 223.849 52.6675 222.493 52.2272C221.927 52.0385 221.679 52.0071 220.749 51.9835C220.153 51.9678 219.509 51.9914 219.323 52.0307Z" fill="#003F40"/>
<path d="M233.743 52.0377C230.605 52.7059 228.436 55.3475 228.436 58.4843C228.436 62.5961 232.116 65.6228 236.239 64.8917C238.261 64.53 239.974 63.2329 240.911 61.3224C241.415 60.3083 241.477 60.3712 239.927 60.3712H238.617L238.385 60.7092C237.649 61.802 236.339 62.4938 235.03 62.4938C233.86 62.4938 232.969 62.1165 232.139 61.2753C230.597 59.7186 230.535 57.4073 231.992 55.8113C232.829 54.8994 233.821 54.4513 235.014 54.4591C236.208 54.4591 237.192 54.9072 238.021 55.8192L238.447 56.283H239.803C240.694 56.283 241.167 56.2516 241.167 56.2044C241.167 56.0865 240.818 55.4025 240.493 54.8836C240.09 54.2468 239.121 53.3192 238.408 52.8868C238.067 52.6902 237.463 52.4072 237.06 52.2657C236.386 52.0377 236.231 52.0141 235.2 51.9905C234.58 51.9748 233.929 51.9984 233.743 52.0377Z" fill="#003F40"/>
<circle cx="235.134" cy="46.0238" r="1.92613" fill="#003F40"/>
<circle cx="219.726" cy="46.0238" r="1.92613" fill="#003F40"/>
<path fill-rule="evenodd" clip-rule="evenodd" d="M22 50.9832V64.9664H37.9939H53.9878V64.026V63.0856L43.381 63.0512L32.7741 63.0168L32.734 62.2437L32.6938 61.4706H43.347H54L53.9605 60.563L53.9209 59.6555L43.3475 59.5882L32.7741 59.521V58.7815V58.042L43.381 58.0076L53.9878 57.9732V57.1008V56.2285L43.381 56.1941L32.7741 56.1597V55.3529V54.5462L43.381 54.5118L53.9878 54.4774V53.605V52.7327L43.381 52.6983L32.7741 52.6639L32.734 51.8908L32.6938 51.1176H43.3408H53.9878V44.0588V37H37.9939H22V50.9832ZM42.6727 38.5009C43.1572 38.7226 43.3178 39.4668 43.2582 41.2139C43.2105 42.6175 43.1939 42.6875 42.8356 42.997C42.3584 43.4094 41.793 43.4087 41.314 42.9952C40.9499 42.6808 40.9369 42.6242 40.8924 41.1513C40.8665 40.2977 40.91 39.4176 40.9918 39.1435C41.2042 38.4314 41.9217 38.1571 42.6727 38.5009ZM35.9819 39.4538C36.0313 39.9898 36.1576 40.9429 36.2628 41.5714C36.5344 43.1954 36.5361 43.1849 35.9888 43.1849C35.5912 43.1849 35.5101 43.1307 35.435 42.8151C35.3866 42.6117 35.3199 42.3971 35.2867 42.3379C35.1774 42.1434 34.8487 42.5391 34.8487 42.8651C34.8487 43.1429 34.7851 43.1849 34.3646 43.1849H33.8803L33.9693 42.1429C34.0834 40.8088 34.3061 39.0176 34.3957 38.7143C34.4506 38.5283 34.6148 38.479 35.1787 38.479H35.8922L35.9819 39.4538ZM37.6593 40.8319V43.1849H37.1909H36.7224V40.8319V38.479H37.1909H37.6593V40.8319ZM40.3124 40.7311C40.4766 41.9698 40.6094 43.0323 40.6074 43.0921C40.6054 43.1521 40.378 43.1823 40.1019 43.1593C39.6633 43.1229 39.5945 43.0701 39.5569 42.74C39.4997 42.2389 39.0818 42.2986 39.0223 42.8163C38.985 43.1409 38.9233 43.1849 38.5046 43.1849H38.0294L38.1204 42.1429C38.2006 41.2236 38.2873 40.5575 38.5408 38.916C38.607 38.4871 38.6214 38.479 39.311 38.479H40.0137L40.3124 40.7311ZM47.3687 38.8091C47.8063 39.2485 47.834 40.1439 47.4171 40.3681L47.1368 40.5188L47.4171 40.8185C47.6435 41.0606 47.6973 41.2899 47.6973 42.0123C47.6973 43.1 47.5915 43.1849 46.2339 43.1849H45.2882V40.8319V38.479H46.1642C46.916 38.479 47.0869 38.5258 47.3687 38.8091ZM50.0266 38.7815C50.0982 39.1479 50.5125 42.78 50.5098 43.0168C50.5088 43.1183 50.3258 43.1849 50.0484 43.1849C49.647 43.1849 49.5835 43.1382 49.5465 42.8163C49.4852 42.282 49.0844 42.2526 48.9704 42.774C48.8912 43.1367 48.8257 43.1849 48.4122 43.1849C47.9718 43.1849 47.9483 43.1627 48.02 42.8151C48.062 42.6117 48.1584 41.7496 48.2344 40.8992C48.4625 38.3455 48.4065 38.479 49.2488 38.479C49.8874 38.479 49.9741 38.5127 50.0266 38.7815ZM52.8381 38.6553C53.1873 38.9118 53.2831 39.9889 52.9959 40.4292C52.794 40.7389 52.7924 40.7994 52.9788 41.0668C53.115 41.2623 53.1848 41.6709 53.1848 42.2737V43.1849H52.7163H52.2479V42.1092C52.2479 41.2428 52.2088 41.0336 52.0471 41.0336C51.8855 41.0336 51.8464 41.2428 51.8464 42.1092V43.1849H51.3779H50.9095V40.8319V38.479H51.7539C52.2391 38.479 52.7003 38.554 52.8381 38.6553ZM41.9004 39.1037C41.741 39.2637 41.7934 42.353 41.9572 42.4547C42.2205 42.6182 42.2769 42.3012 42.2722 40.6865C42.268 39.22 42.1756 38.8271 41.9004 39.1037ZM46.3248 39.6494C46.254 40.2078 46.4031 40.5052 46.6364 40.2709C46.8176 40.0888 46.7447 39.256 46.5416 39.1892C46.4527 39.1599 46.3627 39.3512 46.3248 39.6494ZM51.8464 39.7563C51.8464 40.1985 51.8958 40.3673 52.0137 40.3277C52.1087 40.2959 52.181 40.0491 52.181 39.7563C52.181 39.4635 52.1087 39.2167 52.0137 39.1849C51.8958 39.1453 51.8464 39.3141 51.8464 39.7563ZM49.1246 40.2851C48.9879 41.2867 49.0127 41.5714 49.2365 41.5714C49.3907 41.5714 49.4351 41.4075 49.4279 40.8655C49.4138 39.8116 49.2357 39.4707 49.1246 40.2851ZM35.0829 40.036C35.0277 40.0916 34.9825 40.4599 34.9825 40.8544C34.9825 41.4022 35.0299 41.5714 35.1833 41.5714C35.402 41.5714 35.4256 41.2841 35.2759 40.4506C35.225 40.1669 35.138 39.9803 35.0829 40.036ZM39.1316 40.7647C39.1316 41.421 39.1722 41.5714 39.3498 41.5714C39.5276 41.5714 39.5527 41.4778 39.4852 41.0672C39.4395 40.79 39.4015 40.4268 39.4007 40.2605C39.3999 40.0942 39.339 39.958 39.2654 39.958C39.191 39.958 39.1316 40.3166 39.1316 40.7647ZM44.8867 41.2353C44.8867 41.5428 44.8366 41.5714 44.2987 41.5714C43.8848 41.5714 43.6865 41.5081 43.6291 41.3576C43.4972 41.0121 43.6604 40.8992 44.2923 40.8992C44.837 40.8992 44.8867 40.9273 44.8867 41.2353ZM46.351 41.1233C46.3467 41.1849 46.326 41.4589 46.3051 41.7322C46.2598 42.3273 46.4098 42.6497 46.6295 42.429C46.8243 42.2333 46.7412 41.1374 46.5262 41.0664C46.4343 41.036 46.3553 41.0616 46.351 41.1233ZM34.9765 46.042C34.9812 46.2258 35.0995 46.2773 35.5179 46.2773C36.1515 46.2773 36.2085 46.479 35.692 46.8927C35.3482 47.1682 35.3385 47.2079 35.4912 47.72C35.74 48.5543 35.6908 48.6167 35.1335 48.1732L34.6151 47.7609L34.2566 48.0947C34.0594 48.2784 33.869 48.4286 33.8334 48.4286C33.7977 48.4286 33.8078 48.1329 33.8554 47.7716C33.9377 47.1488 33.9206 47.0987 33.5255 46.8052C33.2962 46.635 33.1087 46.4466 33.1087 46.3865C33.1087 46.3264 33.3786 46.2773 33.7085 46.2773C34.2536 46.2773 34.3157 46.2437 34.3901 45.9076C34.594 44.9872 34.61 44.9673 34.7973 45.4034C34.8926 45.6252 34.9731 45.9125 34.9765 46.042ZM39.2293 45.7395C39.3386 46.1734 39.3917 46.2133 39.9089 46.2514C40.2175 46.2742 40.4705 46.3347 40.4712 46.3858C40.4718 46.437 40.2855 46.6332 40.0573 46.8218C39.6531 47.1556 39.6463 47.1799 39.7971 47.743C39.8824 48.061 39.9207 48.3529 39.8821 48.3916C39.8436 48.4303 39.6202 48.2998 39.3856 48.1016L38.9592 47.7411L38.4934 48.1856L38.0276 48.6303L38.119 48.1165C38.1692 47.8339 38.2434 47.5164 38.2837 47.411C38.326 47.3002 38.1814 47.0645 37.9412 46.8528C37.7126 46.6512 37.5255 46.4393 37.5255 46.3818C37.5255 46.3244 37.7666 46.2773 38.0614 46.2773C38.5832 46.2773 38.6014 46.2616 38.7581 45.6731C38.9348 45.0094 39.0492 45.0255 39.2293 45.7395ZM43.5622 45.6723C43.7094 46.2593 43.7294 46.2773 44.2334 46.2773C44.8594 46.2773 44.8859 46.4301 44.3446 46.9178L43.9364 47.2857L44.138 47.8571C44.2488 48.1715 44.3026 48.4286 44.2576 48.4286C44.2127 48.4286 43.9813 48.2795 43.7434 48.0973L43.3111 47.766L42.9278 48.0971C42.4777 48.4858 42.278 48.5228 42.4077 48.1933C42.4587 48.0638 42.5323 47.7673 42.5712 47.5342C42.6299 47.1838 42.5816 47.0706 42.2922 46.8801C41.7902 46.5497 41.8493 46.3012 42.4417 46.2518C42.9485 46.2094 42.9813 46.1672 43.2277 45.2353C43.3087 44.9293 43.4088 45.06 43.5622 45.6723ZM47.9017 45.7169C48.0292 46.1746 48.0797 46.213 48.6044 46.2514C49.2768 46.3006 49.3108 46.427 48.7577 46.8225C48.4575 47.0372 48.3636 47.1948 48.4111 47.4031C48.4471 47.5604 48.5184 47.9008 48.5697 48.1597L48.6631 48.6303L48.1817 48.1684L47.7004 47.7066L47.3977 47.9803C46.7931 48.5273 46.7408 48.5074 46.8385 47.7675C46.9219 47.1361 46.9016 47.0613 46.577 46.8048C46.0888 46.419 46.1349 46.2994 46.7903 46.2514C47.3412 46.2112 47.3586 46.1952 47.4698 45.6266C47.5978 44.9726 47.7003 44.9941 47.9017 45.7169ZM52.1258 45.9748C52.2198 46.219 52.3459 46.2773 52.7804 46.2773C53.0764 46.2773 53.3192 46.3228 53.3198 46.3782C53.3205 46.4335 53.1326 46.6346 52.9024 46.8247C52.4963 47.16 52.4877 47.1894 52.6173 47.7995C52.6908 48.1455 52.7217 48.4286 52.686 48.4286C52.6504 48.4286 52.4418 48.277 52.2227 48.0918L51.8243 47.755L51.3409 48.1554C51.0751 48.3755 50.844 48.5421 50.8276 48.5255C50.811 48.509 50.8632 48.2071 50.9435 47.8549C51.0817 47.2481 51.0705 47.1944 50.7318 46.8393C50.535 46.6331 50.3741 46.4223 50.3741 46.3708C50.3741 46.3194 50.6138 46.2773 50.9069 46.2773C51.3791 46.2773 51.4491 46.2352 51.5217 45.9076C51.7242 44.9933 51.74 44.9683 51.8808 45.3361C51.9516 45.521 52.0619 45.8085 52.1258 45.9748ZM34.8487 49.2353C34.8487 49.3092 34.7884 49.3697 34.7148 49.3697C34.6412 49.3697 34.581 49.3092 34.581 49.2353C34.581 49.1613 34.6412 49.1008 34.7148 49.1008C34.7884 49.1008 34.8487 49.1613 34.8487 49.2353ZM44.7281 57.1342C43.4262 57.1562 41.258 57.1562 39.9098 57.1343C38.5617 57.1124 39.6268 57.0944 42.2768 57.0943C44.9268 57.0943 46.0299 57.1123 44.7281 57.1342ZM51.8181 57.1328C51.3977 57.1595 50.675 57.1596 50.2121 57.1332C49.7491 57.107 50.0931 57.0852 50.9764 57.085C51.8598 57.0847 52.2385 57.1062 51.8181 57.1328ZM44.8278 60.6175C44.1477 60.8272 43.0674 60.8118 40.2692 60.5528C39.2774 60.461 39.632 60.4389 42.2768 60.4275C45.3376 60.4143 45.4578 60.4233 44.8278 60.6175ZM24.1635 65.7395C24.0562 65.948 23.5908 67.8986 23.5873 68.1544C23.5839 68.4151 23.8875 68.31 24.0271 68.0022C24.222 67.5725 24.8106 67.5081 24.8106 67.9164C24.8106 68.2195 25.0493 68.4107 25.217 68.2421C25.342 68.1164 24.8562 65.9496 24.6407 65.6723C24.4605 65.4402 24.3065 65.462 24.1635 65.7395ZM27.1483 65.7781C26.9884 65.9557 26.8818 66.3256 26.8456 66.8295C26.7968 67.5053 26.8322 67.6568 27.1155 67.9877C27.3801 68.2967 27.5099 68.3513 27.8037 68.2772C28.2454 68.1658 28.5536 67.5968 28.3064 67.3493C28.1769 67.2196 28.0911 67.2529 27.9001 67.5068C27.5601 67.9588 27.3536 67.7563 27.3536 66.9711C27.3536 66.2309 27.6304 65.9538 27.942 66.3818C28.1299 66.6399 28.4243 66.5508 28.4243 66.2358C28.4243 65.9613 27.9354 65.5042 27.642 65.5042C27.5062 65.5042 27.284 65.6275 27.1483 65.7781ZM30.4384 65.7408C29.8955 66.1825 29.9037 67.9093 30.4501 68.2031C30.851 68.4186 31.3572 68.2414 31.5124 67.8315C31.7106 67.3076 31.432 67.0816 31.1122 67.5068C30.9791 67.6837 30.8095 67.7909 30.7352 67.7449C30.5252 67.6145 30.4248 66.8849 30.5658 66.5126C30.7129 66.1239 30.9357 66.0815 31.1665 66.3987C31.3443 66.643 31.6365 66.5418 31.6365 66.2358C31.6365 65.9886 31.159 65.5042 30.9152 65.5042C30.813 65.5042 30.5983 65.6107 30.4384 65.7408ZM33.2997 65.6829C33.2623 65.7812 33.249 66.4014 33.2706 67.061C33.3017 68.0202 33.3498 68.2605 33.5103 68.2605C33.6456 68.2605 33.7245 68.0963 33.7525 67.7563C33.8036 67.137 33.9221 67.1179 34.1696 67.6891C34.3533 68.1135 34.5424 68.3214 34.7483 68.3257C34.9084 68.3289 34.8649 67.9425 34.6605 67.5455C34.4988 67.2314 34.4988 67.1435 34.6605 66.9213C35.1218 66.2875 34.6686 65.5042 33.8407 65.5042C33.571 65.5042 33.3387 65.581 33.2997 65.6829ZM36.5147 65.6755C36.4756 65.7778 36.4612 66.4014 36.4827 67.061L36.5217 68.2605L37.2243 68.3011C37.8569 68.3377 37.927 68.3143 37.927 68.0658C37.927 67.8401 37.8417 67.7899 37.4585 67.7899C37.0481 67.7899 36.9901 67.7482 36.9901 67.4538C36.9901 67.17 37.0526 67.1176 37.3916 67.1176C37.7039 67.1176 37.7931 67.058 37.7931 66.8487C37.7931 66.6395 37.7039 66.5798 37.3916 66.5798C37.1239 66.5798 36.9901 66.5126 36.9901 66.3782C36.9901 66.2366 37.1324 66.1765 37.4679 66.1765C37.8867 66.1765 37.9404 66.1392 37.9029 65.874C37.8664 65.6157 37.7669 65.5654 37.223 65.5304C36.7742 65.5015 36.5649 65.5444 36.5147 65.6755ZM39.5902 65.6829C39.5527 65.7812 39.5395 66.4014 39.561 67.061L39.6 68.2605L40.128 68.2429C40.8194 68.2198 41.1392 67.8359 41.1392 67.0289C41.1392 66.0141 40.73 65.5124 39.897 65.5061C39.7658 65.505 39.6278 65.5846 39.5902 65.6829ZM42.7452 66.916C42.7452 68.0036 42.7857 68.3366 42.9125 68.2941C43.0313 68.2543 43.0798 67.8542 43.0798 66.916C43.0798 65.9777 43.0313 65.5776 42.9125 65.5378C42.7857 65.4953 42.7452 65.8284 42.7452 66.916ZM44.6998 65.718C44.5991 65.9819 44.7076 66.1765 44.9559 66.1765C45.0968 66.1765 45.1528 66.4341 45.1822 67.2185C45.213 68.0376 45.2642 68.2605 45.422 68.2605C45.5798 68.2605 45.6311 68.0376 45.6619 67.2185C45.6913 66.4341 45.7473 66.1765 45.8882 66.1765C46.1365 66.1765 46.245 65.9819 46.1442 65.718C46.0854 65.5638 45.8841 65.5042 45.422 65.5042C44.96 65.5042 44.7587 65.5638 44.6998 65.718ZM47.7573 65.6755C47.7182 65.7778 47.7038 66.4014 47.7253 67.061L47.7642 68.2605L48.4669 68.3011C49.0994 68.3377 49.1696 68.3143 49.1696 68.0658C49.1696 67.8401 49.0843 67.7899 48.7011 67.7899C48.294 67.7899 48.2327 67.747 48.2327 67.4623C48.2327 67.1909 48.3074 67.1275 48.6677 67.0925C48.9465 67.0656 49.1026 66.978 49.1026 66.8487C49.1026 66.7195 48.9465 66.6319 48.6677 66.605C48.0449 66.5446 48.0817 66.1765 48.7105 66.1765C49.1293 66.1765 49.183 66.1392 49.1455 65.874C49.1089 65.6157 49.0095 65.5654 48.4656 65.5304C48.0168 65.5015 47.8075 65.5444 47.7573 65.6755ZM50.8328 65.6829C50.7953 65.7812 50.7821 66.4007 50.8036 67.0596C50.8457 68.353 50.9174 68.4561 51.6468 68.2722C52.2136 68.1293 52.3817 67.8309 52.3817 66.9675C52.3817 66.294 52.3287 66.111 52.0532 65.8343C51.6933 65.4726 50.9484 65.3802 50.8328 65.6829ZM34.2881 66.4103C34.221 66.7607 33.7779 66.7998 33.7779 66.4552C33.7779 66.2628 33.8639 66.1765 34.0554 66.1765C34.2469 66.1765 34.3191 66.2489 34.2881 66.4103ZM40.5768 66.934C40.6086 67.4838 40.5705 67.6395 40.3867 67.7103C40.1289 67.8098 39.9015 67.5517 40.003 67.2747C40.039 67.1763 40.0684 66.8844 40.0684 66.6262C40.0684 66.2518 40.1158 66.1659 40.3027 66.2015C40.4827 66.2359 40.5461 66.4052 40.5768 66.934ZM51.7795 66.9832C51.7795 67.5771 51.7342 67.7278 51.5452 67.7644C51.3427 67.8035 51.311 67.698 51.311 66.9832C51.311 66.2684 51.3427 66.1629 51.5452 66.202C51.7342 66.2386 51.7795 66.3893 51.7795 66.9832ZM24.49 67.0812C24.354 67.218 24.2417 67.0121 24.3533 66.8307C24.4376 66.6936 24.4692 66.6936 24.5145 66.8302C24.5455 66.9236 24.5344 67.0366 24.49 67.0812ZM22 68.7647C22 68.9875 22.8449 69 37.8698 69C52.1375 69 53.7354 68.9789 53.6964 68.7915C53.6578 68.6047 52.004 68.5801 37.8266 68.5562C22.8328 68.5308 22 68.5418 22 68.7647Z" fill="#1E4A71"/>
<rect x="80.4219" y="55.5894" width="19.3631" height="10.5852" fill="#620208"/>
<path d="M89.7274 39.3047C89.087 39.0045 88.8718 37.956 89.3281 37.3591C89.8935 36.6192 91.075 37.1037 91.075 38.0756C91.075 38.5853 90.7604 39.1759 90.4317 39.2833C90.1773 39.3664 90.1664 39.4275 90.2386 40.3574C90.381 42.1897 91.0621 44.1314 91.8676 45.0015C92.3524 45.5249 93.0774 45.926 93.539 45.926C94.7384 45.926 96.0091 44.5071 97.2024 41.8348L97.5016 41.1646L97.2361 40.8171C96.764 40.1994 97.018 39.0451 97.6626 38.8786C98.628 38.6292 99.2861 39.6446 98.7939 40.6241C98.5963 41.0172 98.3737 41.1498 97.9109 41.1498C97.6515 41.1498 97.5955 41.2503 97.4254 42.0211C96.6752 45.4186 96.8896 47.4872 98.0507 48.0542C99.0373 48.536 101.042 47.9579 102.709 46.7105C103.164 46.3703 103.242 46.2441 103.242 45.8522C103.242 44.7077 104.136 44.1232 104.816 44.823C105.257 45.2772 105.251 46.1941 104.803 46.6548C104.538 46.9276 104.408 46.9705 104.053 46.9019L103.624 46.819L101.677 50.8261L99.7292 54.8331H90.0715H80.4139L78.4725 50.839L76.5312 46.8447L76.0982 46.9172C75.7454 46.976 75.6051 46.9277 75.3422 46.6572C74.8922 46.1941 74.8847 45.2784 75.3274 44.823C76.0228 44.1072 76.9009 44.6828 76.9009 45.8542C76.9009 46.2437 76.9801 46.3709 77.434 46.7105C78.4354 47.4597 79.9884 48.1462 80.841 48.2167C82.3452 48.341 83.0052 47.6642 83.1377 45.8616C83.2522 44.3042 82.6917 41.0644 82.3324 41.2063C81.8759 41.3865 81.1657 40.636 81.1657 39.9734C81.1657 38.8551 82.5094 38.397 82.9891 39.3518C83.2477 39.8664 83.2172 40.4113 82.907 40.8171L82.6414 41.1646L82.9407 41.8348C84.4279 45.165 85.9357 46.4617 87.4111 45.6792C88.7072 44.9916 89.6168 43.0769 89.9214 40.3949C90.0265 39.4693 90.0217 39.4427 89.7274 39.3047Z" fill="#CFAE56"/>
<path d="M80.2877 67.5697C80.2877 67.333 80.3253 67.1006 80.3713 67.0534C80.4172 67.006 84.82 66.9673 90.1552 66.9673H99.8554V67.4837V68H90.0715H80.2877V67.5697Z" fill="#CFAE56"/>
<path d="M85.2466 51.4575C85.2466 51.1401 85.1509 50.8687 84.9644 50.6577C84.4376 50.0611 83.7808 50.1311 83.4343 50.8206C83.1885 51.3098 83.1884 51.648 83.4338 52.1365C83.9535 53.1706 85.2466 52.6863 85.2466 51.4575Z" fill="white"/>
<path d="M91.0937 51.2987C91.0617 51.0221 90.9324 50.6942 90.8065 50.57C90.2971 50.0677 89.6531 50.1769 89.3297 50.8206C89.0839 51.3098 89.0838 51.648 89.3292 52.1365C89.8868 53.2461 91.2444 52.6017 91.0937 51.2987Z" fill="white"/>
<path d="M96.8432 52.1365C97.0861 51.6532 97.0887 51.3101 96.853 50.8412C96.3436 49.8274 95.0305 50.2869 95.0305 51.479C95.0305 52.6885 96.3292 53.1594 96.8432 52.1365Z" fill="white"/>
<path d="M87.2814 57.7302C87.4833 57.8227 87.4826 57.7842 87.27 57.139L87.0426 56.4489L86.3641 56.4254C85.3466 56.3903 84.9116 56.5794 84.1084 57.406C83.2408 58.2989 82.9167 59.1883 83.0222 60.3862C83.2459 62.9259 85.7815 64.4561 87.8466 63.2978C88.9859 62.6587 88.9947 62.6333 88.5559 61.2516L88.1786 60.0634L86.9007 60.0266L85.6229 59.9898V60.5752V61.1606H86.94C87.8521 61.1606 88.257 61.2064 88.257 61.3097C88.257 61.5998 87.2588 62.4387 86.811 62.5252C85.3734 62.8027 84.1177 61.6335 84.1177 60.0174C84.1177 58.9379 84.848 57.8156 85.6924 57.5974C86.0395 57.5078 86.9644 57.5852 87.2814 57.7302Z" fill="white"/>
<path d="M90.8283 60.2893C90.5791 59.455 90.2187 58.2787 90.0274 57.6753L89.7391 56.4945H88.9646C88.5533 56.4737 88.061 56.4945 88.061 56.4945L88.0058 57.6C88.0058 58.8181 88.1026 58.7968 88.5389 60.0634L89.0723 61.6124L89.1417 59.9343C89.1834 58.9262 89.25 58.3593 89.3087 58.5143C89.3622 58.6563 89.7545 59.8472 90.1801 61.1606L90.9539 63.5487H91.3825C91.863 63.5487 91.7432 63.8286 92.9846 59.8052L93.4625 58.2561L93.5253 60.9024L93.588 63.5487L94.1211 63.5884L94.6542 63.6281V62.1867C94.6542 60.7576 94.6482 60.7282 93.9426 58.7263C93.5512 57.6157 93.1935 56.6613 93.1476 56.6054C93.1017 56.5494 92.7022 57.6963 92.2599 59.1541C91.8175 60.6119 91.4165 61.8049 91.3685 61.8053C91.3206 61.8057 91.0775 61.1236 90.8283 60.2893Z" fill="white"/>
<path d="M96.1569 56.7396C96.6595 56.9995 97.1629 57.7033 97.1629 58.1462C97.1629 58.4136 97.1039 58.4498 96.668 58.4498C96.2516 58.4498 96.147 58.3935 96.0086 58.0948C95.8863 57.8311 95.7373 57.7292 95.4291 57.6987C94.8988 57.6462 94.6547 58.0173 94.6582 58.3687C94.6619 58.7493 94.7754 58.9689 95.0484 59.1629C95.2899 59.3344 95.4667 59.2918 95.9098 59.5198C96.7253 59.9395 97.3348 60.6188 97.2603 61.0251C97.2722 61.0602 97.3553 61.3998 97.2722 62.1363C97.2025 62.4161 97.0493 62.7657 96.9322 62.9131C96.6127 63.3147 96.0363 63.6691 95.9192 63.5357C95.7383 63.3296 95.5382 62.5806 95.6642 62.5806C95.896 62.5806 96.2848 62.0597 96.2848 61.7493C96.2848 60.8783 95.6176 60.6824 95.3389 60.5253L94.7134 60.0634L94.4763 59.4261C93.8097 57.6342 93.82 57.1448 94.5326 56.7515C95.0731 56.4532 95.5956 56.4493 96.1569 56.7396Z" fill="white"/>
<path d="M84.5316 64.9042C84.5316 65.2947 84.5551 65.4543 84.5838 65.2592C84.6125 65.064 84.6125 64.7444 84.5838 64.5492C84.5551 64.354 84.5316 64.5137 84.5316 64.9042Z" fill="white"/>
<path d="M86.0091 65.2914C85.9534 65.2914 85.7515 65.0591 85.5602 64.7751C85.3689 64.4911 85.1637 64.2587 85.1041 64.2587C85.0445 64.2587 85.0046 64.5928 85.0154 65.001L85.0351 65.7432L85.1095 65.117L85.1839 64.4908L85.6149 65.0848C85.8519 65.4113 86.0918 65.6787 86.148 65.6787C86.2042 65.6787 86.2402 65.3446 86.2281 64.9364C86.2092 64.2927 86.1999 64.267 86.1583 64.7428C86.1318 65.0446 86.0647 65.2914 86.0091 65.2914Z" fill="white"/>
<path d="M87.1165 65.103C87.1794 64.5604 87.2387 64.449 87.5044 64.3735C87.7164 64.3133 87.5944 64.286 87.1281 64.2892C86.7487 64.2918 86.5652 64.319 86.7205 64.3499C86.9666 64.3987 87.0052 64.4915 87.0224 65.0746L87.0421 65.7432L87.1165 65.103Z" fill="white"/>
<path d="M88.1316 64.6533C88.1316 64.4522 88.237 64.3928 88.6647 64.3532L89.1978 64.3038L88.602 64.2813L88.0062 64.2587V64.9687V65.6787L88.602 65.6561L89.1978 65.6336L88.6647 65.5842C88.2437 65.5451 88.1316 65.4838 88.1316 65.2922C88.1316 65.1152 88.2418 65.0356 88.5392 64.9975L88.9469 64.9455L88.5392 64.9248C88.2262 64.9089 88.1316 64.8461 88.1316 64.6533Z" fill="white"/>
<path d="M90.5979 65.0584C90.6976 64.9559 90.7619 64.7485 90.741 64.5976C90.7086 64.3637 90.6059 64.3175 90.0445 64.2843L89.3859 64.2452L89.4005 64.9297C89.4085 65.3061 89.4409 65.5126 89.4724 65.3882C89.5523 65.0737 89.9996 65.1059 90.3686 65.4528C90.6319 65.7004 90.6582 65.7064 90.5471 65.494C90.45 65.3082 90.4629 65.1974 90.5979 65.0584Z" fill="white"/>
<path d="M91.142 64.402L91.7378 64.3536L92.3336 64.3052L91.6686 64.282L91.0034 64.2587L91.0414 64.9364L91.0793 65.6141L91.6437 65.6247L92.2082 65.6352L91.6751 65.5854L91.142 65.5354V64.9687V64.402Z" fill="white"/>
<path d="M92.6723 64.6216C92.6403 64.4498 92.7466 64.3928 93.1725 64.3536L93.7134 64.3038L93.1176 64.2813L92.5218 64.2587V64.9687V65.6787L93.1176 65.6604L93.7134 65.642L93.2129 65.5635C92.8744 65.5105 92.6989 65.412 92.6706 65.2592C92.6371 65.078 92.724 65.0299 93.1084 65.0162L93.588 64.9993L93.1503 64.9194C92.8804 64.8702 92.6973 64.7561 92.6723 64.6216Z" fill="white"/>
<path d="M95.0899 65.1169C95.2033 65.0722 95.2813 64.8817 95.2813 64.65C95.2813 64.2665 95.2688 64.2587 94.6542 64.2587H94.027L94.0441 65.001C94.0535 65.4092 94.0856 65.6126 94.1156 65.4528C94.1872 65.0702 94.7155 65.0561 94.9108 65.4316C94.9878 65.5797 95.0825 65.6682 95.1213 65.6283C95.1599 65.5885 95.1257 65.4741 95.0451 65.3742C94.9309 65.2324 94.9408 65.1759 95.0899 65.1169Z" fill="white"/>
<path d="M96.1368 65.0095C96.1575 64.4562 96.1886 64.4005 96.5043 64.3512C96.6941 64.3216 96.5388 64.2967 96.1594 64.2956C95.7799 64.2947 95.5935 64.3186 95.7452 64.349C95.9735 64.3945 96.0288 64.5079 96.0676 65.0091L96.1142 65.6141L96.1368 65.0095Z" fill="white"/>
<line x1="309.5" y1="-2.18557e-08" x2="309.5" y2="83" stroke="#DDDDDD"/>
<defs>
<linearGradient id="paint0_linear_441_993" x1="289.548" y1="51.6684" x2="264.65" y2="53.1469" gradientUnits="userSpaceOnUse">
<stop stop-color="#2262AC"/>
<stop offset="1" stop-color="#15B9EE"/>
</linearGradient>
<linearGradient id="paint1_linear_441_993" x1="268.75" y1="55.7398" x2="290.591" y2="48.5535" gradientUnits="userSpaceOnUse">
<stop stop-color="#2262AC"/>
<stop offset="1" stop-color="#15B9EE"/>
</linearGradient>
</defs>
</svg>
