<svg width="148" height="47" viewBox="0 0 148 47" fill="none" xmlns="http://www.w3.org/2000/svg">
<rect x="0.5" y="0.5" width="146.557" height="45.7867" rx="7.218" fill="black"/>
<path fill-rule="evenodd" clip-rule="evenodd" d="M11.7292 9.50103C11.4034 9.84588 11.2119 10.38 11.2119 11.073V35.8154C11.2119 36.5085 11.4034 37.0426 11.7292 37.3875L11.8121 37.4681L25.6724 23.6077V23.2808L11.8121 9.42041L11.7292 9.50103Z" fill="#00D7FE"/>
<mask id="mask0_441_961" style="mask-type:alpha" maskUnits="userSpaceOnUse" x="25" y="18" width="13" height="11">
<path d="M30.2915 28.2295L25.6729 23.6075V23.2805L30.2937 18.6597L35.8719 21.8283C37.435 22.7173 37.435 24.1707 35.8719 25.0586L30.3978 28.169L30.2915 28.2295Z" fill="white"/>
</mask>
<g mask="url(#mask0_441_961)">
<path fill-rule="evenodd" clip-rule="evenodd" d="M30.2915 28.2295L25.6729 23.6075V23.2805L30.2937 18.6597L35.8719 21.8283C37.435 22.7173 37.435 24.1707 35.8719 25.0586L30.3978 28.169L30.2915 28.2295Z" fill="url(#paint0_linear_441_961)"/>
</g>
<mask id="mask1_441_961" style="mask-type:alpha" maskUnits="userSpaceOnUse" x="11" y="23" width="20" height="15">
<path d="M30.3977 28.1693L25.6727 23.4443L11.7295 37.3876C12.2457 37.9328 13.0966 38 14.055 37.4559L30.3977 28.1693Z" fill="white"/>
</mask>
<g mask="url(#mask1_441_961)">
<path fill-rule="evenodd" clip-rule="evenodd" d="M30.3977 28.1693L25.6727 23.4443L11.7295 37.3876C12.2457 37.9328 13.0966 38 14.055 37.4559L30.3977 28.1693Z" fill="url(#paint1_linear_441_961)"/>
</g>
<mask id="mask2_441_961" style="mask-type:alpha" maskUnits="userSpaceOnUse" x="11" y="9" width="20" height="15">
<path d="M30.3977 18.7191L14.055 9.4326C13.0966 8.88845 12.2457 8.95563 11.7295 9.5009L25.6727 23.4441L30.3977 18.7191Z" fill="white"/>
</mask>
<g mask="url(#mask2_441_961)">
<path fill-rule="evenodd" clip-rule="evenodd" d="M30.3977 18.7191L14.055 9.4326C13.0966 8.88845 12.2457 8.95563 11.7295 9.5009L25.6727 23.4441L30.3977 18.7191Z" fill="url(#paint2_linear_441_961)"/>
</g>
<path fill-rule="evenodd" clip-rule="evenodd" d="M117.492 35.7076H119.582V21.7107H117.492V35.7076ZM136.31 26.7525L133.916 32.8211H133.844L131.358 26.7525H129.108L132.835 35.234L130.71 39.9523H132.89L138.634 26.7525H136.31ZM124.462 34.1177C123.777 34.1177 122.823 33.7762 122.823 32.9297C122.823 31.8493 124.012 31.435 125.038 31.435C125.957 31.435 126.388 31.6332 126.947 31.903C126.784 33.1996 125.668 34.1177 124.462 34.1177ZM124.714 26.4469C123.201 26.4469 121.635 27.1131 120.987 28.5899L122.841 29.3636C123.237 28.5899 123.975 28.3369 124.75 28.3369C125.83 28.3369 126.929 28.9852 126.947 30.1384V30.2817C126.568 30.0656 125.759 29.7421 124.768 29.7421C122.769 29.7421 120.734 30.8404 120.734 32.8928C120.734 34.766 122.373 35.973 124.209 35.973C125.614 35.973 126.388 35.3426 126.875 34.6036H126.947V35.6841H128.963V30.3187C128.963 27.833 127.109 26.4469 124.714 26.4469ZM111.802 28.4567H108.831V23.6589H111.802C113.364 23.6589 114.251 24.9521 114.251 26.0572C114.251 27.1422 113.364 28.4567 111.802 28.4567ZM111.748 21.7107H106.742V35.7076H108.831V30.4049H111.748C114.064 30.4049 116.34 28.7276 116.34 26.0572C116.34 23.3868 114.064 21.7107 111.748 21.7107ZM84.4497 34.12C83.0065 34.12 81.7984 32.9118 81.7984 31.2525C81.7984 29.5752 83.0065 28.3481 84.4497 28.3481C85.8751 28.3481 86.9925 29.5752 86.9925 31.2525C86.9925 32.9118 85.8751 34.12 84.4497 34.12ZM86.8481 27.5363H86.7764C86.3073 26.9776 85.4059 26.4726 84.2695 26.4726C81.8879 26.4726 79.7057 28.5642 79.7057 31.2525C79.7057 33.9218 81.8879 35.9965 84.2695 35.9965C85.4059 35.9965 86.3073 35.4915 86.7764 34.9138H86.8481V35.599C86.8481 37.4219 85.8751 38.396 84.3053 38.396C83.0244 38.396 82.2306 37.4756 81.9059 36.6997L80.0842 37.4577C80.607 38.7207 81.9966 40.2714 84.3053 40.2714C86.7585 40.2714 88.8332 38.8282 88.8332 35.3113V26.7604H86.8481V27.5363ZM90.2765 35.7076H92.3692V21.7096H90.2765V35.7076ZM95.4527 31.0901C95.399 29.2505 96.8781 28.3122 97.9417 28.3122C98.7725 28.3122 99.4757 28.7265 99.7097 29.3222L95.4527 31.0901ZM101.947 29.5024C101.55 28.4388 100.341 26.4726 97.8701 26.4726C95.4169 26.4726 93.3791 28.4018 93.3791 31.2346C93.3791 33.9039 95.399 35.9965 98.1041 35.9965C100.287 35.9965 101.55 34.6619 102.073 33.8859L100.45 32.8032C99.909 33.5971 99.1689 34.12 98.1041 34.12C97.0404 34.12 96.2824 33.6329 95.7953 32.6778L102.163 30.0444L101.947 29.5024ZM51.2169 27.9338V29.9537H56.0505C55.9061 31.0901 55.5276 31.9198 54.951 32.4976C54.2467 33.2007 53.1461 33.9755 51.2169 33.9755C48.2408 33.9755 45.913 31.5772 45.913 28.6011C45.913 25.6239 48.2408 23.2256 51.2169 23.2256C52.8225 23.2256 53.9948 23.8571 54.8603 24.6688L56.2856 23.2435C55.0764 22.0891 53.4719 21.2046 51.2169 21.2046C47.1402 21.2046 43.7129 24.5244 43.7129 28.6011C43.7129 32.6778 47.1402 35.9965 51.2169 35.9965C53.417 35.9965 55.0764 35.2754 56.3752 33.9218C57.7099 32.5871 58.1252 30.7117 58.1252 29.1957C58.1252 28.7265 58.0894 28.2943 58.0166 27.9338H51.2169ZM63.6217 34.12C62.1784 34.12 60.9334 32.9297 60.9334 31.2346C60.9334 29.5204 62.1784 28.3481 63.6217 28.3481C65.0638 28.3481 66.3089 29.5204 66.3089 31.2346C66.3089 32.9297 65.0638 34.12 63.6217 34.12ZM63.6217 26.4726C60.9871 26.4726 58.8407 28.4746 58.8407 31.2346C58.8407 33.9755 60.9871 35.9965 63.6217 35.9965C66.2552 35.9965 68.4016 33.9755 68.4016 31.2346C68.4016 28.4746 66.2552 26.4726 63.6217 26.4726ZM74.0492 34.12C72.6059 34.12 71.3608 32.9297 71.3608 31.2346C71.3608 29.5204 72.6059 28.3481 74.0492 28.3481C75.4924 28.3481 76.7364 29.5204 76.7364 31.2346C76.7364 32.9297 75.4924 34.12 74.0492 34.12ZM74.0492 26.4726C71.4157 26.4726 69.2693 28.4746 69.2693 31.2346C69.2693 33.9755 71.4157 35.9965 74.0492 35.9965C76.6826 35.9965 78.829 33.9755 78.829 31.2346C78.829 28.4746 76.6826 26.4726 74.0492 26.4726Z" fill="#FFFFFE"/>
<path d="M49.8339 14.7091C49.5911 15.0568 49.2516 15.3176 48.8154 15.4915C48.3824 15.662 47.8772 15.7473 47.2999 15.7473C46.716 15.7473 46.1977 15.6112 45.745 15.3389C45.2923 15.0634 44.9414 14.673 44.6921 14.1679C44.446 13.6627 44.3197 13.0772 44.3132 12.4113V11.7864C44.3132 10.7072 44.5641 9.87072 45.066 9.27699C45.5712 8.68326 46.2797 8.3864 47.1916 8.3864C47.9395 8.3864 48.5415 8.57829 48.9974 8.96208C49.4534 9.3426 49.7322 9.88384 49.8339 10.5858H48.8892C48.712 9.63782 48.1478 9.16382 47.1965 9.16382C46.5634 9.16382 46.0829 9.38688 45.7549 9.833C45.4301 10.2758 45.2661 10.9188 45.2628 11.7618V12.3473C45.2628 13.151 45.4465 13.7906 45.8139 14.2663C46.1813 14.7386 46.6783 14.9748 47.3048 14.9748C47.6591 14.9748 47.969 14.9355 48.2347 14.8567C48.5005 14.778 48.7202 14.6452 48.8941 14.4582V12.8492H47.2359V12.0816H49.8339V14.7091ZM55.1605 12.3375H52.0557V14.8764H55.6624V15.6489H51.111V8.4848H55.6132V9.26223H52.0557V11.565H55.1605V12.3375ZM61.5844 9.26223H59.2817V15.6489H58.3419V9.26223H56.044V8.4848H61.5844V9.26223ZM65.359 15.6489H64.4142V8.4848H65.359V15.6489ZM71.591 9.26223H69.2882V15.6489H68.3484V9.26223H66.0506V8.4848H71.591V9.26223ZM79.8628 12.2981C79.8628 13.0001 79.7447 13.6135 79.5085 14.1384C79.2723 14.6599 78.9377 15.0585 78.5047 15.334C78.0717 15.6096 77.5666 15.7473 76.9892 15.7473C76.425 15.7473 75.9248 15.6096 75.4885 15.334C75.0522 15.0552 74.7127 14.6599 74.47 14.1482C74.2305 13.6332 74.1075 13.0378 74.101 12.3621V11.8454C74.101 11.1566 74.2207 10.5481 74.4602 10.02C74.6996 9.49185 75.0375 9.08838 75.4738 8.80955C75.9133 8.52745 76.4152 8.3864 76.9794 8.3864C77.5535 8.3864 78.0586 8.52581 78.4949 8.80463C78.9345 9.08017 79.2723 9.48201 79.5085 10.0101C79.7447 10.535 79.8628 11.1467 79.8628 11.8454V12.2981ZM78.923 11.8356C78.923 10.986 78.7524 10.3349 78.4112 9.8822C78.0701 9.42624 77.5928 9.19826 76.9794 9.19826C76.3824 9.19826 75.9117 9.42624 75.5672 9.8822C75.2261 10.3349 75.0506 10.9647 75.0408 11.7716V12.2981C75.0408 13.1215 75.213 13.7693 75.5574 14.2417C75.9051 14.7108 76.3824 14.9453 76.9892 14.9453C77.5994 14.9453 78.0717 14.7239 78.4063 14.2811C78.7409 13.8349 78.9131 13.1969 78.923 12.367V11.8356ZM86.4835 15.6489H85.5338L81.9272 10.1282V15.6489H80.9775V8.4848H81.9272L85.5437 14.0301V8.4848H86.4835V15.6489Z" fill="white"/>
<rect x="0.5" y="0.5" width="146.557" height="45.7867" rx="7.218" stroke="#DDDDDD"/>
<defs>
<linearGradient id="paint0_linear_441_961" x1="34.855" y1="23.4443" x2="25.6729" y2="23.4443" gradientUnits="userSpaceOnUse">
<stop stop-color="#FFBC00"/>
<stop offset="1" stop-color="#FFDA03"/>
</linearGradient>
<linearGradient id="paint1_linear_441_961" x1="27.8299" y1="27.8903" x2="15.8455" y2="37.7686" gradientUnits="userSpaceOnUse">
<stop stop-color="#E22652"/>
<stop offset="1" stop-color="#FF3A44"/>
</linearGradient>
<linearGradient id="paint2_linear_441_961" x1="13.8408" y1="11.1795" x2="21.831" y2="18.2053" gradientUnits="userSpaceOnUse">
<stop stop-color="#0ED574"/>
<stop offset="1" stop-color="#07F076"/>
</linearGradient>
</defs>
</svg>
