<svg width="116" height="123" viewBox="0 0 116 123" fill="none" xmlns="http://www.w3.org/2000/svg">
<path d="M69.0044 97.9772C82.2223 90.3512 92.9731 71.7581 92.9697 56.5283V24.8774L50.2139 0.212891H49.7201V31.8638C49.7201 46.9363 39.0789 65.3386 25.9996 72.886L10.2949 81.9504L10.5414 82.3779L53.2997 107.042L69.0044 97.9772Z" fill="white"/>
<path d="M53.2989 107.253C53.2616 107.252 53.225 107.242 53.1928 107.224L10.4379 82.5567C10.4055 82.538 10.3786 82.5112 10.36 82.4789L10.1135 82.0513C10.0853 82.0024 10.0776 81.9443 10.0921 81.8897C10.0994 81.8627 10.1118 81.8374 10.1289 81.8152C10.1459 81.7931 10.1672 81.7745 10.1914 81.7606L25.8961 72.6962C38.9155 65.183 49.5088 46.8636 49.5096 31.8578V0.212926C49.5099 0.156523 49.5324 0.102487 49.5721 0.062423C49.5918 0.0426093 49.6153 0.0268986 49.6412 0.0161853C49.667 0.00547195 49.6947 -3.08148e-05 49.7227 2.63895e-07H50.2165C50.2537 -5.84318e-05 50.2903 0.00967521 50.3226 0.028221L93.0775 24.6927C93.1099 24.7112 93.1369 24.738 93.1557 24.7703C93.1745 24.8025 93.1844 24.8392 93.1844 24.8765V56.5274C93.1844 71.8248 82.3892 90.5008 69.1122 98.1602L69.0061 97.9764L69.1122 98.1602L53.4084 107.225C53.375 107.243 53.3372 107.253 53.2989 107.253ZM10.6997 82.2163L53.2989 106.794L68.8975 97.7951C82.0563 90.2032 92.7591 71.6923 92.7557 56.5308V25.0031L50.1566 0.425853H49.9324V31.8638C49.9324 47.0047 39.2432 65.49 26.1058 73.0699L10.5919 82.0239L10.6997 82.2163Z" fill="#222222"/>
<path d="M52.3527 38.3694C52.3827 38.1984 52.4135 38.0273 52.4383 37.8503L69.1913 47.5039C69.1742 47.6826 69.1571 47.8622 69.1357 48.0418L52.3527 38.3694ZM72.8248 39.31V39.8804L84.991 46.8848V46.3153L72.8248 39.31ZM67.2308 41.2974L52.9038 33.0428C52.8961 33.2284 52.8902 33.4139 52.8807 33.6012L67.2316 41.8669L67.2308 41.2974ZM65.0914 37.4587L52.9269 30.4526V31.0221L65.0914 38.0273V37.4587ZM72.8231 41.9156V42.486L82.8507 48.2572V47.6954L72.8231 41.9156ZM69.3667 37.3193L52.9269 27.847V28.4174L69.3667 37.8888V37.3193ZM60.4986 70.1186C60.5919 69.9818 60.6843 69.8458 60.7759 69.7082L43.6241 59.822C43.5325 59.9597 43.4384 60.0948 43.3469 60.2333L60.4986 70.1186ZM57.6995 65.3667C57.785 65.2256 57.8706 65.0836 57.9562 64.9391L45.0635 57.5097C44.9779 57.6508 44.8966 57.7928 44.811 57.9373L57.6995 65.3667ZM52.9192 83.4903L63.2473 89.4437C63.3936 89.3385 63.5399 89.2324 63.6846 89.1256L53.33 83.1576C53.1991 83.2739 53.0613 83.3825 52.9235 83.4937L52.9192 83.4903ZM56.2473 57.6799L47.6418 52.7202C47.57 52.869 47.4972 53.0169 47.4245 53.1657L56.0325 58.128C56.1061 57.9792 56.1805 57.8321 56.2515 57.6833L56.2473 57.6799ZM55.2272 81.5064C55.1 81.6232 54.9719 81.739 54.843 81.8535L69.5618 90.3407C69.6953 90.2295 69.8271 90.1149 69.9606 89.9986L55.2272 81.5064ZM38.4383 66.6023L49.0718 72.731C49.1865 72.6096 49.2986 72.483 49.4141 72.3582L38.7703 66.2235C38.6608 66.3509 38.5495 66.4766 38.4383 66.6023ZM42.0855 62.0471C41.9888 62.1813 41.8938 62.3181 41.7971 62.4507L56.7881 71.0926C56.8873 70.9592 56.9892 70.8292 57.0884 70.6967L42.0855 62.0471ZM70.7137 78.551L62.1947 73.6443C62.098 73.7786 62.003 73.9128 61.9037 74.0454L70.4133 78.9478C70.5134 78.8127 70.6153 78.681 70.7137 78.5485V78.551ZM63.7385 71.4193C63.6478 71.5569 63.5545 71.6938 63.4621 71.8306L76.2692 79.2112C76.3607 79.0752 76.4532 78.9384 76.5447 78.8007L63.7385 71.4193ZM65.1821 69.1155C65.0965 69.2566 65.011 69.3986 64.9254 69.5431L82.0155 79.3959C82.1011 79.2557 82.1867 79.1129 82.2723 78.9683L65.1821 69.1155ZM40.4655 64.1892C40.362 64.3191 40.2568 64.4457 40.1523 64.5782L57.2528 74.437C57.3589 74.3093 57.465 74.1805 57.5711 74.0505L40.4655 64.1892ZM58.5218 78.1842L75.5178 87.9831C75.6342 87.8608 75.748 87.736 75.8601 87.612L58.8564 77.8079C58.7477 77.9345 58.6331 78.0525 58.5193 78.1816L58.5218 78.1842ZM57.0773 79.7234C56.9592 79.8448 56.8428 79.9697 56.723 80.0886L69.383 87.3871C69.5062 87.2699 69.6277 87.1476 69.7501 87.0288L57.0773 79.7234ZM52.7498 35.4372C52.7318 35.6159 52.713 35.7955 52.6933 35.9742L60.793 40.6355C60.8015 40.4465 60.8007 40.2609 60.8058 40.0728L52.7498 35.4372ZM42.6828 89.9217L42.1899 90.2073L58.6314 99.6907L59.1251 99.4059L42.6828 89.9217ZM65.7024 60.5993C65.7683 60.4463 65.8325 60.2949 65.8958 60.141L48.7689 50.2702C48.7038 50.4216 48.6414 50.5746 48.5755 50.7269L65.7024 60.5993ZM36.9681 89.2316L20.5266 79.7465L20.0329 80.0321L36.4752 89.5163L36.9681 89.2316ZM44.942 88.6193L44.4473 88.9041L56.6152 95.9213L57.109 95.6365L44.942 88.6193ZM47.1994 87.3161L46.7057 87.6009L61.0112 95.8511L61.5058 95.5664L47.1994 87.3161ZM72.8274 36.7079V37.2774L80.7165 41.8156V41.2452L72.8274 36.7079ZM50.453 97.009L40.4253 91.2215L39.9316 91.5062L49.9566 97.2929L50.453 97.009ZM54.6076 102.012L38.167 92.5273L37.6724 92.8129L54.1139 102.297L54.6076 102.012ZM30.4345 88.0669L18.2692 81.0497L17.7754 81.3345L29.9416 88.3525L30.4345 88.0669ZM60.5654 75.7744C60.4609 75.9044 60.3557 76.031 60.2513 76.1627L75.1499 84.7516C75.2568 84.6224 75.3664 84.495 75.4733 84.3676L60.5654 75.7744ZM48.9392 86.2925L65.3995 95.7844L65.8941 95.4988L49.4201 86.0052C49.2609 86.1018 49.1009 86.195 48.9392 86.2925ZM72.8282 21.0736V21.6422L87.1312 29.8788V29.3102L72.8282 21.0736ZM72.8282 23.6791V24.2495L84.9944 31.2505V30.6784L72.8282 23.6791ZM72.8282 26.2847V26.8542L89.268 36.3222V35.7518L72.8282 26.2847ZM64.4915 48.0785C64.5223 47.9075 64.5549 47.7365 64.5831 47.5654L51.9831 40.3054C51.9463 40.4764 51.9112 40.6475 51.8735 40.8125L64.4915 48.0785ZM72.8274 34.1015V34.6718L89.2671 44.1424V43.5737L72.8274 34.1015ZM72.8274 28.8903V29.4598L87.1303 37.6973V37.126L72.8274 28.8903ZM65.3961 54.3586C65.4457 54.1961 65.4927 54.0328 65.5398 53.8712L50.6412 45.2857C50.589 45.4456 50.5403 45.6063 50.4872 45.7663L65.3961 54.3586ZM72.8265 19.0375L89.2671 28.5055V27.936L72.8274 18.468L72.8265 19.0375ZM62.5806 55.1658L49.7692 47.7852C49.7111 47.9409 49.6494 48.0956 49.5887 48.2513L62.4129 55.6387C62.472 55.4822 62.5259 55.3232 62.5824 55.1658H62.5806ZM67.449 20.3621V20.6469C67.2128 20.51 67.0211 20.4485 66.8756 20.4604C66.7302 20.4724 66.5898 20.575 66.4563 20.764C66.3656 20.8931 66.227 21.2395 66.0362 21.8047L63.516 28.7466L63.249 28.5944L61.1892 20.7452L59.1431 26.2266L58.9035 26.0863L56.2199 15.8846C56.0188 15.1253 55.8921 14.6695 55.8382 14.5216C55.7568 14.2872 55.6342 14.0691 55.4762 13.8777C55.2993 13.6754 55.0881 13.5058 54.8524 13.3766V13.0918L58.1992 15.0227V15.3066L58.0392 15.2142C57.803 15.0783 57.6242 15.0364 57.5001 15.0868C57.376 15.1373 57.3135 15.251 57.3135 15.4289C57.3135 15.6067 57.4111 16.0762 57.6062 16.8338L59.3853 23.7074L60.8854 19.6027L60.6184 18.5766L60.4062 17.7548C60.3195 17.4636 60.2149 17.178 60.093 16.8997C60.035 16.7698 59.9636 16.6462 59.8799 16.5311C59.7814 16.39 59.6697 16.2585 59.5462 16.1386C59.4232 16.0322 59.2889 15.9396 59.1457 15.8624V15.5777L62.6645 17.6086V17.8933L62.424 17.754C62.175 17.6112 61.9962 17.5667 61.8789 17.6231C61.7617 17.6796 61.7078 17.813 61.7078 18.0233C61.7078 18.2839 61.8079 18.7969 62.0081 19.5626L63.7419 26.224L65.4611 21.478C65.6562 20.9564 65.754 20.5725 65.7546 20.3262C65.7499 20.1923 65.7163 20.0611 65.6562 19.9414C65.5983 19.8087 65.5165 19.6879 65.4149 19.5848C65.2166 19.3943 64.9946 19.2302 64.7542 19.0965V18.8118L67.449 20.3621ZM72.7136 46.9404C72.2583 52.7749 70.3953 58.9541 67.5406 64.7655L84.6238 74.6123C87.5188 68.6264 89.2663 62.2625 89.2663 56.5306V56.4785L72.7195 46.9395L72.7136 46.9404ZM46.5157 83.7229C48.4997 82.5631 50.3688 81.2173 52.0977 79.7038L35.1856 69.9553C32.7895 72.2051 30.2445 74.1454 27.6054 75.6667L24.5461 77.4308L40.9901 86.915L46.5157 83.7229Z" fill="#777777"/>
<path d="M7.4068 97.4393L8.8359 93.7648L7.4068 91.7373L4.55031 93.3851L3.12207 97.0605L4.55031 99.088L7.4068 97.4393Z" fill="#EDEDEF"/>
<path d="M7.40704 91.7372L4.49664 90.0586L1.6393 91.7056L0.211914 95.3835L1.6393 97.4093L4.55055 99.0879L3.12231 97.0604L4.55055 93.385L7.40704 91.7372Z" fill="white"/>
<path d="M0.211914 95.3835L3.12231 97.0604L4.55056 93.385L1.6393 91.7056L0.211914 95.3835Z" fill="#777777"/>
<path d="M1.6393 97.4096L4.55056 99.0882L3.12231 97.0607L0.211914 95.3838L1.6393 97.4096Z" fill="#444444"/>
<path d="M4.55063 99.3011C4.51341 99.301 4.47683 99.2913 4.44452 99.2728L1.53497 97.5934C1.50788 97.5785 1.48472 97.5574 1.46739 97.5318L0.039127 95.506C0.0188414 95.4774 0.00595586 95.4443 0.00162527 95.4095C-0.00270533 95.3747 0.00165061 95.3394 0.0143069 95.3068L1.44257 91.6297C1.45996 91.5842 1.49261 91.5461 1.53497 91.522L4.39147 89.875C4.42381 89.8561 4.46057 89.8462 4.498 89.8462C4.53544 89.8462 4.57222 89.8561 4.60455 89.875L7.5141 91.5536C7.54645 91.5722 7.57331 91.599 7.59194 91.6312C7.61058 91.6635 7.62033 91.7002 7.62021 91.7375C7.62022 91.7748 7.61044 91.8115 7.59182 91.8439C7.5732 91.8764 7.5464 91.9033 7.5141 91.9222L4.72178 93.5307L3.36201 97.0307L4.72435 98.965C4.7522 99.0047 4.7657 99.0526 4.76258 99.101C4.75947 99.1493 4.73995 99.1952 4.70724 99.2309C4.6875 99.2529 4.66335 99.2705 4.63637 99.2826C4.6094 99.2947 4.58019 99.301 4.55063 99.3011ZM1.78658 97.2488L3.82153 98.4228L2.94867 97.1829C2.92853 97.1543 2.91581 97.1211 2.91163 97.0863C2.90745 97.0515 2.91193 97.0163 2.92471 96.9837L4.35211 93.3066C4.36985 93.2615 4.40244 93.2238 4.44452 93.1997L6.98183 91.7357L4.50016 90.3025L1.81481 91.8512L0.45503 95.3529L1.78658 97.2488Z" fill="#222222"/>
<path d="M7.4068 97.4393L8.8359 93.7648L7.4068 91.7373L4.55031 93.3851L3.12207 97.0605L4.55031 99.088L7.4068 97.4393Z" fill="#EDEDEF"/>
<path d="M27.6358 103.408L7.4068 91.7373L4.55031 93.3851L3.12207 97.0605L4.55031 99.088L24.7802 110.76L23.3511 108.733L24.7802 105.057L27.6358 103.408Z" fill="#777777"/>
<g style="mix-blend-mode:overlay" opacity="0.2">
<path d="M23.3511 108.733L3.12207 97.0606L4.55031 93.3853L24.7802 105.057L23.3511 108.733Z" fill="black"/>
</g>
<g style="mix-blend-mode:overlay" opacity="0.3">
<path d="M24.7802 110.76L4.55031 99.0881L3.12207 97.0605L23.3511 108.733L24.7802 110.76Z" fill="black"/>
</g>
<path d="M24.7814 110.975C24.7442 110.975 24.7076 110.965 24.6753 110.947L4.44456 99.2751C4.41743 99.2599 4.39428 99.2385 4.37698 99.2127L2.94872 97.1852C2.92857 97.1565 2.91586 97.1233 2.91167 97.0886C2.90749 97.0538 2.91198 97.0185 2.92475 96.9859L4.35216 93.3089C4.36989 93.2638 4.40248 93.2261 4.44456 93.202L7.30192 91.5542C7.33421 91.5356 7.37079 91.5259 7.40803 91.5259C7.44527 91.5259 7.48185 91.5356 7.51414 91.5542L27.7432 103.225C27.7754 103.244 27.8022 103.27 27.8208 103.303C27.8394 103.335 27.8492 103.372 27.8493 103.409C27.8493 103.446 27.8395 103.483 27.8209 103.515C27.8023 103.548 27.7755 103.575 27.7432 103.594L24.9526 105.205L23.5911 108.705L24.9551 110.638C24.983 110.678 24.9965 110.726 24.9935 110.774C24.9906 110.822 24.9713 110.868 24.9389 110.904C24.919 110.926 24.8948 110.944 24.8676 110.956C24.8405 110.968 24.8112 110.975 24.7814 110.975ZM4.69788 98.9305L24.0506 110.096L23.1777 108.859C23.1576 108.83 23.1449 108.796 23.1407 108.761C23.1365 108.727 23.141 108.691 23.1538 108.658L24.5829 104.981C24.6005 104.936 24.6328 104.898 24.6745 104.874L27.2117 103.41L7.40803 91.9834L4.72182 93.5304L3.36205 97.0304L4.69788 98.9305Z" fill="#222222"/>
<path d="M31.4151 110.468L31.8661 109.31L31.4151 108.67L30.5165 109.19L30.0664 110.348L30.5165 110.985L31.4151 110.468Z" fill="#EDEDEF"/>
<path d="M31.4153 108.671L27.6363 103.408L24.7807 105.057L23.3516 108.733L24.7807 110.76L30.5167 110.986L30.0666 110.348L30.5167 109.191L31.4153 108.671Z" fill="white"/>
<g opacity="0.5">
<path opacity="0.5" d="M30.0666 110.349L23.3516 108.733L24.7807 105.057L30.5168 109.191L30.0666 110.349Z" fill="#CEE7FD"/>
</g>
<path d="M30.5168 110.985L24.7807 110.76L23.3516 108.733L30.0666 110.348L30.5168 110.985Z" fill="#CEE7FD"/>
<path d="M30.5165 111.199H30.5088L24.7753 110.973C24.7431 110.972 24.7114 110.964 24.6828 110.949C24.6542 110.934 24.6294 110.913 24.6101 110.887L23.1802 108.861C23.16 108.832 23.1473 108.798 23.1431 108.763C23.1389 108.729 23.1434 108.693 23.1562 108.66L24.5853 104.983C24.603 104.938 24.6352 104.9 24.6769 104.876L27.5325 103.227C27.5784 103.201 27.6322 103.192 27.6838 103.203C27.7355 103.215 27.7812 103.244 27.8123 103.287L31.5905 108.55C31.6082 108.574 31.6205 108.602 31.6266 108.632C31.6326 108.661 31.6323 108.692 31.6256 108.721C31.6193 108.75 31.607 108.777 31.5896 108.801C31.5723 108.825 31.5501 108.846 31.5246 108.861L30.6902 109.343L30.3086 110.325L30.6928 110.868C30.7158 110.901 30.7293 110.939 30.7317 110.978C30.7341 111.018 30.7254 111.058 30.7065 111.092C30.6872 111.126 30.6594 111.153 30.626 111.171C30.5926 111.19 30.5548 111.199 30.5165 111.199ZM24.8942 110.552L30.0946 110.756L29.8927 110.472C29.8724 110.443 29.8595 110.41 29.8552 110.375C29.8508 110.34 29.8552 110.305 29.8678 110.272L30.3188 109.114C30.3365 109.069 30.3687 109.031 30.4104 109.007L31.1061 108.605L27.5761 103.689L24.9524 105.204L23.5909 108.704L24.8942 110.552Z" fill="#222222"/>
<path d="M33.2875 110.692L33.4372 110.907L33.2866 111.296L32.9845 111.468L30.5165 110.985L30.0664 110.348L30.5165 109.19L31.4151 108.67L33.2875 110.692Z" fill="#777777"/>
<g style="mix-blend-mode:overlay" opacity="0.2">
<path d="M32.8356 111.255L32.9862 110.867L30.5165 109.191L30.0664 110.349L32.8356 111.255Z" fill="black"/>
</g>
<g style="mix-blend-mode:overlay" opacity="0.3">
<path d="M32.9845 111.469L32.8356 111.255L30.0664 110.349L30.5165 110.986L32.9845 111.469Z" fill="black"/>
</g>
<path d="M32.9845 111.681C32.9711 111.683 32.9576 111.683 32.9442 111.681L30.4763 111.197C30.4226 111.187 30.3749 111.157 30.3436 111.112L29.8926 110.475C29.8724 110.446 29.8595 110.413 29.8551 110.378C29.8508 110.343 29.8552 110.308 29.8678 110.275L30.3188 109.117C30.3364 109.072 30.3687 109.034 30.4104 109.01L31.3089 108.49C31.3507 108.466 31.3996 108.457 31.4473 108.464C31.4951 108.471 31.539 108.495 31.5716 108.53L33.4406 110.547C33.4473 110.554 33.4533 110.562 33.4585 110.57L33.6092 110.783C33.6292 110.812 33.6419 110.845 33.6461 110.88C33.6503 110.915 33.6458 110.95 33.6331 110.983L33.4825 111.372C33.4648 111.417 33.4322 111.455 33.3901 111.479L33.088 111.65C33.0569 111.669 33.0212 111.68 32.9845 111.681ZM30.6414 110.794L32.9519 111.245L33.1231 111.149L33.2087 110.936L33.1316 110.826L31.3851 108.94L30.7005 109.337L30.3188 110.319L30.6414 110.794Z" fill="#222222"/>
<path d="M91.9241 102.995C91.8215 102.523 91.6151 102.079 91.3199 101.696C90.2263 101.747 89.1044 101.533 88.27 101.052C87.4357 100.572 87.0634 99.9242 87.1524 99.2957C86.799 99.2102 86.4345 99.1246 86.0511 99.0682C85.6677 99.0118 85.2809 98.9724 84.8984 98.9468C84.4286 99.5163 83.5454 99.9729 82.4047 100.144C81.264 100.315 80.1053 100.183 79.2042 99.8233C78.6164 100.069 78.062 100.389 77.5544 100.774V103.028C77.6091 103.074 77.6571 103.123 77.7058 103.171C77.3071 103.564 76.7174 103.874 76.0234 104.063V106.316C76.124 106.789 76.3286 107.233 76.6225 107.616C77.7144 107.564 78.838 107.778 79.674 108.259C80.5101 108.741 80.8781 109.388 80.7865 110.017C81.1425 110.103 81.5071 110.188 81.8904 110.245C82.2738 110.301 82.6606 110.34 83.0406 110.367C83.5121 109.795 84.3944 109.341 85.5351 109.165C86.6758 108.989 87.8353 109.126 88.7356 109.485C89.3246 109.24 89.8799 108.92 90.388 108.534V106.28C90.3324 106.233 90.2845 106.185 90.2348 106.136C90.6353 105.743 91.2241 105.436 91.9181 105.247L91.9241 102.995ZM80.6376 104.661C81.4934 103.813 83.2545 103.363 84.9771 103.629C85.998 103.787 86.8135 104.166 87.309 104.655C86.4533 105.504 84.6922 105.954 82.9704 105.688C81.9486 105.53 81.1331 105.149 80.6376 104.661Z" fill="white"/>
<path d="M86.0279 105.417C86.5052 105.257 86.9428 104.996 87.3115 104.654C86.816 104.165 86.0005 103.787 84.9796 103.627C83.2569 103.362 81.4984 103.812 80.6401 104.66C80.8437 104.857 81.0742 105.024 81.3247 105.156C80.3217 104.613 79.8562 103.776 80.2387 102.954C80.7941 101.763 82.9146 101.055 84.9787 101.374C87.0428 101.693 88.2656 102.913 87.7111 104.106C87.4458 104.673 86.8254 105.129 86.0279 105.417ZM85.5409 106.913C84.4002 107.091 83.5179 107.543 83.0464 108.115C82.6639 108.089 82.2805 108.053 81.8963 107.994C81.5121 107.935 81.1484 107.854 80.7924 107.766C80.878 107.136 80.5109 106.49 79.6799 106.009C78.849 105.528 77.7203 105.313 76.6283 105.364C76.3347 104.981 76.1301 104.538 76.0293 104.066V106.319C76.1298 106.792 76.3345 107.236 76.6283 107.619C77.7203 107.567 78.8439 107.781 79.6799 108.262C80.516 108.744 80.884 109.391 80.7924 110.02C81.1484 110.106 81.5129 110.191 81.8963 110.248C82.2797 110.304 82.6665 110.343 83.0464 110.37C83.5179 109.798 84.4002 109.344 85.5409 109.168C86.6817 108.992 87.8412 109.129 88.7414 109.489C89.3304 109.243 89.8857 108.923 90.3939 108.537V106.283C89.8855 106.668 89.3303 106.988 88.7414 107.234C87.8412 106.875 86.6834 106.738 85.5409 106.909V106.913ZM91.924 102.995C90.9322 103.266 90.144 103.775 89.8368 104.436C89.5296 105.096 89.77 105.762 90.3939 106.283C90.3383 106.236 90.2903 106.188 90.2407 106.139C90.6412 105.746 91.23 105.44 91.924 105.25V102.995ZM78.1088 102.624C78.416 101.966 78.1764 101.299 77.5542 100.777V103.031C77.609 103.078 77.6569 103.126 77.7057 103.174C77.872 103.017 78.0086 102.83 78.1088 102.624Z" fill="#777777"/>
<path d="M83.0467 110.586H83.0322C82.5838 110.555 82.2133 110.515 81.865 110.462C81.5167 110.408 81.1453 110.332 80.7414 110.231C80.6905 110.218 80.6461 110.186 80.6168 110.143C80.5874 110.099 80.5751 110.047 80.5822 109.995C80.6618 109.431 80.293 108.868 79.5707 108.45C78.8005 108.008 77.7325 107.784 76.6363 107.835C76.6016 107.836 76.5672 107.829 76.5359 107.814C76.5045 107.799 76.4771 107.777 76.4558 107.75C76.1415 107.342 75.9225 106.868 75.8148 106.365C75.8121 106.351 75.8107 106.337 75.8105 106.323V104.069C75.8106 104.023 75.8261 103.977 75.8545 103.94C75.883 103.903 75.9228 103.876 75.968 103.864C76.4858 103.735 76.9711 103.5 77.3928 103.173C77.3598 103.135 77.3416 103.086 77.3415 103.035V100.781C77.3415 100.747 77.3492 100.715 77.3641 100.685C77.3789 100.655 77.4005 100.63 77.427 100.61C77.9493 100.214 78.5194 99.8853 79.124 99.6322C79.1761 99.6108 79.2345 99.6108 79.2866 99.6322C80.192 99.9939 81.3173 100.106 82.375 99.94C83.4199 99.7784 84.2816 99.3679 84.7377 98.8147C84.7594 98.7887 84.7869 98.7682 84.8179 98.7549C84.849 98.7415 84.8828 98.7356 84.9166 98.7377C85.3633 98.7676 85.7355 98.807 86.0872 98.8609C86.4389 98.9147 86.8009 98.99 87.2083 99.0926C87.2592 99.1054 87.3036 99.1366 87.3328 99.1802C87.362 99.2238 87.3741 99.2767 87.3666 99.3286C87.287 99.8921 87.6558 100.455 88.3798 100.868C89.1499 101.31 90.2179 101.535 91.3133 101.483C91.348 101.481 91.3826 101.489 91.414 101.503C91.4454 101.518 91.4728 101.541 91.4938 101.568C91.8081 101.976 92.0273 102.449 92.1356 102.953C92.1383 102.966 92.1398 102.98 92.1399 102.995V105.25C92.1399 105.296 92.1245 105.341 92.0962 105.378C92.0679 105.415 92.0282 105.442 91.9833 105.454C91.4659 105.584 90.9809 105.818 90.5585 106.144C90.5922 106.182 90.6108 106.232 90.6107 106.283V108.534C90.6106 108.567 90.6029 108.6 90.588 108.63C90.5732 108.659 90.5517 108.685 90.5251 108.705C90.0025 109.102 89.4314 109.432 88.8256 109.685C88.7999 109.696 88.7722 109.701 88.7443 109.701C88.7164 109.701 88.6888 109.696 88.663 109.685C87.7602 109.325 86.634 109.212 85.5746 109.376C84.5152 109.541 83.6663 109.951 83.2111 110.504C83.1915 110.529 83.1666 110.55 83.1382 110.564C83.1098 110.578 83.0785 110.586 83.0467 110.586ZM81.0186 109.86C81.3421 109.937 81.6416 109.997 81.93 110.042C82.2381 110.09 82.5667 110.127 82.9569 110.155C83.4917 109.565 84.4117 109.133 85.5096 108.957C86.6075 108.781 87.7816 108.897 88.7375 109.259C89.2488 109.038 89.7336 108.761 90.1828 108.431V106.379L90.1204 106.319L90.0938 106.294C90.0735 106.274 90.0574 106.25 90.0464 106.224C90.0353 106.198 90.0297 106.17 90.0297 106.141C90.0295 106.113 90.035 106.085 90.0459 106.059C90.0568 106.033 90.0728 106.009 90.093 105.989C90.4858 105.604 91.0429 105.296 91.7121 105.091V103.018C91.6231 102.62 91.454 102.244 91.2149 101.914C90.0801 101.949 88.9745 101.704 88.1641 101.238C87.3537 100.772 86.9182 100.135 86.9276 99.4603C86.6007 99.3816 86.3089 99.3235 86.0196 99.279C85.7081 99.2311 85.3787 99.1935 84.9927 99.167C84.457 99.757 83.538 100.193 82.44 100.359C81.3421 100.525 80.1706 100.421 79.2113 100.058C78.701 100.278 78.2173 100.555 77.7693 100.884V102.936L77.8455 103.011L77.8575 103.023C77.8778 103.042 77.8939 103.066 77.9049 103.092C77.9159 103.118 77.9216 103.146 77.9217 103.174C77.9216 103.202 77.916 103.23 77.9051 103.256C77.8943 103.282 77.8784 103.306 77.8583 103.325C77.4638 103.713 76.9068 104.022 76.2384 104.226V106.298C76.3269 106.696 76.4958 107.071 76.7347 107.402C77.8703 107.368 78.976 107.611 79.7864 108.078C80.5967 108.545 81.028 109.182 81.0186 109.856V109.86ZM83.9556 105.978C83.6152 105.978 83.2753 105.953 82.9389 105.901C81.9069 105.742 81.0366 105.356 80.4889 104.816C80.4688 104.796 80.4528 104.773 80.4419 104.747C80.431 104.721 80.4255 104.693 80.4256 104.665C80.4255 104.636 80.4311 104.609 80.442 104.583C80.4528 104.557 80.4688 104.533 80.4889 104.513C81.4106 103.603 83.2692 103.154 85.0098 103.423C86.041 103.582 86.9104 103.967 87.459 104.506C87.4992 104.547 87.522 104.601 87.5223 104.658C87.5222 104.686 87.5166 104.714 87.5057 104.74C87.4949 104.766 87.479 104.789 87.459 104.809C86.7162 105.541 85.365 105.974 83.9556 105.974V105.978ZM80.9562 104.665C81.4456 105.064 82.1619 105.349 83.0031 105.481C84.5169 105.715 86.1112 105.378 86.9909 104.659C86.5023 104.259 85.786 103.975 84.9448 103.843C83.4318 103.605 81.8359 103.941 80.9562 104.66V104.665Z" fill="#222222"/>
<path d="M83.6178 100.593C84.192 100.751 84.6806 101.006 85.0127 101.331C84.9716 101.371 84.9322 101.412 84.886 101.45V103.318C85.3077 103.637 85.7677 103.902 86.2552 104.107C87.1013 103.789 88.0157 103.698 88.908 103.841C89.8553 103.989 90.587 104.363 90.9781 104.838C91.2956 104.816 91.6139 104.786 91.9331 104.737C92.2523 104.687 92.5535 104.622 92.8479 104.549C92.7743 104.026 93.0815 103.49 93.7738 103.09C94.4661 102.689 95.3997 102.513 96.306 102.556C96.5504 102.238 96.7211 101.87 96.8057 101.478V99.6075C96.2298 99.4502 95.7412 99.1936 95.41 98.867C95.4502 98.8276 95.4904 98.7875 95.5358 98.749V96.878C95.1143 96.5587 94.6543 96.2938 94.1666 96.0895C93.3204 96.4068 92.4062 96.4985 91.5138 96.3555C90.5673 96.2084 89.834 95.833 89.4437 95.3584C89.1262 95.3798 88.8062 95.4106 88.4879 95.4602C88.1695 95.5098 87.8674 95.5739 87.5731 95.6474C87.6475 96.1708 87.3394 96.7069 86.6463 97.1071C85.9531 97.5073 85.0204 97.6835 84.1158 97.6399C83.8703 97.9576 83.6992 98.3264 83.6152 98.719L83.6178 100.593ZM91.0465 100.955C89.6174 101.177 88.1584 100.803 87.4456 100.1C87.8572 99.6948 88.5341 99.3792 89.3813 99.245C90.8104 99.0243 92.2703 99.398 92.9822 100.1C92.5706 100.509 91.8946 100.824 91.0465 100.955Z" fill="#777777"/>
<g style="mix-blend-mode:overlay" opacity="0.3">
<path d="M87.115 99.641C86.6537 98.6533 87.6704 97.6383 89.3819 97.3749C91.0934 97.1115 92.8554 97.6973 93.3183 98.6858C93.6358 99.3699 93.2499 100.062 92.4172 100.515C92.6253 100.404 92.8168 100.265 92.9863 100.102C92.2743 99.3981 90.8144 99.0244 89.3853 99.2468C88.5381 99.3776 87.8612 99.6931 87.4496 100.102C87.7556 100.385 88.1181 100.6 88.5133 100.734C87.8475 100.496 87.3341 100.115 87.115 99.641ZM86.2592 102.238C85.7715 102.033 85.3115 101.767 84.89 101.448V103.318C85.3118 103.637 85.7717 103.902 86.2592 104.107C87.1053 103.789 88.0197 103.698 88.9121 103.841C89.8594 103.989 90.591 104.363 90.9821 104.838C91.2996 104.816 91.6179 104.786 91.9371 104.737C92.2563 104.687 92.5576 104.622 92.8519 104.549C92.7783 104.026 93.0856 103.49 93.7779 103.09C94.4702 102.689 95.4038 102.513 96.31 102.556C96.5544 102.238 96.7251 101.87 96.8098 101.478V99.6076C96.7256 99.9992 96.5549 100.367 96.31 100.684C95.4038 100.641 94.4719 100.818 93.7779 101.22C93.0838 101.621 92.7783 102.16 92.8519 102.673C92.5576 102.747 92.2529 102.813 91.9371 102.862C91.6214 102.912 91.2996 102.941 90.9821 102.964C90.591 102.489 89.8594 102.109 88.9121 101.965C88.0183 101.825 87.1034 101.92 86.2575 102.241L86.2592 102.238ZM83.6201 100.59C84.1943 100.748 84.683 101.003 85.015 101.329C84.9739 101.368 84.9345 101.409 84.8883 101.448C85.4018 101.015 85.6054 100.463 85.3504 99.9146C85.0954 99.3665 84.4416 98.944 83.6201 98.7174V100.59ZM95.4175 98.8679C95.4577 98.8286 95.4979 98.7884 95.5433 98.7499V96.8789C95.0298 97.3116 94.8279 97.8666 95.0829 98.4122C95.1651 98.5841 95.2778 98.7397 95.4158 98.8714L95.4175 98.8679Z" fill="black"/>
</g>
<path d="M90.9833 105.054C90.9519 105.054 90.9209 105.047 90.8925 105.034C90.8641 105.02 90.839 105.001 90.819 104.977C90.4467 104.524 89.7407 104.188 88.8799 104.054C88.019 103.92 87.0828 104.01 86.3357 104.311C86.31 104.321 86.2823 104.327 86.2544 104.327C86.2265 104.327 86.1989 104.321 86.1731 104.311C85.6685 104.099 85.1924 103.824 84.756 103.494C84.7294 103.474 84.7079 103.448 84.693 103.419C84.6782 103.389 84.6704 103.356 84.6704 103.323V101.452C84.6703 101.414 84.6807 101.376 84.7004 101.343C84.3593 101.088 83.971 100.903 83.558 100.799C83.513 100.787 83.4733 100.76 83.445 100.723C83.4167 100.686 83.4014 100.641 83.4014 100.594V98.724C83.4001 98.7101 83.4001 98.6961 83.4014 98.6821C83.4913 98.2587 83.6756 97.8609 83.9405 97.5183C83.9608 97.4901 83.9879 97.4674 84.0193 97.4525C84.0508 97.4375 84.0854 97.4307 84.1202 97.4328C85.0247 97.4747 85.9036 97.2917 86.5351 96.9283C87.1222 96.5862 87.4217 96.1347 87.3575 95.6823C87.3502 95.6303 87.3624 95.5774 87.3918 95.5339C87.4212 95.4903 87.4657 95.4591 87.5167 95.4463C87.859 95.3608 88.1568 95.2992 88.4511 95.2548C88.7455 95.2103 89.0596 95.1761 89.4241 95.1513C89.4579 95.1492 89.4917 95.155 89.5228 95.1684C89.5539 95.1818 89.5813 95.2023 89.603 95.2283C89.9752 95.6815 90.6821 96.0176 91.5412 96.151C92.3969 96.2871 93.2733 96.1987 94.0845 95.8944C94.1369 95.8731 94.1956 95.8731 94.248 95.8944C94.7521 96.106 95.2276 96.3801 95.6634 96.7102C95.69 96.7301 95.7116 96.7559 95.7265 96.7856C95.7413 96.8153 95.749 96.848 95.749 96.8812V98.7523C95.7487 98.7902 95.7383 98.8274 95.719 98.86C96.0595 99.1168 96.4484 99.3023 96.8623 99.4056C96.9073 99.4178 96.9471 99.4445 96.9754 99.4816C97.0037 99.5187 97.019 99.5642 97.0189 99.6108V101.481C97.0202 101.495 97.0202 101.51 97.0189 101.524C96.9284 101.947 96.7445 102.344 96.4806 102.687C96.459 102.714 96.4315 102.735 96.4002 102.75C96.3689 102.765 96.3347 102.773 96.3001 102.772C95.3964 102.729 94.5167 102.914 93.8843 103.278C93.299 103.62 92.9994 104.071 93.0636 104.524C93.0709 104.576 93.0585 104.629 93.029 104.672C92.9994 104.716 92.9547 104.747 92.9036 104.76C92.5707 104.845 92.2652 104.905 91.97 104.951C91.6747 104.997 91.3761 105.027 90.997 105.055L90.9833 105.054ZM88.0823 103.568C88.3714 103.568 88.6601 103.59 88.9458 103.634C89.8563 103.776 90.623 104.134 91.0731 104.622C91.3932 104.597 91.6602 104.568 91.9058 104.53C92.136 104.494 92.3747 104.445 92.6298 104.388C92.6349 103.825 93.0054 103.295 93.6729 102.909C94.3404 102.523 95.2663 102.318 96.2051 102.342C96.3935 102.077 96.5273 101.777 96.5987 101.46V99.7699C96.1015 99.6293 95.6447 99.3732 95.2655 99.0225C95.225 98.9821 95.2022 98.9274 95.2021 98.8703C95.2022 98.842 95.2079 98.8141 95.2189 98.7881C95.23 98.7621 95.2461 98.7386 95.2663 98.7189L95.3279 98.6582V96.9898C94.9662 96.7266 94.5768 96.5035 94.1667 96.3245C93.307 96.6289 92.3848 96.7138 91.4839 96.5717C90.5742 96.4306 89.8066 96.0731 89.3557 95.584C89.0467 95.6071 88.7729 95.637 88.523 95.6755C88.292 95.7106 88.0583 95.761 87.7999 95.8175C87.7999 96.3801 87.4242 96.9103 86.7559 97.2968C86.0876 97.6833 85.1659 97.8877 84.2237 97.8629C84.0352 98.1284 83.9014 98.4287 83.8301 98.7463V100.436C84.3266 100.577 84.7829 100.833 85.1625 101.183C85.1829 101.203 85.199 101.227 85.2099 101.253C85.2208 101.279 85.2262 101.308 85.2258 101.336C85.2253 101.365 85.2192 101.393 85.2077 101.419C85.1963 101.445 85.1797 101.469 85.1591 101.489L85.1257 101.52L85.0992 101.547V103.218C85.4614 103.481 85.8514 103.705 86.2621 103.884C86.8454 103.672 87.4617 103.565 88.0823 103.568ZM90.2277 101.23C89.051 101.23 87.9172 100.866 87.2959 100.25C87.2758 100.23 87.2598 100.206 87.249 100.18C87.2381 100.154 87.2325 100.126 87.2325 100.098C87.2329 100.041 87.2556 99.987 87.2959 99.9469C87.758 99.4937 88.4871 99.1704 89.3497 99.0379C90.8044 98.813 92.3602 99.1892 93.1321 99.9537C93.1522 99.9734 93.1682 99.997 93.1791 100.023C93.19 100.049 93.1955 100.077 93.1954 100.105C93.1951 100.162 93.1723 100.216 93.1321 100.256C92.6708 100.71 91.9417 101.032 91.0783 101.165C90.7968 101.208 90.5124 101.23 90.2277 101.23ZM87.7674 100.099C88.4982 100.671 89.7887 100.935 91.0141 100.745C91.685 100.641 92.2592 100.417 92.6597 100.104C91.9315 99.5321 90.641 99.2679 89.4139 99.4577C88.743 99.5612 88.1679 99.7861 87.7674 100.099Z" fill="#222222"/>
<path d="M100.715 25.3914C100.715 26.0695 101.192 26.8947 101.781 27.235L113.984 34.2761C114.573 34.6182 115.049 34.3403 115.049 33.6622V28.3843C115.049 27.7053 114.572 26.8793 113.982 26.5389L101.78 19.4995C101.192 19.1575 100.713 19.4354 100.714 20.1144L100.715 25.3914Z" fill="white"/>
<path d="M114.462 34.6348C114.256 34.6296 114.055 34.5706 113.879 34.4637L101.676 27.4235C101.018 27.0429 100.503 26.1519 100.503 25.3951V20.1181C100.503 19.7111 100.651 19.4006 100.921 19.245C101.192 19.0894 101.536 19.115 101.889 19.3186L114.091 26.358C114.748 26.7376 115.263 27.6295 115.264 28.3872V33.6659C115.264 34.0721 115.116 34.3825 114.847 34.5381C114.729 34.6038 114.597 34.6371 114.462 34.6348ZM101.306 19.5674C101.247 19.5662 101.188 19.5806 101.135 19.6093C101.004 19.6854 100.929 19.8658 100.929 20.1147V25.3917C100.929 25.9903 101.369 26.7505 101.89 27.0515L114.092 34.0917C114.305 34.2149 114.503 34.2423 114.634 34.1661C114.765 34.09 114.838 33.9096 114.838 33.6625V28.3846C114.838 27.786 114.398 27.0233 113.878 26.7231L101.676 19.6837C101.565 19.6139 101.438 19.5738 101.306 19.5674Z" fill="#222222"/>
<path d="M112.973 28.645C112.973 28.8075 112.859 28.8742 112.717 28.7921L103.047 23.2124C102.972 23.1644 102.91 23.0994 102.865 23.0226C102.821 22.9459 102.795 22.8598 102.79 22.7712C102.79 22.6078 102.906 22.5411 103.047 22.6241L112.717 28.2012C112.791 28.2501 112.853 28.3157 112.898 28.3927C112.942 28.4698 112.968 28.5562 112.973 28.645ZM111.196 29.9773C111.196 30.1424 111.08 30.2048 110.939 30.1253L103.048 25.5726C102.973 25.5241 102.911 25.4588 102.866 25.3818C102.822 25.3048 102.796 25.2184 102.791 25.1296C102.791 24.9688 102.905 24.9004 103.048 24.9834L110.94 29.5369C111.015 29.5849 111.077 29.6498 111.121 29.7263C111.166 29.8029 111.192 29.8889 111.197 29.9773H111.196ZM109.419 27.7737C109.414 27.6853 109.388 27.5993 109.344 27.5228C109.299 27.4463 109.237 27.3814 109.163 27.3333L103.048 23.805C102.905 23.7195 102.791 23.7879 102.791 23.9504C102.796 24.0392 102.821 24.1256 102.866 24.2026C102.911 24.2796 102.973 24.3449 103.048 24.3933L109.162 27.9216C109.303 28.002 109.419 27.9379 109.419 27.7737H109.419Z" fill="#777777"/>
<path d="M45.3106 114.817L49.9693 117.505V120.357L45.7573 122.787L41.0986 120.099V117.247L45.3106 114.817Z" fill="white"/>
<path d="M45.7573 122.787L41.0986 120.099V117.247L45.7573 119.936V122.787Z" fill="#444444"/>
<path d="M49.9688 120.357L45.7568 122.787V119.935L49.9688 117.505V120.357Z" fill="#777777"/>
<path d="M45.7576 123C45.7204 123 45.6838 122.99 45.6515 122.972L40.9928 120.283C40.9605 120.264 40.9337 120.237 40.9151 120.205C40.8965 120.173 40.8867 120.136 40.8867 120.098V117.247C40.8866 117.209 40.8964 117.173 40.915 117.14C40.9336 117.108 40.9605 117.081 40.9928 117.063L45.2048 114.633C45.237 114.614 45.2736 114.604 45.3109 114.604C45.3482 114.604 45.3849 114.614 45.417 114.633L50.0766 117.321C50.1088 117.34 50.1356 117.366 50.1542 117.399C50.1728 117.431 50.1826 117.468 50.1827 117.505V120.357C50.1825 120.394 50.1727 120.431 50.1541 120.463C50.1355 120.495 50.1088 120.522 50.0766 120.541L45.8646 122.972C45.832 122.99 45.7951 123 45.7576 123ZM41.3078 119.976L45.7576 122.542L49.7574 120.233V117.628L45.3075 115.063L41.3086 117.371L41.3078 119.976Z" fill="#222222"/>
<path d="M34.8 45.6331C35.153 45.2808 35.6315 45.083 36.1303 45.083C36.6291 45.083 37.1076 45.2808 37.4605 45.6331C37.8127 45.9858 38.0106 46.4637 38.0106 46.9619C38.0106 47.4602 37.8127 47.9381 37.4605 48.2908C37.1076 48.643 36.6291 48.8409 36.1303 48.8409C35.6315 48.8409 35.153 48.643 34.8 48.2908C34.4478 47.9381 34.25 47.4602 34.25 46.9619C34.25 46.4637 34.4478 45.9858 34.8 45.6331Z" fill="white"/>
<path d="M36.8424 47.6756C37.1406 47.3771 37.3293 46.9868 37.3781 46.5678C37.4269 46.1488 37.3328 45.7256 37.1111 45.3667C37.238 45.4424 37.3552 45.5331 37.4602 45.6369C37.8124 45.9896 38.0102 46.4675 38.0102 46.9658C38.0102 47.4641 37.8124 47.942 37.4602 48.2947C37.1072 48.6469 36.6288 48.8447 36.13 48.8447C35.6311 48.8447 35.1527 48.6469 34.7997 48.2947C34.6964 48.1892 34.6056 48.0722 34.5293 47.9458C34.8893 48.1666 35.3131 48.26 35.7327 48.211C36.1522 48.1619 36.5431 47.9734 36.8424 47.6756Z" fill="#777777"/>
<path d="M36.132 49.054C35.8567 49.0548 35.584 49.0009 35.3297 48.8955C35.0754 48.7901 34.8446 48.6353 34.6507 48.44C34.4556 48.2463 34.3009 48.0157 34.1956 47.7618C34.0902 47.5078 34.0364 47.2356 34.0371 46.9607C34.0365 46.6859 34.0904 46.4138 34.1957 46.16C34.301 45.9062 34.4557 45.6758 34.6507 45.4821C34.8444 45.2869 35.0751 45.1321 35.3292 45.0267C35.5834 44.9213 35.856 44.8674 36.1311 44.8682C36.4064 44.8674 36.6791 44.9213 36.9334 45.0267C37.1877 45.1321 37.4185 45.2869 37.6124 45.4821C37.8074 45.6758 37.9621 45.9062 38.0674 46.16C38.1727 46.4138 38.2266 46.6859 38.226 46.9607C38.2268 47.2357 38.173 47.5082 38.0677 47.7622C37.9624 48.0163 37.8077 48.247 37.6124 48.4409C37.4185 48.6359 37.1878 48.7904 36.9337 48.8957C36.6796 49.0009 36.4071 49.0548 36.132 49.054ZM36.132 45.2915C35.9128 45.2908 35.6957 45.3337 35.4932 45.4177C35.2908 45.5017 35.1071 45.625 34.9528 45.7806C34.7972 45.9349 34.6739 46.1185 34.5899 46.3208C34.5058 46.523 34.4628 46.74 34.4633 46.959C34.4627 47.1781 34.5056 47.3952 34.5896 47.5976C34.6737 47.8001 34.7971 47.9838 34.9528 48.1382C35.1072 48.2937 35.2911 48.4171 35.4937 48.501C35.6963 48.585 35.9135 48.6279 36.1328 48.6273C36.352 48.6277 36.5691 48.5847 36.7715 48.5008C36.9739 48.4168 37.1576 48.2936 37.3121 48.1382C37.4677 47.9838 37.5912 47.8001 37.6752 47.5976C37.7592 47.3952 37.8022 47.1781 37.8016 46.959C37.802 46.74 37.759 46.5232 37.6752 46.3209C37.5913 46.1187 37.4682 45.935 37.3129 45.7806C37.1578 45.626 36.9736 45.5037 36.7709 45.4206C36.5682 45.3375 36.3511 45.2954 36.132 45.2966V45.2915Z" fill="#222222"/>
<path d="M32.6932 25.7063C32.6932 25.3277 32.442 24.9477 31.9395 24.6581C31.3799 24.3604 30.7534 24.2104 30.1195 24.2224C29.486 24.2098 28.8599 24.3598 28.301 24.6581C27.7972 24.9477 27.5459 25.3223 27.5459 25.7063V26.7995C27.5459 28.3551 28.1508 31.0132 28.1508 33.1001C28.1508 35.1871 27.5459 38.0684 27.5459 39.5947V40.4927C27.5459 40.8739 27.7972 41.2525 28.301 41.5434C28.8607 41.8407 29.4871 41.9903 30.1209 41.9778C30.755 41.9901 31.3819 41.8406 31.9421 41.5434C32.4446 41.2525 32.6972 40.8793 32.6972 40.4927V39.5947C32.6972 38.0684 32.091 35.1871 32.091 33.1001C32.091 31.0132 32.6972 28.3551 32.6972 26.7995V25.7063H32.6932Z" fill="#777777"/>
<g style="mix-blend-mode:overlay" opacity="0.3">
<path d="M32.7 25.7065C32.7 26.0878 32.4487 26.4691 31.9462 26.7586C31.3862 27.0566 30.7593 27.2066 30.125 27.1943V41.9795C30.7592 41.9917 31.386 41.8422 31.9462 41.5451C32.4487 41.2542 32.7013 40.8809 32.7013 40.4943V39.5963C32.7013 38.07 32.0951 35.1887 32.0951 33.1018C32.0951 31.0148 32.7013 28.3567 32.7013 26.8011V25.7079L32.7 25.7065Z" fill="black"/>
</g>
<g style="mix-blend-mode:overlay" opacity="0.1">
<path d="M28.2962 24.6556C29.2999 24.0764 30.9324 24.0764 31.9387 24.6556C32.945 25.2348 32.945 26.1766 31.9387 26.7558C30.9324 27.335 29.3026 27.3363 28.2962 26.7558C27.2899 26.1753 27.2912 25.2361 28.2962 24.6556Z" fill="white"/>
</g>
<path d="M30.1191 24.2233C30.753 24.2113 31.3794 24.3612 31.939 24.659C32.4415 24.9486 32.6927 25.3232 32.6927 25.7071V26.8004C32.6927 28.3559 32.0866 31.0141 32.0866 33.101C32.0866 35.1879 32.6927 38.0692 32.6927 39.5955V40.4935C32.6927 40.8748 32.4402 41.2534 31.9377 41.5443C31.3774 41.8415 30.7506 41.991 30.1165 41.9787C29.4827 41.9911 28.8563 41.8416 28.2965 41.5443C27.7927 41.2534 27.5415 40.8801 27.5415 40.4935V39.5955C27.5415 38.0692 28.1463 35.1879 28.1463 33.101C28.1463 31.0141 27.5415 28.3559 27.5415 26.8004V25.7071C27.5415 25.3285 27.7927 24.9486 28.2965 24.659C28.8554 24.3606 29.4816 24.2106 30.1151 24.2233H30.1191ZM30.1191 23.5591C29.3687 23.548 28.6282 23.731 27.9695 24.0904C27.3048 24.4757 26.906 25.0429 26.8848 25.654C26.8848 25.6726 26.8848 25.6912 26.8848 25.7098V26.8044C26.8848 27.5695 27.0177 28.5552 27.1599 29.594C27.3221 30.7896 27.4896 32.0237 27.4896 33.0997C27.4896 34.1757 27.3128 35.5439 27.1573 36.7448C27.0164 37.8261 26.8914 38.8477 26.8914 39.5942V40.4922C26.8914 41.1259 27.2902 41.717 27.9762 42.1142C28.6362 42.4706 29.377 42.6509 30.1271 42.6376C30.8776 42.6508 31.6188 42.4706 32.2793 42.1142C32.9693 41.7157 33.3654 41.1259 33.3654 40.4922V39.5942C33.3654 38.8477 33.2325 37.8261 33.0916 36.7448C32.936 35.5492 32.7592 34.181 32.7592 33.0997C32.7592 32.0183 32.9267 30.7896 33.0889 29.594C33.2312 28.5512 33.3654 27.5642 33.3654 26.8044V25.7111C33.3668 25.6854 33.3668 25.6597 33.3654 25.634C33.3335 25.0309 32.944 24.4717 32.2833 24.0904C31.624 23.7315 30.8832 23.5485 30.1324 23.5591H30.1191Z" fill="#222222"/>
<path d="M29.9664 19.3156C29.5485 19.072 29.1514 18.7943 28.7793 18.4854V25.7079C28.7793 25.9071 28.9122 26.1064 29.1781 26.2539C29.4693 26.4085 29.7949 26.4866 30.1246 26.481C30.4543 26.4866 30.78 26.4085 31.0711 26.2539C31.337 26.1024 31.4699 25.9071 31.4699 25.7079V19.9426C30.943 19.8017 30.4373 19.5908 29.9664 19.3156Z" fill="#777777"/>
<g style="mix-blend-mode:overlay" opacity="0.3">
<path d="M30.1152 19.3975V26.4818C30.4449 26.4875 30.7706 26.4093 31.0617 26.2547C31.3276 26.1033 31.4605 25.908 31.4605 25.7087V19.9434C30.9917 19.8164 30.54 19.633 30.1152 19.3975Z" fill="black"/>
</g>
<path d="M30.1173 26.8107C29.7297 26.819 29.3466 26.7275 29.0046 26.545C28.6444 26.3378 28.4463 26.0429 28.4463 25.7135V18.4909C28.4464 18.4282 28.4643 18.3668 28.4979 18.3139C28.5316 18.261 28.5796 18.2187 28.6364 18.192C28.693 18.1654 28.7561 18.1554 28.8182 18.1632C28.8803 18.171 28.939 18.1962 28.9873 18.2359C29.3461 18.5316 29.7279 18.7981 30.1293 19.0329C30.5714 19.2917 31.0456 19.4914 31.5397 19.6267C31.6103 19.645 31.6728 19.6863 31.7173 19.744C31.7619 19.8017 31.7859 19.8726 31.7856 19.9455V25.7108C31.7856 26.0402 31.5876 26.3351 31.2286 26.5424C30.8876 26.7262 30.5047 26.8187 30.1173 26.8107ZM29.1083 19.1551V25.7081C29.1083 25.7892 29.192 25.8861 29.3343 25.9738C29.7331 26.2063 30.4988 26.205 30.8976 25.9738C31.0399 25.8915 31.1249 25.7945 31.1249 25.7081V20.1913C30.6614 20.0443 30.2156 19.8465 29.7956 19.6015C29.5596 19.4642 29.3307 19.3153 29.1096 19.1551H29.1083Z" fill="#222222"/>
<path d="M30.6067 4.28416C28.6738 3.16565 26.9243 3.0647 25.6588 3.79797L23.3762 5.11442C22.112 5.84637 21.3317 7.41256 21.333 9.63896C21.333 14.0997 24.461 19.5183 28.3175 21.746C30.2491 22.8592 31.9985 22.9628 33.2641 22.2295L35.5506 20.9118C36.8148 20.1798 37.5978 18.615 37.5978 16.3872C37.5978 11.9265 34.4671 6.50791 30.6067 4.28416Z" fill="white"/>
<path d="M23.3734 5.11751C24.639 4.38556 26.3871 4.48917 28.3173 5.60636C32.1724 7.82878 35.3084 13.2487 35.3057 17.7108C35.3057 19.9358 34.5241 21.5007 33.2612 22.2273L35.5477 20.9095C36.8119 20.1776 37.5949 18.6127 37.5949 16.385C37.5949 11.9216 34.4669 6.50303 30.6065 4.27929C28.6736 3.16077 26.9241 3.05981 25.6586 3.79309L23.3721 5.11087L23.3734 5.11751Z" fill="#777777"/>
<path d="M31.4342 23.035C30.4185 23.035 29.3072 22.6989 28.1493 22.036C24.2051 19.7565 20.9973 14.1985 21 9.64204C21 7.37313 21.7763 5.67012 23.1921 4.8412L23.2041 4.83323L25.464 3.5314L25.4853 3.51679C26.9143 2.68786 28.7901 2.86055 30.7642 4.00298C34.7111 6.2772 37.9201 11.8406 37.9175 16.3943C37.9175 18.6712 37.1318 20.3795 35.7054 21.2045L33.4189 22.5236C32.8144 22.8668 32.1294 23.0434 31.4342 23.035ZM23.5524 5.39514L23.5391 5.40444C22.3254 6.10584 21.6594 7.61093 21.6607 9.64072C21.6607 13.9873 24.7182 19.2902 28.4803 21.4635C30.2417 22.4784 31.8808 22.6511 33.0959 21.947L35.3824 20.6293C36.5948 19.9265 37.2634 18.4215 37.2634 16.3903C37.2634 12.0411 34.2059 6.73949 30.4411 4.56755C28.6904 3.55531 27.0606 3.37199 25.8469 4.0694C25.8398 4.07456 25.8322 4.07901 25.8243 4.08269L23.5564 5.39116L23.5524 5.39514Z" fill="#222222"/>
<path d="M28.3136 20.6152C24.9995 18.701 22.3089 14.0449 22.3115 10.2098C22.3142 6.37473 25.0008 4.82183 28.3163 6.73871C31.6317 8.65559 34.325 13.309 34.3223 17.1441C34.3197 20.9792 31.637 22.5281 28.3136 20.6152Z" fill="#777777"/>
<g style="mix-blend-mode:overlay" opacity="0.6">
<path d="M30.6057 19.2935C27.2916 17.3793 24.6009 12.7206 24.6036 8.88818C24.6036 7.65011 24.8854 6.6538 25.3759 5.93115C23.5481 6.06399 22.3104 7.6129 22.3184 10.2086C22.3184 14.0437 25.0064 18.6998 28.3205 20.614C30.5671 21.9092 32.5239 21.6103 33.5555 20.0972C32.6782 20.161 31.6758 19.9112 30.6057 19.2935Z" fill="black"/>
</g>
</svg>
